<?xml version="1.0" encoding="UTF-8"?><svg id="a" xmlns="http://www.w3.org/2000/svg" xmlns:xlink="http://www.w3.org/1999/xlink" viewBox="0 0 304.7 301"><defs><style>.c{fill:#fff;}.d{clip-path:url(#b);}</style><clipPath id="b"><rect class="c" x="10.46" y="13" width="288" height="288"/></clipPath></defs><rect class="c" x="10.46" y="13" width="288" height="288"/><g class="d"><g><path d="M116.7,3.02s.03-.01,.03-.03-.01-.03-.03-.03-.02,.01-.02,.03,.01,.03,.02,.03Z"/><path d="M126.49,1.54s.05-.02,.05-.05-.02-.05-.05-.05-.05,.02-.05,.05,.02,.05,.05,.05Z"/><path d="M136.53,.56s.05-.02,.05-.05-.02-.05-.05-.05-.05,.02-.05,.05,.02,.05,.05,.05Z"/><path d="M146.73,.1s.05-.02,.05-.05-.02-.05-.05-.05-.05,.02-.05,.05,.02,.05,.05,.05Z"/><circle cx="156.96" cy=".12" r=".08"/><circle cx="167.12" cy=".73" r=".05"/><circle cx="177.1" cy="1.86" r=".05"/><path d="M186.8,3.52s.02-.01,.02-.03-.01-.03-.02-.03-.03,.01-.03,.03,.01,.03,.03,.03Z"/><circle cx="196.12" cy="5.62" r=".03"/><circle cx="91.1" cy="11.8" r=".03"/><circle cx="100.26" cy="9.14" r=".05"/><circle cx="109.95" cy="6.92" r=".08"/><circle cx="120.06" cy="5.18" r=".12"/><circle cx="130.5" cy="3.94" r=".15"/><circle cx="141.16" cy="3.22" r=".17"/><path d="M151.92,3.23c.11,0,.2-.09,.2-.2s-.09-.2-.2-.2-.2,.09-.2,.2,.09,.2,.2,.2Z"/><path d="M162.66,3.57c.11,0,.2-.09,.2-.2s-.09-.2-.2-.2-.2,.09-.2,.2,.09,.2,.2,.2Z"/><circle cx="173.27" cy="4.24" r=".2"/><circle cx="183.63" cy="5.62" r=".17"/><circle cx="193.63" cy="7.5" r=".15"/><circle cx="203.18" cy="9.84" r=".12"/><path d="M212.19,12.69s.08-.03,.08-.08-.03-.08-.08-.08-.08,.03-.08,.08,.03,.08,.08,.08Z"/><circle cx="220.57" cy="15.8" r=".05"/><circle cx="75.07" cy="20.5" r=".05"/><path d="M83.68,17.38c.06,0,.1-.04,.1-.1s-.04-.1-.1-.1-.1,.04-.1,.1,.04,.1,.1,.1Z"/><circle cx="92.96" cy="14.45" r=".15"/><circle cx="102.84" cy="12.03" r=".22"/><path d="M113.22,10.33c.15,0,.27-.12,.27-.27s-.12-.27-.27-.27-.27,.12-.27,.27,.12,.27,.27,.27Z"/><path d="M124.01,8.9c.18,0,.32-.14,.32-.32s-.15-.32-.32-.32-.32,.14-.32,.32,.14,.32,.32,.32Z"/><path d="M135.09,7.94c.19,0,.35-.16,.35-.35s-.16-.35-.35-.35-.35,.16-.35,.35,.16,.35,.35,.35Z"/><path d="M146.34,7.51c.21,0,.37-.17,.37-.37s-.17-.37-.37-.37-.37,.17-.37,.37,.17,.37,.37,.37Z"/><path d="M157.64,7.58c.21,0,.37-.17,.37-.37s-.17-.37-.37-.37-.37,.17-.37,.37,.17,.37,.37,.37Z"/><path d="M168.86,8.19c.21,0,.37-.17,.37-.37s-.17-.37-.37-.37-.37,.17-.37,.37,.17,.37,.37,.37Z"/><circle cx="179.87" cy="8.94" r=".35"/><circle cx="190.55" cy="10.56" r=".3"/><path d="M200.8,12.94c.15,0,.27-.12,.27-.27s-.12-.27-.27-.27-.27,.12-.27,.27,.12,.27,.27,.27Z"/><circle cx="210.52" cy="15.2" r=".2"/><path d="M219.62,18.29c.08,0,.15-.07,.15-.15s-.07-.15-.15-.15-.15,.07-.15,.15,.07,.15,.15,.15Z"/><circle cx="228.03" cy="21.46" r=".1"/><path d="M235.67,25.15s.05-.02,.05-.05-.02-.05-.05-.05-.05,.02-.05,.05,.02,.05,.05,.05Z"/><path d="M59.76,30.81s.03-.01,.03-.03-.01-.03-.03-.03-.02,.01-.02,.03,.01,.03,.02,.03Z"/><circle cx="67.53" cy="27.17" r=".08"/><path d="M76.11,24.01c.08,0,.15-.07,.15-.15s-.07-.15-.15-.15-.15,.07-.15,.15,.07,.15,.15,.15Z"/><circle cx="85.43" cy="20.89" r=".22"/><circle cx="95.42" cy="18.29" r=".32"/><path d="M106.01,16.51c.22,0,.4-.18,.4-.4s-.18-.4-.4-.4-.4,.18-.4,.4,.18,.4,.4,.4Z"/><path d="M117.08,14.87c.26,0,.47-.21,.47-.47s-.21-.47-.47-.47-.47,.21-.47,.47,.21,.47,.47,.47Z"/><path d="M128.54,13.68c.29,0,.52-.24,.52-.52s-.24-.52-.52-.52-.52,.24-.52,.52,.23,.52,.52,.52Z"/><path d="M140.24,13.01c.32,0,.57-.26,.57-.57s-.26-.57-.57-.57-.57,.26-.57,.57,.26,.57,.57,.57Z"/><path d="M152.07,12.84c.33,0,.6-.27,.6-.6s-.27-.6-.6-.6-.6,.27-.6,.6,.27,.6,.6,.6Z"/><path d="M163.87,13.19c.33,0,.6-.27,.6-.6s-.27-.6-.6-.6-.6,.27-.6,.6,.27,.6,.6,.6Z"/><path d="M175.52,14.05c.33,0,.6-.27,.6-.6s-.27-.6-.6-.6-.6,.27-.6,.6,.27,.6,.6,.6Z"/><path d="M186.88,15.4c.32,0,.57-.26,.57-.57s-.26-.57-.57-.57-.57,.26-.57,.57,.26,.57,.57,.57Z"/><path d="M197.83,17.2c.29,0,.52-.24,.52-.52s-.23-.52-.52-.52-.52,.24-.52,.52,.23,.52,.52,.52Z"/><path d="M208.26,19.42c.25,0,.45-.2,.45-.45s-.2-.45-.45-.45-.45,.2-.45,.45,.2,.45,.45,.45Z"/><path d="M218.07,22.05c.21,0,.37-.17,.37-.37s-.17-.37-.37-.37-.37,.17-.37,.37,.17,.37,.37,.37Z"/><circle cx="227.19" cy="24.75" r=".3"/><path d="M235.55,28.38c.12,0,.22-.1,.22-.22s-.1-.22-.22-.22-.22,.1-.22,.22,.1,.22,.22,.22Z"/><circle cx="243.08" cy="31.84" r=".12"/><path d="M249.75,35.87s.08-.03,.08-.08-.03-.08-.08-.08-.08,.03-.08,.08,.03,.08,.08,.08Z"/><circle cx="255.51" cy="39.97" r=".03"/><path d="M45.69,42.34s.03-.01,.03-.03-.01-.03-.03-.03-.02,.01-.02,.03,.01,.03,.02,.03Z"/><circle cx="52.39" cy="38.47" r=".1"/><path d="M59.98,35.05c.11,0,.2-.09,.2-.2s-.09-.2-.2-.2-.2,.09-.2,.2,.09,.2,.2,.2Z"/><circle cx="68.45" cy="31.49" r=".3"/><path d="M77.73,28.82c.22,0,.4-.18,.4-.4s-.18-.4-.4-.4-.4,.18-.4,.4,.18,.4,.4,.4Z"/><circle cx="87.77" cy="25.68" r=".5"/><circle cx="98.48" cy="23.33" r=".6"/><path d="M109.77,22.09c.39,0,.7-.31,.7-.7s-.31-.7-.7-.7-.7,.31-.7,.7,.31,.7,.7,.7Z"/><path d="M121.54,20.7c.43,0,.77-.35,.77-.77s-.35-.77-.77-.77-.77,.35-.77,.77,.35,.77,.77,.77Z"/><path d="M133.65,19.77c.46,0,.82-.37,.82-.82s-.37-.82-.82-.82-.82,.37-.82,.82,.37,.82,.82,.82Z"/><path d="M145.96,19.36c.48,0,.87-.39,.87-.87s-.39-.87-.87-.87-.87,.39-.87,.87,.39,.87,.87,.87Z"/><path d="M158.32,19.43c.48,0,.87-.39,.87-.87s-.39-.87-.87-.87-.87,.39-.87,.87,.39,.87,.87,.87Z"/><path d="M170.59,20.01c.47,0,.85-.38,.85-.85s-.38-.85-.85-.85-.85,.38-.85,.85,.38,.85,.85,.85Z"/><path d="M182.61,21.11c.46,0,.82-.37,.82-.82s-.37-.82-.82-.82-.82,.37-.82,.82,.37,.82,.82,.82Z"/><path d="M194.26,22.64c.41,0,.75-.34,.75-.75s-.34-.75-.75-.75-.75,.34-.75,.75,.34,.75,.75,.75Z"/><circle cx="205.4" cy="23.95" r=".67"/><path d="M215.93,27.01c.33,0,.6-.27,.6-.6s-.27-.6-.6-.6-.6,.27-.6,.6,.27,.6,.6,.6Z"/><circle cx="225.76" cy="29.24" r=".47"/><path d="M234.82,32.77c.21,0,.37-.17,.37-.37s-.17-.38-.37-.38-.37,.17-.37,.38,.17,.37,.37,.37Z"/><circle cx="243.05" cy="35.84" r=".27"/><path d="M250.4,39.7c.1,0,.17-.08,.17-.17s-.08-.18-.17-.18-.17,.08-.17,.18,.08,.17,.17,.17Z"/><circle cx="256.84" cy="43.42" r=".08"/><path d="M262.32,47.54s.02-.01,.02-.03-.01-.03-.02-.03-.02,.01-.02,.03,.01,.03,.02,.03Z"/><circle cx="38.76" cy="50.77" r=".03"/><circle cx="45.17" cy="47.03" r=".1"/><circle cx="52.53" cy="43.46" r=".2"/><path d="M60.81,40.43c.18,0,.32-.14,.32-.32s-.14-.32-.32-.32-.32,.14-.32,.32,.15,.32,.32,.32Z"/><circle cx="69.97" cy="37" r=".45"/><circle cx="79.96" cy="34.17" r=".6"/><path d="M90.71,32.4c.4,0,.72-.32,.72-.72s-.32-.72-.72-.72-.72,.32-.72,.72,.32,.72,.72,.72Z"/><path d="M102.14,30.41c.47,0,.85-.38,.85-.85s-.38-.85-.85-.85-.85,.38-.85,.85,.38,.85,.85,.85Z"/><path d="M114.14,28.84c.54,0,.97-.44,.97-.97s-.44-.97-.97-.97-.97,.44-.97,.97,.44,.97,.97,.97Z"/><path d="M126.58,27.7c.58,0,1.05-.47,1.05-1.05s-.47-1.05-1.05-1.05-1.05,.47-1.05,1.05,.47,1.05,1.05,1.05Z"/><path d="M139.33,27.05c.62,0,1.12-.5,1.12-1.12s-.5-1.12-1.12-1.12-1.12,.5-1.12,1.12,.5,1.12,1.12,1.12Z"/><path d="M152.22,26.91c.65,0,1.17-.53,1.17-1.17s-.53-1.17-1.17-1.17-1.17,.53-1.17,1.17,.53,1.17,1.17,1.17Z"/><path d="M165.08,27.25c.65,0,1.17-.53,1.17-1.17s-.53-1.17-1.17-1.17-1.17,.53-1.17,1.17,.53,1.17,1.17,1.17Z"/><path d="M177.76,28.09c.63,0,1.15-.51,1.15-1.15s-.51-1.15-1.15-1.15-1.15,.51-1.15,1.15,.51,1.15,1.15,1.15Z"/><path d="M190.09,29.42c.62,0,1.12-.5,1.12-1.12s-.5-1.12-1.12-1.12-1.12,.5-1.12,1.12,.5,1.12,1.12,1.12Z"/><path d="M201.94,31.16c.58,0,1.05-.47,1.05-1.05s-.47-1.05-1.05-1.05-1.05,.47-1.05,1.05,.47,1.05,1.05,1.05Z"/><path d="M213.19,33.29c.52,0,.95-.42,.95-.95s-.42-.95-.95-.95-.95,.42-.95,.95,.42,.95,.95,.95Z"/><path d="M223.74,35.75c.46,0,.82-.37,.82-.82s-.37-.82-.82-.82-.82,.37-.82,.82,.37,.82,.82,.82Z"/><path d="M233.5,38.54c.39,0,.7-.31,.7-.7s-.31-.7-.7-.7-.7,.31-.7,.7,.31,.7,.7,.7Z"/><path d="M242.42,41.59c.32,0,.57-.26,.57-.57s-.26-.57-.57-.57-.57,.26-.57,.57,.26,.57,.57,.57Z"/><path d="M250.45,44.86c.23,0,.42-.19,.42-.42s-.19-.42-.42-.42-.42,.19-.42,.42,.19,.42,.42,.42Z"/><path d="M257.55,48.36c.17,0,.3-.13,.3-.3s-.13-.3-.3-.3-.3,.13-.3,.3,.13,.3,.3,.3Z"/><circle cx="263.68" cy="51.85" r=".17"/><circle cx="268.84" cy="55.79" r=".08"/><path d="M272.99,59.88s.02-.01,.02-.03-.01-.03-.02-.03-.02,.01-.02,.03,.01,.03,.02,.03Z"/><path d="M27.1,63.67s.02-.01,.02-.03-.01-.03-.02-.03-.03,.01-.03,.03,.01,.03,.03,.03Z"/><path d="M32.15,60.05c.05,0,.1-.05,.1-.1s-.04-.1-.1-.1-.1,.05-.1,.1,.04,.1,.1,.1Z"/><path d="M38.21,56.56c.11,0,.2-.09,.2-.2s-.09-.2-.2-.2-.2,.09-.2,.2,.09,.2,.2,.2Z"/><path d="M45.26,53.27c.19,0,.35-.16,.35-.35s-.16-.35-.35-.35-.35,.16-.35,.35,.16,.35,.35,.35Z"/><circle cx="53.28" cy="49.64" r=".47"/><path d="M62.24,47.2c.36,0,.65-.29,.65-.65s-.29-.65-.65-.65-.65,.29-.65,.65,.29,.65,.65,.65Z"/><path d="M72.09,44.49c.44,0,.8-.36,.8-.8s-.36-.8-.8-.8-.8,.36-.8,.8,.36,.8,.8,.8Z"/><path d="M82.78,42.09c.54,0,.97-.44,.97-.97s-.44-.97-.97-.97-.97,.44-.97,.97,.44,.97,.97,.97Z"/><path d="M94.25,39.99c.62,0,1.12-.5,1.12-1.12s-.5-1.12-1.12-1.12-1.12,.5-1.12,1.12,.5,1.12,1.12,1.12Z"/><path d="M106.39,38.24c.69,0,1.25-.56,1.25-1.25s-.56-1.25-1.25-1.25-1.25,.56-1.25,1.25,.56,1.25,1.25,1.25Z"/><path d="M119.09,36.91c.76,0,1.37-.62,1.37-1.37s-.62-1.37-1.37-1.37-1.37,.62-1.37,1.37,.62,1.37,1.37,1.37Z"/><circle cx="132.21" cy="34.57" r="1.45"/><path d="M145.57,35.61c.83,0,1.5-.67,1.5-1.5s-.67-1.5-1.5-1.5-1.5,.67-1.5,1.5,.67,1.5,1.5,1.5Z"/><path d="M159,35.71c.84,0,1.52-.68,1.52-1.52s-.68-1.52-1.52-1.52-1.52,.68-1.52,1.52,.68,1.52,1.52,1.52Z"/><path d="M172.31,36.29c.83,0,1.5-.67,1.5-1.5s-.67-1.5-1.5-1.5-1.5,.67-1.5,1.5,.67,1.5,1.5,1.5Z"/><path d="M185.33,37.32c.79,0,1.42-.64,1.42-1.42s-.64-1.42-1.42-1.42-1.42,.64-1.42,1.42,.64,1.42,1.42,1.42Z"/><path d="M197.89,38.82c.74,0,1.35-.6,1.35-1.35s-.6-1.35-1.35-1.35-1.35,.6-1.35,1.35,.6,1.35,1.35,1.35Z"/><path d="M209.85,40.68c.68,0,1.22-.55,1.22-1.22s-.55-1.22-1.22-1.22-1.22,.55-1.22,1.22,.55,1.22,1.22,1.22Z"/><path d="M221.11,42.9c.61,0,1.1-.49,1.1-1.1s-.49-1.1-1.1-1.1-1.1,.49-1.1,1.1,.49,1.1,1.1,1.1Z"/><circle cx="231.58" cy="44.47" r=".92"/><path d="M241.19,48.16c.43,0,.77-.35,.77-.77s-.35-.77-.77-.77-.77,.35-.77,.77,.35,.77,.77,.77Z"/><path d="M249.88,51.13c.33,0,.6-.27,.6-.6s-.27-.6-.6-.6-.6,.27-.6,.6,.27,.6,.6,.6Z"/><path d="M257.64,54.31c.25,0,.45-.2,.45-.45s-.2-.45-.45-.45-.45,.2-.45,.45,.2,.45,.45,.45Z"/><circle cx="264.41" cy="57.35" r=".3"/><circle cx="270.19" cy="60.97" r=".17"/><path d="M274.96,64.77s.08-.03,.08-.08-.03-.08-.08-.08-.08,.03-.08,.08,.03,.08,.08,.08Z"/><circle cx="25.94" cy="69.72" r=".08"/><circle cx="31.6" cy="66.37" r=".17"/><circle cx="38.29" cy="63.12" r=".32"/><path d="M45.97,60.46c.26,0,.47-.21,.47-.47s-.21-.47-.47-.47-.47,.21-.47,.47,.21,.47,.47,.47Z"/><path d="M54.64,57.64c.36,0,.65-.29,.65-.65s-.29-.65-.65-.65-.65,.29-.65,.65,.29,.65,.65,.65Z"/><path d="M64.27,55.03c.47,0,.85-.38,.85-.85s-.38-.85-.85-.85-.85,.38-.85,.85,.38,.85,.85,.85Z"/><path d="M74.81,52.64c.58,0,1.05-.47,1.05-1.05s-.47-1.05-1.05-1.05-1.05,.47-1.05,1.05,.47,1.05,1.05,1.05Z"/><path d="M86.2,50.48c.68,0,1.22-.55,1.22-1.22s-.55-1.22-1.22-1.22-1.22,.55-1.22,1.22,.55,1.22,1.22,1.22Z"/><path d="M98.38,48.64c.77,0,1.4-.63,1.4-1.4s-.63-1.4-1.4-1.4-1.4,.62-1.4,1.4,.63,1.4,1.4,1.4Z"/><path d="M111.24,47.18c.87,0,1.57-.7,1.57-1.57s-.7-1.57-1.57-1.57-1.57,.7-1.57,1.57,.7,1.57,1.57,1.57Z"/><path d="M124.64,46.1c.94,0,1.7-.76,1.7-1.7s-.76-1.7-1.7-1.7-1.7,.76-1.7,1.7,.76,1.7,1.7,1.7Z"/><path d="M138.41,45.49c.99,0,1.8-.8,1.8-1.8s-.8-1.8-1.8-1.8-1.8,.8-1.8,1.8,.8,1.8,1.8,1.8Z"/><circle cx="152.36" cy="43.5" r="1.87"/><path d="M166.29,45.71c1.03,0,1.87-.84,1.87-1.87s-.84-1.87-1.87-1.87-1.87,.84-1.87,1.87,.84,1.87,1.87,1.87Z"/><circle cx="179.97" cy="44.7" r="1.85"/><path d="M193.24,47.79c.98,0,1.77-.79,1.77-1.77s-.79-1.77-1.77-1.77-1.77,.79-1.77,1.77,.79,1.77,1.77,1.77Z"/><path d="M205.92,49.44c.92,0,1.67-.75,1.67-1.67s-.75-1.67-1.67-1.67-1.67,.75-1.67,1.67,.75,1.67,1.67,1.67Z"/><path d="M217.89,51.43c.85,0,1.55-.69,1.55-1.55s-.69-1.55-1.55-1.55-1.55,.69-1.55,1.55,.69,1.55,1.55,1.55Z"/><path d="M229.05,53.66c.76,0,1.37-.62,1.37-1.37s-.62-1.37-1.37-1.37-1.37,.62-1.37,1.37,.62,1.37,1.37,1.37Z"/><path d="M239.34,56.15c.66,0,1.2-.54,1.2-1.2s-.54-1.2-1.2-1.2-1.2,.54-1.2,1.2,.54,1.2,1.2,1.2Z"/><path d="M248.7,58.81c.55,0,1-.45,1-1s-.45-1-1-1-1,.45-1,1,.45,1,1,1Z"/><circle cx="257.1" cy="60.84" r=".8"/><path d="M264.51,64.64c.34,0,.62-.28,.62-.62s-.28-.62-.62-.62-.62,.28-.62,.62,.28,.62,.62,.62Z"/><circle cx="270.91" cy="67.3" r=".45"/><circle cx="276.28" cy="70.67" r=".27"/><circle cx="280.62" cy="74.13" r=".15"/><circle cx="283.92" cy="77.65" r=".05"/><path d="M16.06,83.11s.02-.01,.02-.03-.01-.03-.02-.03-.03,.01-.03,.03,.01,.03,.03,.03Z"/><circle cx="20.23" cy="79.97" r=".12"/><circle cx="25.45" cy="76.92" r=".27"/><circle cx="31.71" cy="73.93" r=".45"/><path d="M39,71.64c.34,0,.62-.28,.62-.62s-.28-.62-.62-.62-.62,.28-.62,.62,.28,.62,.62,.62Z"/><path d="M47.31,69.06c.47,0,.85-.38,.85-.85s-.38-.85-.85-.85-.85,.38-.85,.85,.38,.85,.85,.85Z"/><path d="M56.62,66.58c.58,0,1.05-.47,1.05-1.05s-.47-1.05-1.05-1.05-1.05,.47-1.05,1.05,.47,1.05,1.05,1.05Z"/><path d="M66.91,64.27c.7,0,1.27-.57,1.27-1.27s-.57-1.27-1.27-1.27-1.27,.57-1.27,1.27,.57,1.27,1.27,1.27Z"/><path d="M78.13,62.17c.83,0,1.5-.67,1.5-1.5s-.67-1.5-1.5-1.5-1.5,.67-1.5,1.5,.67,1.5,1.5,1.5Z"/><circle cx="90.22" cy="58.59" r="1.72"/><circle cx="103.12" cy="56.82" r="1.9"/><circle cx="116.69" cy="55.42" r="2.07"/><circle cx="130.78" cy="54.47" r="2.2"/><path d="M145.19,56.29c1.25,0,2.27-1.02,2.27-2.27s-1.02-2.27-2.27-2.27-2.27,1.02-2.27,2.27,1.02,2.27,2.27,2.27Z"/><path d="M159.68,56.36c1.25,0,2.27-1.02,2.27-2.27s-1.02-2.27-2.27-2.27-2.27,1.02-2.27,2.27,1.02,2.27,2.27,2.27Z"/><path d="M174.03,56.93c1.24,0,2.25-1.01,2.25-2.25s-1.01-2.25-2.25-2.25-2.25,1.01-2.25,2.25,1.01,2.25,2.25,2.25Z"/><path d="M187.99,57.94c1.2,0,2.17-.97,2.17-2.17s-.97-2.17-2.17-2.17-2.17,.97-2.17,2.17,.97,2.17,2.17,2.17Z"/><path d="M201.38,59.3c1.12,0,2.02-.9,2.02-2.02s-.91-2.02-2.02-2.02-2.02,.91-2.02,2.02,.91,2.02,2.02,2.02Z"/><path d="M214.06,61.02c1.03,0,1.87-.84,1.87-1.87s-.84-1.87-1.87-1.87-1.87,.84-1.87,1.87,.84,1.87,1.87,1.87Z"/><circle cx="225.92" cy="61.3" r="1.67"/><path d="M236.89,65.14c.8,0,1.45-.65,1.45-1.45s-.65-1.45-1.45-1.45-1.45,.65-1.45,1.45,.65,1.45,1.45,1.45Z"/><path d="M246.9,67.48c.67,0,1.22-.55,1.22-1.22s-.55-1.22-1.22-1.22-1.22,.55-1.22,1.22,.55,1.22,1.22,1.22Z"/><path d="M255.94,69.98c.55,0,1-.45,1-1s-.45-1-1-1-1,.45-1,1,.45,1,1,1Z"/><path d="M263.96,72.62c.44,0,.8-.36,.8-.8s-.36-.8-.8-.8-.8,.36-.8,.8,.36,.8,.8,.8Z"/><circle cx="270.97" cy="74.75" r=".57"/><path d="M276.94,78.16c.22,0,.4-.18,.4-.4s-.18-.4-.4-.4-.4,.18-.4,.4,.18,.4,.4,.4Z"/><path d="M281.86,81.09c.14,0,.25-.11,.25-.25s-.11-.25-.25-.25-.25,.11-.25,.25,.11,.25,.25,.25Z"/><path d="M285.74,84.06c.06,0,.1-.04,.1-.1s-.04-.1-.1-.1-.1,.04-.1,.1,.05,.1,.1,.1Z"/><path d="M288.57,87.16s.02-.01,.02-.03-.01-.03-.02-.03-.02,.01-.02,.03,.01,.03,.02,.03Z"/><path d="M15.1,90.64s.08-.04,.08-.08-.03-.07-.08-.07-.08,.03-.08,.07,.03,.08,.08,.08Z"/><path d="M19.84,88.06c.11,0,.2-.09,.2-.2s-.09-.2-.2-.2-.2,.09-.2,.2,.09,.2,.2,.2Z"/><path d="M25.64,85.58c.21,0,.37-.17,.37-.38s-.17-.37-.37-.37-.37,.17-.37,.37,.17,.38,.37,.38Z"/><circle cx="32.48" cy="82.6" r=".57"/><path d="M40.37,80.83c.43,0,.77-.35,.77-.77s-.35-.77-.77-.77-.77,.35-.77,.77,.35,.77,.77,.77Z"/><path d="M49.29,78.62c.57,0,1.02-.46,1.02-1.02s-.46-1.02-1.02-1.02-1.02,.46-1.02,1.02,.46,1.02,1.02,1.02Z"/><path d="M59.23,76.5c.7,0,1.27-.57,1.27-1.27s-.57-1.27-1.27-1.27-1.27,.57-1.27,1.27,.57,1.27,1.27,1.27Z"/><path d="M70.16,74.52c.84,0,1.52-.68,1.52-1.52s-.68-1.52-1.52-1.52-1.52,.68-1.52,1.52,.68,1.52,1.52,1.52Z"/><path d="M82.05,72.72c.98,0,1.77-.79,1.77-1.77s-.79-1.77-1.77-1.77-1.77,.79-1.77,1.77,.79,1.77,1.77,1.77Z"/><circle cx="94.84" cy="69.12" r="2.02"/><path d="M108.45,69.84c1.24,0,2.25-1.01,2.25-2.25s-1.01-2.25-2.25-2.25-2.25,1.01-2.25,2.25,1.01,2.25,2.25,2.25Z"/><path d="M122.73,68.88c1.35,0,2.45-1.1,2.45-2.45s-1.1-2.45-2.45-2.45-2.45,1.09-2.45,2.45,1.09,2.45,2.45,2.45Z"/><circle cx="137.5" cy="65.73" r="2.6"/><path d="M152.51,68.21c1.47,0,2.67-1.2,2.67-2.67s-1.2-2.67-2.67-2.67-2.67,1.2-2.67,2.67,1.2,2.67,2.67,2.67Z"/><circle cx="167.49" cy="65.88" r="2.72"/><circle cx="182.14" cy="66.71" r="2.67"/><circle cx="196.26" cy="67.98" r="2.57"/><circle cx="209.64" cy="69.6" r="2.4"/><circle cx="222.19" cy="71.5" r="2.2"/><circle cx="233.82" cy="73.61" r="1.97"/><path d="M244.48,77.6c.95,0,1.72-.77,1.72-1.72s-.77-1.72-1.72-1.72-1.72,.77-1.72,1.72,.77,1.72,1.72,1.72Z"/><path d="M254.13,79.74c.81,0,1.47-.66,1.47-1.47s-.66-1.47-1.47-1.47-1.47,.66-1.47,1.47,.66,1.47,1.47,1.47Z"/><path d="M262.77,81.98c.67,0,1.22-.55,1.22-1.22s-.55-1.22-1.22-1.22-1.22,.55-1.22,1.22,.55,1.22,1.22,1.22Z"/><path d="M270.36,84.3c.54,0,.97-.44,.97-.97s-.44-.97-.97-.97-.97,.44-.97,.97,.44,.97,.97,.97Z"/><path d="M276.92,86.67c.4,0,.72-.32,.72-.72s-.32-.72-.72-.72-.72,.32-.72,.72,.32,.72,.72,.72Z"/><path d="M282.42,89.14c.29,0,.52-.24,.52-.52s-.23-.52-.52-.52-.52,.24-.52,.52,.23,.52,.52,.52Z"/><path d="M286.86,91.65c.18,0,.32-.14,.32-.32s-.15-.32-.32-.32-.32,.14-.32,.32,.15,.32,.32,.32Z"/><path d="M290.25,94.24c.1,0,.17-.08,.17-.17s-.08-.17-.17-.17-.17,.08-.17,.17,.08,.17,.17,.17Z"/><circle cx="292.58" cy="96.83" r=".05"/><path d="M7.44,103.67s.02-.01,.02-.03-.01-.03-.02-.03-.02,.01-.02,.03,.01,.03,.02,.03Z"/><circle cx="10.61" cy="101.35" r=".12"/><circle cx="14.85" cy="99.06" r=".27"/><path d="M20.15,97.27c.26,0,.47-.21,.47-.47s-.21-.47-.47-.47-.47,.21-.47,.47,.21,.47,.47,.47Z"/><path d="M26.51,95.24c.37,0,.67-.3,.67-.67s-.3-.67-.67-.67-.67,.3-.67,.67,.3,.67,.67,.67Z"/><path d="M33.93,93.29c.51,0,.92-.41,.92-.92s-.41-.92-.92-.92-.92,.41-.92,.92,.41,.92,.92,.92Z"/><path d="M42.4,91.41c.66,0,1.2-.54,1.2-1.2s-.54-1.2-1.2-1.2-1.2,.54-1.2,1.2,.54,1.2,1.2,1.2Z"/><path d="M51.92,89.58c.81,0,1.47-.66,1.47-1.47s-.66-1.47-1.47-1.47-1.47,.66-1.47,1.47,.66,1.47,1.47,1.47Z"/><path d="M62.47,87.86c.98,0,1.77-.79,1.77-1.77s-.79-1.77-1.77-1.77-1.77,.79-1.77,1.77,.79,1.77,1.77,1.77Z"/><path d="M74.03,86.22c1.13,0,2.05-.92,2.05-2.05s-.92-2.05-2.05-2.05-2.05,.92-2.05,2.05,.92,2.05,2.05,2.05Z"/><circle cx="86.58" cy="82.41" r="2.35"/><circle cx="100.06" cy="80.84" r="2.6"/><circle cx="114.37" cy="79.55" r="2.84"/><path d="M129.37,81.66c1.67,0,3.02-1.35,3.02-3.02s-1.35-3.02-3.02-3.02-3.02,1.35-3.02,3.02,1.35,3.02,3.02,3.02Z"/><path d="M144.8,81.31c1.72,0,3.12-1.4,3.12-3.12s-1.4-3.12-3.12-3.12-3.12,1.4-3.12,3.12,1.4,3.12,3.12,3.12Z"/><circle cx="160.36" cy="78.26" r="3.17"/><path d="M175.7,81.97c1.72,0,3.12-1.4,3.12-3.12s-1.4-3.12-3.12-3.12-3.12,1.4-3.12,3.12,1.4,3.12,3.12,3.12Z"/><circle cx="190.53" cy="79.88" r="2.97"/><path d="M204.62,84.05c1.54,0,2.8-1.25,2.8-2.79s-1.25-2.79-2.8-2.79-2.79,1.25-2.79,2.79,1.25,2.79,2.79,2.79Z"/><circle cx="217.85" cy="82.88" r="2.55"/><circle cx="230.13" cy="84.7" r="2.27"/><path d="M241.41,88.64c1.1,0,2-.89,2-2s-.89-2-2-2-2,.89-2,2,.89,2,2,2Z"/><path d="M251.67,90.39c.94,0,1.7-.76,1.7-1.7s-.76-1.7-1.7-1.7-1.7,.76-1.7,1.7,.76,1.7,1.7,1.7Z"/><path d="M260.9,92.2c.77,0,1.4-.63,1.4-1.4s-.63-1.4-1.4-1.4-1.4,.62-1.4,1.4,.63,1.4,1.4,1.4Z"/><path d="M269.08,94.1c.62,0,1.12-.5,1.12-1.12s-.5-1.12-1.12-1.12-1.12,.5-1.12,1.12,.5,1.12,1.12,1.12Z"/><path d="M276.2,96.06c.48,0,.87-.39,.87-.87s-.39-.87-.87-.87-.87,.39-.87,.87,.39,.87,.87,.87Z"/><circle cx="282.27" cy="97.43" r=".62"/><path d="M287.27,100.12c.23,0,.42-.19,.42-.42s-.19-.42-.42-.42-.42,.19-.42,.42,.19,.42,.42,.42Z"/><circle cx="291.21" cy="101.99" r=".25"/><path d="M294.09,104.39c.06,0,.1-.05,.1-.1s-.04-.1-.1-.1-.1,.05-.1,.1,.05,.1,.1,.1Z"/><circle cx="295.9" cy="106.61" r=".03"/><circle cx="6.82" cy="112.18" r=".05"/><circle cx="10.54" cy="110.35" r=".17"/><circle cx="15.33" cy="108.54" r=".35"/><path d="M21.18,107.28c.3,0,.55-.25,.55-.55s-.25-.55-.55-.55-.55,.25-.55,.55,.25,.55,.55,.55Z"/><path d="M28.1,105.75c.44,0,.8-.36,.8-.8s-.36-.8-.8-.8-.8,.36-.8,.8,.36,.8,.8,.8Z"/><path d="M36.07,104.25c.59,0,1.07-.48,1.07-1.07s-.48-1.07-1.07-1.07-1.07,.48-1.07,1.07,.48,1.07,1.07,1.07Z"/><path d="M45.11,102.79c.74,0,1.35-.6,1.35-1.35s-.6-1.35-1.35-1.35-1.35,.6-1.35,1.35,.6,1.35,1.35,1.35Z"/><circle cx="55.21" cy="99.74" r="1.67"/><path d="M66.35,100.09c1.1,0,2-.89,2-2s-.89-2-2-2-2,.89-2,2,.89,2,2,2Z"/><path d="M78.53,98.84c1.28,0,2.32-1.04,2.32-2.32s-1.04-2.32-2.32-2.32-2.32,1.04-2.32,2.32,1.04,2.32,2.32,2.32Z"/><path d="M91.72,97.7c1.46,0,2.65-1.18,2.65-2.65s-1.18-2.65-2.65-2.65-2.65,1.18-2.65,2.65,1.18,2.65,2.65,2.65Z"/><circle cx="105.87" cy="93.76" r="2.95"/><path d="M120.9,95.93c1.78,0,3.22-1.44,3.22-3.22s-1.44-3.22-3.22-3.22-3.22,1.44-3.22,3.22,1.44,3.22,3.22,3.22Z"/><path d="M136.6,95.48c1.9,0,3.44-1.54,3.44-3.44s-1.54-3.44-3.44-3.44-3.44,1.54-3.44,3.44,1.54,3.44,3.44,3.44Z"/><path d="M152.66,95.44c1.98,0,3.59-1.61,3.59-3.59s-1.61-3.59-3.59-3.59-3.59,1.61-3.59,3.59,1.61,3.59,3.59,3.59Z"/><path d="M168.67,95.83c2.01,0,3.64-1.63,3.64-3.64s-1.63-3.64-3.64-3.64-3.64,1.63-3.64,3.64,1.63,3.64,3.64,3.64Z"/><path d="M184.2,96.54c1.97,0,3.57-1.6,3.57-3.57s-1.6-3.57-3.57-3.57-3.57,1.6-3.57,3.57,1.6,3.57,3.57,3.57Z"/><path d="M199,97.52c1.89,0,3.42-1.53,3.42-3.42s-1.53-3.42-3.42-3.42-3.42,1.53-3.42,3.42,1.53,3.42,3.42,3.42Z"/><circle cx="212.89" cy="95.45" r="3.17"/><path d="M225.8,99.84c1.6,0,2.89-1.3,2.89-2.89s-1.3-2.89-2.89-2.89-2.9,1.3-2.9,2.89,1.3,2.89,2.9,2.89Z"/><circle cx="237.69" cy="98.55" r="2.57"/><circle cx="248.55" cy="100.21" r="2.25"/><path d="M258.35,103.85c1.06,0,1.92-.86,1.92-1.92s-.86-1.92-1.92-1.92-1.92,.86-1.92,1.92,.86,1.92,1.92,1.92Z"/><path d="M267.09,105.27c.88,0,1.6-.71,1.6-1.6s-.72-1.6-1.6-1.6-1.6,.72-1.6,1.6,.72,1.6,1.6,1.6Z"/><path d="M274.77,106.74c.72,0,1.3-.58,1.3-1.3s-.58-1.3-1.3-1.3-1.3,.58-1.3,1.3,.58,1.3,1.3,1.3Z"/><path d="M281.39,108.23c.55,0,1-.45,1-1s-.45-1-1-1-1,.45-1,1,.45,1,1,1Z"/><path d="M286.94,109.79c.41,0,.75-.34,.75-.75s-.33-.75-.75-.75-.75,.34-.75,.75,.34,.75,.75,.75Z"/><circle cx="291.43" cy="110.86" r=".5"/><circle cx="294.85" cy="112.69" r=".3"/><path d="M297.21,114.67c.08,0,.15-.07,.15-.15s-.07-.15-.15-.15-.15,.07-.15,.15,.07,.15,.15,.15Z"/><circle cx="298.5" cy="116.37" r=".05"/><path d="M3.78,122.99s.08-.03,.08-.07-.03-.08-.08-.08-.08,.04-.08,.08,.03,.07,.08,.07Z"/><circle cx="6.97" cy="121.58" r=".22"/><circle cx="11.23" cy="120.25" r=".4"/><path d="M16.56,119.55c.34,0,.62-.28,.62-.62s-.28-.62-.62-.62-.62,.28-.62,.62,.28,.62,.62,.62Z"/><path d="M22.95,118.51c.5,0,.9-.4,.9-.9s-.4-.9-.9-.9-.9,.4-.9,.9,.4,.9,.9,.9Z"/><path d="M30.41,117.47c.65,0,1.17-.53,1.17-1.17s-.53-1.17-1.17-1.17-1.17,.53-1.17,1.17,.53,1.17,1.17,1.17Z"/><path d="M38.94,116.5c.83,0,1.5-.67,1.5-1.5s-.67-1.5-1.5-1.5-1.5,.67-1.5,1.5,.67,1.5,1.5,1.5Z"/><path d="M48.53,115.53c1.01,0,1.82-.82,1.82-1.82s-.82-1.82-1.82-1.82-1.82,.82-1.82,1.82,.82,1.82,1.82,1.82Z"/><path d="M59.19,114.64c1.21,0,2.2-.98,2.2-2.2s-.98-2.2-2.2-2.2-2.2,.98-2.2,2.2,.98,2.2,2.2,2.2Z"/><circle cx="70.9" cy="111.2" r="2.55"/><path d="M83.67,112.92c1.61,0,2.92-1.31,2.92-2.92s-1.31-2.92-2.92-2.92-2.92,1.31-2.92,2.92,1.31,2.92,2.92,2.92Z"/><path d="M97.48,112.16c1.82,0,3.29-1.47,3.29-3.29s-1.48-3.29-3.29-3.29-3.29,1.47-3.29,3.29,1.47,3.29,3.29,3.29Z"/><path d="M112.29,111.48c2,0,3.62-1.62,3.62-3.62s-1.62-3.62-3.62-3.62-3.62,1.62-3.62,3.62,1.62,3.62,3.62,3.62Z"/><path d="M128.02,110.98c2.16,0,3.92-1.75,3.92-3.92s-1.75-3.92-3.92-3.92-3.92,1.75-3.92,3.92,1.75,3.92,3.92,3.92Z"/><path d="M144.42,110.73c2.26,0,4.09-1.83,4.09-4.09s-1.83-4.09-4.09-4.09-4.09,1.83-4.09,4.09,1.83,4.09,4.09,4.09Z"/><path d="M161.03,110.85c2.29,0,4.14-1.85,4.14-4.14s-1.85-4.14-4.14-4.14-4.14,1.85-4.14,4.14,1.85,4.14,4.14,4.14Z"/><path d="M177.28,111.33c2.25,0,4.07-1.82,4.07-4.07s-1.82-4.07-4.07-4.07-4.07,1.82-4.07,4.07,1.82,4.07,4.07,4.07Z"/><path d="M192.77,111.97c2.12,0,3.84-1.72,3.84-3.84s-1.72-3.84-3.84-3.84-3.84,1.72-3.84,3.84,1.72,3.84,3.84,3.84Z"/><path d="M207.3,112.72c1.96,0,3.54-1.59,3.54-3.54s-1.59-3.54-3.54-3.54-3.54,1.59-3.54,3.54,1.59,3.54,3.54,3.54Z"/><path d="M220.82,113.55c1.78,0,3.22-1.44,3.22-3.22s-1.44-3.22-3.22-3.22-3.22,1.44-3.22,3.22,1.44,3.22,3.22,3.22Z"/><path d="M233.3,114.39c1.57,0,2.84-1.27,2.84-2.84s-1.27-2.84-2.84-2.84-2.85,1.27-2.85,2.84,1.27,2.84,2.85,2.84Z"/><circle cx="244.72" cy="112.79" r="2.47"/><circle cx="255.08" cy="114.07" r="2.1"/><path d="M264.38,117.11c.96,0,1.75-.78,1.75-1.75s-.78-1.75-1.75-1.75-1.75,.78-1.75,1.75,.78,1.75,1.75,1.75Z"/><path d="M272.61,118.09c.79,0,1.42-.64,1.42-1.42s-.64-1.42-1.42-1.42-1.42,.64-1.42,1.42,.64,1.42,1.42,1.42Z"/><path d="M279.77,119.1c.62,0,1.12-.5,1.12-1.12s-.5-1.12-1.12-1.12-1.12,.5-1.12,1.12,.5,1.12,1.12,1.12Z"/><path d="M285.87,120.12c.46,0,.82-.37,.82-.82s-.37-.82-.82-.82-.82,.37-.82,.82,.37,.82,.82,.82Z"/><path d="M290.9,121.2c.32,0,.57-.26,.57-.57s-.26-.57-.57-.57-.57,.26-.57,.57,.26,.57,.57,.57Z"/><circle cx="294.86" cy="121.96" r=".37"/><circle cx="297.75" cy="123.29" r=".2"/><circle cx="299.58" cy="124.62" r=".05"/><circle cx="1.51" cy="133.42" r=".03"/><circle cx="4.16" cy="132.6" r=".1"/><path d="M7.89,132.06c.15,0,.27-.12,.27-.27s-.12-.27-.27-.27-.27,.12-.27,.27,.12,.27,.27,.27Z"/><path d="M12.69,131.42c.25,0,.45-.2,.45-.45s-.2-.45-.45-.45-.45,.2-.45,.45,.2,.45,.45,.45Z"/><path d="M18.55,130.86c.39,0,.7-.31,.7-.7s-.31-.7-.7-.7-.7,.31-.7,.7,.31,.7,.7,.7Z"/><path d="M25.48,130.33c.54,0,.97-.44,.97-.97s-.44-.97-.97-.97-.97,.44-.97,.97,.44,.97,.97,.97Z"/><path d="M33.48,129.81c.7,0,1.27-.57,1.27-1.27s-.57-1.27-1.27-1.27-1.27,.57-1.27,1.27,.57,1.27,1.27,1.27Z"/><path d="M42.55,129.36c.9,0,1.62-.73,1.62-1.62s-.73-1.62-1.62-1.62-1.62,.73-1.62,1.62,.73,1.62,1.62,1.62Z"/><circle cx="52.69" cy="126.93" r="1.97"/><circle cx="63.89" cy="126.14" r="2.35"/><path d="M76.16,128.09c1.52,0,2.75-1.23,2.75-2.75s-1.23-2.75-2.75-2.75-2.75,1.23-2.75,2.75,1.23,2.75,2.75,2.75Z"/><path d="M89.49,127.75c1.75,0,3.17-1.42,3.17-3.17s-1.42-3.17-3.17-3.17-3.17,1.42-3.17,3.17,1.42,3.17,3.17,3.17Z"/><path d="M103.89,127.4c1.97,0,3.57-1.6,3.57-3.57s-1.6-3.57-3.57-3.57-3.57,1.6-3.57,3.57,1.6,3.57,3.57,3.57Z"/><circle cx="119.32" cy="123.15" r="3.99"/><path d="M135.73,126.95c2.4,0,4.34-1.94,4.34-4.34s-1.94-4.34-4.34-4.34-4.34,1.94-4.34,4.34,1.94,4.34,4.34,4.34Z"/><path d="M152.81,126.85c2.44,0,4.42-1.98,4.42-4.42s-1.98-4.42-4.42-4.42-4.42,1.98-4.42,4.42,1.98,4.42,4.42,4.42Z"/><path d="M169.76,127.15c2.44,0,4.42-1.98,4.42-4.42s-1.98-4.42-4.42-4.42-4.42,1.98-4.42,4.42,1.98,4.42,4.42,4.42Z"/><path d="M185.92,127.74c2.44,0,4.42-1.98,4.42-4.42s-1.98-4.42-4.42-4.42-4.42,1.98-4.42,4.42,1.98,4.42,4.42,4.42Z"/><circle cx="201.07" cy="124.03" r="4.27"/><path d="M215.16,128.68c2.15,0,3.89-1.74,3.89-3.89s-1.74-3.89-3.89-3.89-3.89,1.74-3.89,3.89,1.74,3.89,3.89,3.89Z"/><path d="M228.2,129.06c1.93,0,3.49-1.56,3.49-3.49s-1.56-3.49-3.49-3.49-3.49,1.56-3.49,3.49,1.56,3.49,3.49,3.49Z"/><path d="M240.17,129.43c1.7,0,3.07-1.38,3.07-3.07s-1.37-3.07-3.07-3.07-3.07,1.37-3.07,3.07,1.37,3.07,3.07,3.07Z"/><path d="M251.08,129.83c1.47,0,2.67-1.2,2.67-2.67s-1.2-2.67-2.67-2.67-2.67,1.2-2.67,2.67,1.2,2.67,2.67,2.67Z"/><path d="M260.92,130.23c1.25,0,2.27-1.02,2.27-2.27s-1.02-2.27-2.27-2.27-2.27,1.02-2.27,2.27,1.02,2.27,2.27,2.27Z"/><circle cx="269.69" cy="128.77" r="1.9"/><path d="M277.39,131.1c.84,0,1.52-.68,1.52-1.52s-.68-1.52-1.52-1.52-1.52,.68-1.52,1.52,.68,1.52,1.52,1.52Z"/><path d="M284.02,131.59c.66,0,1.2-.54,1.2-1.2s-.54-1.2-1.2-1.2-1.2,.54-1.2,1.2,.54,1.2,1.2,1.2Z"/><path d="M289.59,132.1c.5,0,.9-.4,.9-.9s-.4-.9-.9-.9-.9,.4-.9,.9,.4,.9,.9,.9Z"/><path d="M294.08,132.67c.36,0,.65-.29,.65-.65s-.29-.65-.65-.65-.65,.29-.65,.65,.29,.65,.65,.65Z"/><path d="M297.51,133.23c.22,0,.4-.18,.4-.4s-.18-.4-.4-.4-.4,.18-.4,.4,.18,.4,.4,.4Z"/><path d="M299.88,133.87c.12,0,.22-.1,.22-.22s-.1-.22-.22-.22-.22,.1-.22,.22,.1,.22,.22,.22Z"/><circle cx="301.17" cy="134.46" r=".08"/><circle cx=".02" cy="143.56" r=".03"/><circle cx="2.15" cy="143.28" r=".12"/><circle cx="5.34" cy="142.99" r=".3"/><path d="M9.61,143.21c.28,0,.5-.22,.5-.5s-.22-.5-.5-.5-.5,.22-.5,.5,.22,.5,.5,.5Z"/><path d="M14.94,143.17c.41,0,.75-.34,.75-.75s-.34-.75-.75-.75-.75,.34-.75,.75,.34,.75,.75,.75Z"/><path d="M21.33,143.16c.57,0,1.02-.46,1.02-1.02s-.46-1.02-1.02-1.02-1.02,.46-1.02,1.02,.46,1.02,1.02,1.02Z"/><path d="M28.8,143.2c.74,0,1.35-.6,1.35-1.35s-.6-1.35-1.35-1.35-1.35,.6-1.35,1.35,.6,1.35,1.35,1.35Z"/><circle cx="37.34" cy="141.56" r="1.7"/><circle cx="46.94" cy="141.28" r="2.07"/><circle cx="57.61" cy="140.99" r="2.47"/><path d="M69.35,143.6c1.6,0,2.9-1.3,2.9-2.89s-1.3-2.89-2.9-2.89-2.89,1.29-2.89,2.89,1.3,2.89,2.89,2.89Z"/><path d="M82.16,143.77c1.85,0,3.34-1.5,3.34-3.34s-1.5-3.34-3.34-3.34-3.34,1.5-3.34,3.34,1.5,3.34,3.34,3.34Z"/><path d="M96.03,143.93c2.09,0,3.79-1.7,3.79-3.79s-1.7-3.79-3.79-3.79-3.79,1.7-3.79,3.79,1.7,3.79,3.79,3.79Z"/><circle cx="110.98" cy="139.86" r="4.27"/><path d="M126.99,144c2.44,0,4.42-1.98,4.42-4.42s-1.98-4.42-4.42-4.42-4.42,1.98-4.42,4.42,1.98,4.42,4.42,4.42Z"/><path d="M144.05,143.77c2.44,0,4.42-1.98,4.42-4.42s-1.98-4.42-4.42-4.42-4.42,1.98-4.42,4.42,1.98,4.42,4.42,4.42Z"/><circle cx="161.64" cy="139.41" r="4.42"/><path d="M178.42,144.08c2.44,0,4.42-1.98,4.42-4.42s-1.98-4.42-4.42-4.42-4.42,1.98-4.42,4.42,1.98,4.42,4.42,4.42Z"/><path d="M194.13,144.36c2.44,0,4.42-1.98,4.42-4.42s-1.98-4.42-4.42-4.42-4.42,1.98-4.42,4.42,1.98,4.42,4.42,4.42Z"/><path d="M208.77,144.39c2.3,0,4.17-1.87,4.17-4.17s-1.87-4.17-4.17-4.17-4.17,1.87-4.17,4.17,1.87,4.17,4.17,4.17Z"/><path d="M222.35,144.2c2.04,0,3.69-1.65,3.69-3.69s-1.65-3.69-3.69-3.69-3.69,1.65-3.69,3.69,1.65,3.69,3.69,3.69Z"/><path d="M234.86,144.03c1.79,0,3.24-1.45,3.24-3.24s-1.45-3.24-3.24-3.24-3.25,1.45-3.25,3.24,1.45,3.24,3.25,3.24Z"/><path d="M246.3,143.87c1.54,0,2.79-1.25,2.79-2.79s-1.25-2.79-2.79-2.79-2.8,1.25-2.8,2.79,1.25,2.79,2.8,2.79Z"/><circle cx="256.68" cy="141.36" r="2.37"/><path d="M265.98,143.62c1.09,0,1.97-.88,1.97-1.97s-.88-1.97-1.97-1.97-1.97,.88-1.97,1.97,.88,1.97,1.97,1.97Z"/><path d="M274.22,143.55c.9,0,1.62-.73,1.62-1.62s-.73-1.62-1.62-1.62-1.62,.73-1.62,1.62,.73,1.62,1.62,1.62Z"/><path d="M281.39,143.49c.7,0,1.27-.57,1.27-1.27s-.57-1.27-1.27-1.27-1.27,.57-1.27,1.27,.57,1.27,1.27,1.27Z"/><path d="M287.49,143.45c.52,0,.95-.42,.95-.95s-.42-.95-.95-.95-.95,.42-.95,.95,.42,.95,.95,.95Z"/><path d="M292.52,143.46c.37,0,.67-.3,.67-.67s-.3-.67-.67-.67-.67,.3-.67,.67,.3,.67,.67,.67Z"/><path d="M296.48,143.52c.25,0,.45-.2,.45-.45s-.2-.45-.45-.45-.45,.2-.45,.45,.2,.45,.45,.45Z"/><path d="M299.38,143.61c.14,0,.25-.11,.25-.25s-.11-.25-.25-.25-.25,.11-.25,.25,.11,.25,.25,.25Z"/><circle cx="301.21" cy="143.64" r=".1"/><path d="M.94,153.5s.03-.01,.03-.03-.01-.03-.03-.03-.02,.01-.02,.03,.01,.03,.02,.03Z"/><circle cx="3.59" cy="153.73" r=".12"/><circle cx="7.32" cy="153.97" r=".3"/><circle cx="12.12" cy="154.22" r=".52"/><path d="M17.98,155.24c.43,0,.77-.35,.77-.77s-.35-.77-.77-.77-.77,.35-.77,.77,.35,.77,.77,.77Z"/><path d="M24.92,155.77c.58,0,1.05-.47,1.05-1.05s-.47-1.05-1.05-1.05-1.05,.47-1.05,1.05,.47,1.05,1.05,1.05Z"/><path d="M32.92,156.34c.76,0,1.37-.62,1.37-1.37s-.62-1.37-1.37-1.37-1.37,.62-1.37,1.37,.62,1.37,1.37,1.37Z"/><path d="M41.99,156.94c.95,0,1.72-.77,1.72-1.72s-.77-1.72-1.72-1.72-1.72,.77-1.72,1.72,.77,1.72,1.72,1.72Z"/><path d="M52.12,157.58c1.17,0,2.12-.95,2.12-2.12s-.95-2.12-2.12-2.12-2.12,.95-2.12,2.12,.95,2.12,2.12,2.12Z"/><circle cx="63.33" cy="155.71" r="2.52"/><path d="M75.6,158.93c1.64,0,2.97-1.33,2.97-2.97s-1.33-2.97-2.97-2.97-2.97,1.33-2.97,2.97,1.33,2.97,2.97,2.97Z"/><path d="M88.94,159.65c1.9,0,3.44-1.54,3.44-3.44s-1.54-3.44-3.44-3.44-3.44,1.54-3.44,3.44,1.54,3.44,3.44,3.44Z"/><path d="M103.35,160.37c2.16,0,3.92-1.75,3.92-3.92s-1.75-3.92-3.92-3.92-3.92,1.75-3.92,3.92,1.75,3.92,3.92,3.92Z"/><circle cx="118.83" cy="156.69" r="4.42"/><path d="M135.38,161.34c2.44,0,4.42-1.98,4.42-4.42s-1.98-4.42-4.42-4.42-4.42,1.98-4.42,4.42,1.98,4.42,4.42,4.42Z"/><circle cx="152.89" cy="157.05" r="4.42"/><circle cx="170.18" cy="156.86" r="4.42"/><circle cx="186.42" cy="156.62" r="4.42"/><path d="M201.6,160.8c2.44,0,4.42-1.98,4.42-4.42s-1.98-4.42-4.42-4.42-4.42,1.98-4.42,4.42,1.98,4.42,4.42,4.42Z"/><circle cx="215.72" cy="156.13" r="4.32"/><path d="M228.76,159.71c2.11,0,3.82-1.71,3.82-3.82s-1.71-3.82-3.82-3.82-3.82,1.71-3.82,3.82,1.71,3.82,3.82,3.82Z"/><path d="M240.74,158.96c1.83,0,3.32-1.49,3.32-3.32s-1.49-3.32-3.32-3.32-3.32,1.49-3.32,3.32,1.49,3.32,3.32,3.32Z"/><circle cx="251.64" cy="155.39" r="2.87"/><path d="M261.48,157.59c1.35,0,2.45-1.09,2.45-2.45s-1.1-2.45-2.45-2.45-2.45,1.09-2.45,2.45,1.09,2.45,2.45,2.45Z"/><circle cx="270.25" cy="154.9" r="2.02"/><path d="M277.96,156.3c.91,0,1.65-.74,1.65-1.65s-.74-1.65-1.65-1.65-1.65,.74-1.65,1.65,.74,1.65,1.65,1.65Z"/><path d="M284.59,155.7c.72,0,1.3-.58,1.3-1.3s-.58-1.3-1.3-1.3-1.3,.58-1.3,1.3,.58,1.3,1.3,1.3Z"/><path d="M290.16,155.13c.54,0,.97-.44,.97-.97s-.44-.97-.97-.97-.97,.44-.97,.97,.44,.97,.97,.97Z"/><path d="M294.65,154.6c.39,0,.7-.31,.7-.7s-.31-.7-.7-.7-.7,.31-.7,.7,.31,.7,.7,.7Z"/><path d="M298.08,154.13c.26,0,.47-.21,.47-.47s-.21-.47-.47-.47-.47,.21-.47,.47,.21,.47,.47,.47Z"/><path d="M300.45,153.66c.14,0,.25-.11,.25-.25s-.11-.25-.25-.25-.25,.11-.25,.25,.11,.25,.25,.25Z"/><path d="M301.74,153.26c.06,0,.1-.05,.1-.1s-.04-.1-.1-.1-.1,.05-.1,.1,.04,.1,.1,.1Z"/><circle cx="304.67" cy="152.99" r=".03"/><circle cx=".52" cy="163.1" r=".03"/><circle cx="2.65" cy="163.88" r=".12"/><circle cx="5.84" cy="164.65" r=".3"/><path d="M10.1,165.96c.29,0,.52-.24,.52-.52s-.23-.52-.52-.52-.52,.24-.52,.52,.24,.52,.52,.52Z"/><path d="M15.43,166.98c.43,0,.77-.35,.77-.77s-.35-.77-.77-.77-.77,.35-.77,.77,.35,.77,.77,.77Z"/><path d="M21.83,168.03c.58,0,1.05-.47,1.05-1.05s-.47-1.05-1.05-1.05-1.05,.47-1.05,1.05,.47,1.05,1.05,1.05Z"/><path d="M29.29,169.13c.76,0,1.37-.62,1.37-1.37s-.62-1.37-1.37-1.37-1.37,.62-1.37,1.37,.62,1.37,1.37,1.37Z"/><path d="M37.83,170.25c.95,0,1.72-.77,1.72-1.72s-.77-1.72-1.72-1.72-1.72,.77-1.72,1.72,.77,1.72,1.72,1.72Z"/><circle cx="47.43" cy="169.3" r="2.12"/><path d="M58.1,172.58c1.39,0,2.52-1.13,2.52-2.52s-1.13-2.52-2.52-2.52-2.52,1.13-2.52,2.52,1.13,2.52,2.52,2.52Z"/><path d="M69.84,173.79c1.64,0,2.97-1.33,2.97-2.97s-1.33-2.97-2.97-2.97-2.97,1.33-2.97,2.97,1.33,2.97,2.97,2.97Z"/><path d="M82.64,175.01c1.9,0,3.44-1.54,3.44-3.44s-1.54-3.44-3.44-3.44-3.44,1.54-3.44,3.44,1.54,3.44,3.44,3.44Z"/><path d="M96.51,176.22c2.16,0,3.92-1.75,3.92-3.92s-1.75-3.92-3.92-3.92-3.92,1.75-3.92,3.92,1.75,3.92,3.92,3.92Z"/><circle cx="111.43" cy="173" r="4.42"/><circle cx="127.38" cy="173.6" r="4.42"/><path d="M144.22,178.41c2.44,0,4.42-1.98,4.42-4.42s-1.98-4.42-4.42-4.42-4.42,1.98-4.42,4.42,1.98,4.42,4.42,4.42Z"/><path d="M161.38,178.33c2.44,0,4.42-1.98,4.42-4.42s-1.98-4.42-4.42-4.42-4.42,1.98-4.42,4.42,1.98,4.42,4.42,4.42Z"/><path d="M178,177.87c2.44,0,4.42-1.98,4.42-4.42s-1.98-4.42-4.42-4.42-4.42,1.98-4.42,4.42,1.98,4.42,4.42,4.42Z"/><path d="M193.67,177.22c2.44,0,4.42-1.98,4.42-4.42s-1.98-4.42-4.42-4.42-4.42,1.98-4.42,4.42,1.98,4.42,4.42,4.42Z"/><path d="M208.3,176.42c2.38,0,4.32-1.93,4.32-4.32s-1.93-4.32-4.32-4.32-4.32,1.93-4.32,4.32,1.93,4.32,4.32,4.32Z"/><path d="M221.87,175.18c2.11,0,3.82-1.71,3.82-3.82s-1.71-3.82-3.82-3.82-3.82,1.71-3.82,3.82,1.71,3.82,3.82,3.82Z"/><path d="M234.38,173.93c1.83,0,3.32-1.49,3.32-3.32s-1.49-3.32-3.32-3.32-3.32,1.49-3.32,3.32,1.49,3.32,3.32,3.32Z"/><path d="M245.81,172.72c1.58,0,2.87-1.29,2.87-2.87s-1.29-2.87-2.87-2.87-2.87,1.29-2.87,2.87,1.29,2.87,2.87,2.87Z"/><circle cx="256.19" cy="169.08" r="2.45"/><circle cx="265.49" cy="168.31" r="2.02"/><path d="M273.73,169.19c.91,0,1.65-.74,1.65-1.65s-.74-1.65-1.65-1.65-1.65,.74-1.65,1.65,.74,1.65,1.65,1.65Z"/><path d="M280.89,168.06c.72,0,1.3-.58,1.3-1.3s-.58-1.3-1.3-1.3-1.3,.58-1.3,1.3,.58,1.3,1.3,1.3Z"/><path d="M286.99,166.96c.54,0,.97-.44,.97-.97s-.44-.97-.97-.97-.97,.44-.97,.97,.44,.97,.97,.97Z"/><path d="M292.03,165.91c.39,0,.7-.31,.7-.7s-.31-.7-.7-.7-.7,.31-.7,.7,.31,.7,.7,.7Z"/><circle cx="295.99" cy="164.44" r=".47"/><path d="M298.88,163.91c.14,0,.25-.11,.25-.25s-.11-.25-.25-.25-.25,.11-.25,.25,.11,.25,.25,.25Z"/><circle cx="300.71" cy="162.88" r=".1"/><circle cx="301.47" cy="162.1" r=".03"/><path d="M2.49,173.36s.02-.01,.02-.03-.01-.03-.02-.03-.03,.01-.03,.03,.01,.03,.03,.03Z"/><circle cx="5.15" cy="174.64" r=".12"/><circle cx="8.87" cy="175.93" r=".3"/><path d="M13.67,177.72c.28,0,.5-.22,.5-.5s-.22-.5-.5-.5-.5,.22-.5,.5,.22,.5,.5,.5Z"/><circle cx="19.53" cy="178.51" r=".75"/><path d="M26.46,180.81c.57,0,1.02-.46,1.02-1.02s-.46-1.02-1.02-1.02-1.02,.46-1.02,1.02,.46,1.02,1.02,1.02Z"/><path d="M34.45,182.41c.74,0,1.35-.6,1.35-1.35s-.6-1.35-1.35-1.35-1.35,.6-1.35,1.35,.6,1.35,1.35,1.35Z"/><path d="M43.51,184.02c.94,0,1.7-.76,1.7-1.7s-.76-1.7-1.7-1.7-1.7,.76-1.7,1.7,.76,1.7,1.7,1.7Z"/><path d="M53.64,185.64c1.14,0,2.07-.93,2.07-2.07s-.93-2.07-2.07-2.07-2.07,.93-2.07,2.07,.93,2.07,2.07,2.07Z"/><circle cx="64.83" cy="184.8" r="2.47"/><path d="M77.07,188.89c1.6,0,2.9-1.3,2.9-2.89s-1.3-2.89-2.9-2.89-2.89,1.3-2.89,2.89,1.3,2.89,2.89,2.89Z"/><path d="M90.37,190.48c1.85,0,3.34-1.5,3.34-3.34s-1.5-3.34-3.34-3.34-3.34,1.5-3.34,3.34,1.5,3.34,3.34,3.34Z"/><path d="M104.69,191.99c2.09,0,3.79-1.7,3.79-3.79s-1.7-3.79-3.79-3.79-3.79,1.7-3.79,3.79,1.7,3.79,3.79,3.79Z"/><circle cx="120" cy="189.1" r="4.27"/><path d="M136.13,194.15c2.44,0,4.42-1.98,4.42-4.42s-1.98-4.42-4.42-4.42-4.42,1.98-4.42,4.42,1.98,4.42,4.42,4.42Z"/><path d="M152.74,194.33c2.44,0,4.42-1.98,4.42-4.42s-1.98-4.42-4.42-4.42-4.42,1.98-4.42,4.42,1.98,4.42,4.42,4.42Z"/><circle cx="169.27" cy="189.59" r="4.42"/><path d="M185.2,193.29c2.44,0,4.42-1.98,4.42-4.42s-1.98-4.42-4.42-4.42-4.42,1.98-4.42,4.42,1.98,4.42,4.42,4.42Z"/><path d="M200.23,192.33c2.44,0,4.42-1.98,4.42-4.42s-1.98-4.42-4.42-4.42-4.42,1.98-4.42,4.42,1.98,4.42,4.42,4.42Z"/><circle cx="214.27" cy="186.83" r="4.17"/><path d="M227.28,189.36c2.04,0,3.69-1.65,3.69-3.69s-1.65-3.69-3.69-3.69-3.69,1.65-3.69,3.69,1.65,3.69,3.69,3.69Z"/><circle cx="239.23" cy="184.46" r="3.24"/><circle cx="250.12" cy="183.23" r="2.79"/><circle cx="259.95" cy="181.97" r="2.37"/><path d="M268.72,182.68c1.09,0,1.97-.88,1.97-1.97s-.88-1.97-1.97-1.97-1.97,.88-1.97,1.97,.88,1.97,1.97,1.97Z"/><path d="M276.41,181.05c.9,0,1.62-.73,1.62-1.62s-.73-1.62-1.62-1.62-1.62,.73-1.62,1.62,.73,1.62,1.62,1.62Z"/><path d="M283.05,179.42c.7,0,1.27-.57,1.27-1.27s-.57-1.27-1.27-1.27-1.27,.57-1.27,1.27,.57,1.27,1.27,1.27Z"/><path d="M288.61,177.81c.52,0,.95-.42,.95-.95s-.42-.95-.95-.95-.95,.42-.95,.95,.42,.95,.95,.95Z"/><path d="M293.1,176.24c.37,0,.67-.3,.67-.67s-.3-.67-.67-.67-.67,.3-.67,.67,.3,.67,.67,.67Z"/><path d="M296.53,174.72c.25,0,.45-.2,.45-.45s-.2-.45-.45-.45-.45,.2-.45,.45,.2,.45,.45,.45Z"/><path d="M298.89,173.23c.14,0,.25-.11,.25-.25s-.11-.25-.25-.25-.25,.11-.25,.25,.11,.25,.25,.25Z"/><path d="M300.18,171.78c.06,0,.1-.04,.1-.1s-.04-.1-.1-.1-.1,.04-.1,.1,.04,.1,.1,.1Z"/><circle cx="3.11" cy="182.03" r=".03"/><path d="M5.23,183.93c.06,0,.1-.04,.1-.1s-.04-.1-.1-.1-.1,.04-.1,.1,.05,.1,.1,.1Z"/><path d="M8.42,185.9c.15,0,.27-.12,.27-.27s-.12-.28-.27-.28-.27,.12-.27,.28,.12,.27,.27,.27Z"/><circle cx="12.67" cy="187.41" r=".45"/><path d="M17.99,189.89c.39,0,.7-.31,.7-.7s-.31-.7-.7-.7-.7,.31-.7,.7,.31,.7,.7,.7Z"/><path d="M24.38,191.93c.54,0,.97-.44,.97-.97s-.44-.97-.97-.97-.97,.44-.97,.97,.44,.97,.97,.97Z"/><path d="M31.83,193.97c.7,0,1.27-.57,1.27-1.27s-.57-1.27-1.27-1.27-1.27,.57-1.27,1.27,.57,1.27,1.27,1.27Z"/><path d="M40.34,196.04c.9,0,1.62-.73,1.62-1.62s-.73-1.62-1.62-1.62-1.62,.73-1.62,1.62,.73,1.62,1.62,1.62Z"/><path d="M49.91,198.09c1.09,0,1.97-.88,1.97-1.97s-.88-1.97-1.97-1.97-1.97,.88-1.97,1.97,.88,1.97,1.97,1.97Z"/><circle cx="60.53" cy="197.76" r="2.35"/><path d="M72.2,202.1c1.52,0,2.75-1.23,2.75-2.74s-1.23-2.75-2.75-2.75-2.75,1.23-2.75,2.75,1.23,2.74,2.75,2.74Z"/><path d="M84.9,204.03c1.75,0,3.17-1.42,3.17-3.17s-1.42-3.17-3.17-3.17-3.17,1.42-3.17,3.17,1.42,3.17,3.17,3.17Z"/><path d="M98.59,205.8c1.97,0,3.57-1.6,3.57-3.57s-1.6-3.57-3.57-3.57-3.57,1.6-3.57,3.57,1.6,3.57,3.57,3.57Z"/><path d="M113.21,207.4c2.21,0,3.99-1.79,3.99-3.99s-1.79-3.99-3.99-3.99-3.99,1.79-3.99,3.99,1.79,3.99,3.99,3.99Z"/><circle cx="128.63" cy="204.28" r="4.34"/><path d="M144.6,209.14c2.44,0,4.42-1.98,4.42-4.42s-1.98-4.42-4.42-4.42-4.42,1.98-4.42,4.42,1.98,4.42,4.42,4.42Z"/><path d="M160.72,209.07c2.44,0,4.42-1.98,4.42-4.42s-1.98-4.42-4.42-4.42-4.42,1.98-4.42,4.42,1.98,4.42,4.42,4.42Z"/><circle cx="176.57" cy="204.08" r="4.42"/><path d="M191.79,207.38c2.36,0,4.27-1.91,4.27-4.27s-1.91-4.27-4.27-4.27-4.27,1.91-4.27,4.27,1.91,4.27,4.27,4.27Z"/><path d="M206.16,205.76c2.15,0,3.89-1.74,3.89-3.89s-1.74-3.89-3.89-3.89-3.89,1.74-3.89,3.89,1.74,3.89,3.89,3.89Z"/><path d="M219.58,203.95c1.93,0,3.49-1.56,3.49-3.49s-1.56-3.49-3.49-3.49-3.49,1.56-3.49,3.49,1.56,3.49,3.49,3.49Z"/><path d="M231.99,201.99c1.7,0,3.07-1.37,3.07-3.07s-1.37-3.07-3.07-3.07-3.07,1.37-3.07,3.07,1.37,3.07,3.07,3.07Z"/><path d="M243.37,199.98c1.47,0,2.67-1.2,2.67-2.67s-1.2-2.67-2.67-2.67-2.67,1.2-2.67,2.67,1.2,2.67,2.67,2.67Z"/><path d="M253.7,197.92c1.25,0,2.27-1.02,2.27-2.27s-1.02-2.27-2.27-2.27-2.27,1.02-2.27,2.27,1.02,2.27,2.27,2.27Z"/><circle cx="262.97" cy="193.94" r="1.9"/><path d="M271.19,193.74c.84,0,1.52-.68,1.52-1.52s-.68-1.52-1.52-1.52-1.52,.68-1.52,1.52,.68,1.52,1.52,1.52Z"/><path d="M278.34,191.66c.66,0,1.2-.54,1.2-1.2s-.54-1.2-1.2-1.2-1.2,.54-1.2,1.2,.54,1.2,1.2,1.2Z"/><path d="M284.43,189.59c.5,0,.9-.4,.9-.9s-.4-.9-.9-.9-.9,.4-.9,.9,.4,.9,.9,.9Z"/><path d="M289.45,187.56c.36,0,.65-.29,.65-.65s-.29-.65-.65-.65-.65,.29-.65,.65,.29,.65,.65,.65Z"/><path d="M293.4,185.53c.22,0,.4-.18,.4-.4s-.18-.4-.4-.4-.4,.18-.4,.4,.18,.4,.4,.4Z"/><circle cx="296.29" cy="183.33" r=".22"/><circle cx="298.12" cy="181.53" r=".08"/><circle cx="8.73" cy="194.44" r=".08"/><circle cx="12.44" cy="196.71" r=".22"/><circle cx="17.21" cy="198.95" r=".4"/><circle cx="23.04" cy="201.17" r=".62"/><path d="M29.93,204.25c.5,0,.9-.4,.9-.9s-.4-.9-.9-.9-.9,.4-.9,.9,.4,.9,.9,.9Z"/><path d="M37.88,206.68c.65,0,1.17-.53,1.17-1.17s-.53-1.17-1.17-1.17-1.17,.53-1.17,1.17,.53,1.17,1.17,1.17Z"/><path d="M46.88,209.11c.83,0,1.5-.67,1.5-1.5s-.67-1.5-1.5-1.5-1.5,.67-1.5,1.5,.67,1.5,1.5,1.5Z"/><path d="M56.92,211.47c1.01,0,1.82-.82,1.82-1.82s-.82-1.82-1.82-1.82-1.82,.82-1.82,1.82,.82,1.82,1.82,1.82Z"/><path d="M67.99,213.8c1.21,0,2.2-.98,2.2-2.2s-.98-2.2-2.2-2.2-2.2,.98-2.2,2.2,.98,2.2,2.2,2.2Z"/><circle cx="80.06" cy="213.43" r="2.55"/><path d="M93.1,218.01c1.61,0,2.92-1.31,2.92-2.92s-1.31-2.92-2.92-2.92-2.92,1.31-2.92,2.92,1.31,2.92,2.92,2.92Z"/><path d="M107.03,219.82c1.82,0,3.29-1.47,3.29-3.29s-1.48-3.29-3.29-3.29-3.29,1.47-3.29,3.29,1.48,3.29,3.29,3.29Z"/><path d="M121.73,221.25c2,0,3.62-1.62,3.62-3.62s-1.62-3.62-3.62-3.62-3.62,1.62-3.62,3.62,1.62,3.62,3.62,3.62Z"/><path d="M137.02,222.24c2.16,0,3.92-1.75,3.92-3.92s-1.75-3.92-3.92-3.92-3.92,1.75-3.92,3.92,1.75,3.92,3.92,3.92Z"/><path d="M152.59,222.61c2.26,0,4.09-1.83,4.09-4.09s-1.83-4.09-4.09-4.09-4.09,1.83-4.09,4.09,1.83,4.09,4.09,4.09Z"/><path d="M168.12,222.32c2.29,0,4.14-1.85,4.14-4.14s-1.86-4.14-4.14-4.14-4.14,1.86-4.14,4.14,1.85,4.14,4.14,4.14Z"/><path d="M183.27,221.43c2.25,0,4.07-1.82,4.07-4.07s-1.82-4.07-4.07-4.07-4.07,1.82-4.07,4.07,1.82,4.07,4.07,4.07Z"/><path d="M197.77,220c2.12,0,3.84-1.72,3.84-3.84s-1.72-3.84-3.84-3.84-3.84,1.72-3.84,3.84,1.72,3.84,3.84,3.84Z"/><path d="M211.46,218.19c1.96,0,3.54-1.59,3.54-3.54s-1.59-3.54-3.54-3.54-3.54,1.59-3.54,3.54,1.59,3.54,3.54,3.54Z"/><path d="M224.24,216.15c1.78,0,3.22-1.44,3.22-3.22s-1.44-3.22-3.22-3.22-3.22,1.44-3.22,3.22,1.44,3.22,3.22,3.22Z"/><path d="M236.03,213.91c1.57,0,2.85-1.27,2.85-2.84s-1.27-2.84-2.85-2.84-2.85,1.27-2.85,2.84,1.27,2.84,2.85,2.84Z"/><circle cx="246.82" cy="209.09" r="2.47"/><circle cx="256.57" cy="207.03" r="2.1"/><path d="M265.27,206.66c.96,0,1.75-.78,1.75-1.75s-.78-1.75-1.75-1.75-1.75,.78-1.75,1.75,.78,1.75,1.75,1.75Z"/><path d="M272.93,204.17c.79,0,1.42-.64,1.42-1.42s-.64-1.42-1.42-1.42-1.42,.64-1.42,1.42,.64,1.42,1.42,1.42Z"/><path d="M279.52,201.67c.62,0,1.12-.5,1.12-1.12s-.5-1.12-1.12-1.12-1.12,.5-1.12,1.12,.5,1.12,1.12,1.12Z"/><path d="M285.06,199.15c.46,0,.82-.37,.82-.82s-.37-.82-.82-.82-.82,.37-.82,.82,.37,.82,.82,.82Z"/><path d="M289.53,196.65c.32,0,.57-.26,.57-.57s-.26-.57-.57-.57-.57,.26-.57,.57,.26,.57,.57,.57Z"/><circle cx="292.94" cy="193.81" r=".37"/><path d="M295.29,191.73c.11,0,.2-.09,.2-.2s-.09-.2-.2-.2-.2,.09-.2,.2,.09,.2,.2,.2Z"/><path d="M296.57,189.29s.05-.02,.05-.05-.02-.05-.05-.05-.05,.02-.05,.05,.02,.05,.05,.05Z"/><circle cx="9.78" cy="202.32" r=".05"/><path d="M12.93,205.21c.1,0,.17-.08,.17-.17s-.08-.17-.17-.17-.17,.08-.17,.17,.08,.17,.17,.17Z"/><circle cx="17.15" cy="207.72" r=".35"/><path d="M22.42,210.92c.3,0,.55-.25,.55-.55s-.25-.55-.55-.55-.55,.25-.55,.55,.25,.55,.55,.55Z"/><circle cx="28.74" cy="212.98" r=".8"/><path d="M36.12,216.61c.59,0,1.07-.48,1.07-1.07s-.48-1.07-1.07-1.07-1.07,.48-1.07,1.07,.48,1.07,1.07,1.07Z"/><path d="M44.53,219.36c.74,0,1.35-.6,1.35-1.35s-.6-1.35-1.35-1.35-1.35,.6-1.35,1.35,.6,1.35,1.35,1.35Z"/><path d="M53.97,222.08c.92,0,1.67-.75,1.67-1.67s-.75-1.67-1.67-1.67-1.67,.75-1.67,1.67,.75,1.67,1.67,1.67Z"/><circle cx="64.41" cy="222.69" r="2"/><circle cx="75.84" cy="224.83" r="2.32"/><circle cx="88.21" cy="226.76" r="2.65"/><circle cx="101.44" cy="228.44" r="2.95"/><path d="M115.43,233.01c1.78,0,3.22-1.44,3.22-3.22s-1.44-3.22-3.22-3.22-3.22,1.44-3.22,3.22,1.44,3.22,3.22,3.22Z"/><path d="M130.02,234.18c1.9,0,3.44-1.54,3.44-3.44s-1.54-3.44-3.44-3.44-3.44,1.54-3.44,3.44,1.54,3.44,3.44,3.44Z"/><path d="M144.98,234.78c1.98,0,3.59-1.61,3.59-3.59s-1.61-3.59-3.59-3.59-3.59,1.61-3.59,3.59,1.61,3.59,3.59,3.59Z"/><path d="M160.05,234.75c2.01,0,3.64-1.63,3.64-3.64s-1.63-3.64-3.64-3.64-3.64,1.63-3.64,3.64,1.63,3.64,3.64,3.64Z"/><path d="M174.93,234.08c1.97,0,3.57-1.6,3.57-3.57s-1.6-3.57-3.57-3.57-3.57,1.6-3.57,3.57,1.6,3.57,3.57,3.57Z"/><path d="M189.37,232.87c1.89,0,3.42-1.53,3.42-3.42s-1.53-3.42-3.42-3.42-3.42,1.53-3.42,3.42,1.53,3.42,3.42,3.42Z"/><path d="M203.16,231.17c1.75,0,3.17-1.42,3.17-3.17s-1.42-3.17-3.17-3.17-3.17,1.42-3.17,3.17,1.42,3.17,3.17,3.17Z"/><path d="M216.16,229.14c1.6,0,2.9-1.3,2.9-2.89s-1.3-2.89-2.9-2.89-2.89,1.3-2.89,2.89,1.3,2.89,2.89,2.89Z"/><path d="M228.27,226.82c1.42,0,2.57-1.15,2.57-2.57s-1.15-2.57-2.57-2.57-2.57,1.15-2.57,2.57,1.15,2.57,2.57,2.57Z"/><path d="M239.43,224.32c1.24,0,2.25-1.01,2.25-2.25s-1.01-2.25-2.25-2.25-2.25,1.01-2.25,2.25,1.01,2.25,2.25,2.25Z"/><path d="M249.6,221.67c1.06,0,1.92-.86,1.92-1.92s-.86-1.92-1.92-1.92-1.92,.86-1.92,1.92,.86,1.92,1.92,1.92Z"/><path d="M258.75,218.93c.88,0,1.6-.72,1.6-1.6s-.72-1.6-1.6-1.6-1.6,.72-1.6,1.6,.72,1.6,1.6,1.6Z"/><path d="M266.88,216.12c.72,0,1.3-.58,1.3-1.3s-.58-1.3-1.3-1.3-1.3,.58-1.3,1.3,.58,1.3,1.3,1.3Z"/><path d="M273.96,213.25c.55,0,1-.45,1-1s-.45-1-1-1-1,.45-1,1,.45,1,1,1Z"/><path d="M279.99,210.39c.41,0,.75-.34,.75-.75s-.34-.75-.75-.75-.75,.34-.75,.75,.34,.75,.75,.75Z"/><path d="M284.96,207.47c.28,0,.5-.22,.5-.5s-.22-.5-.5-.5-.5,.22-.5,.5,.22,.5,.5,.5Z"/><circle cx="288.88" cy="204.28" r=".3"/><circle cx="291.74" cy="201.56" r=".15"/><circle cx="293.54" cy="198.81" r=".05"/><circle cx="14.15" cy="212.36" r=".03"/><circle cx="17.8" cy="215.47" r=".12"/><path d="M22.5,218.8c.15,0,.27-.12,.27-.27s-.12-.27-.27-.27-.27,.12-.27,.27,.12,.27,.27,.27Z"/><path d="M28.24,222c.26,0,.47-.21,.47-.47s-.21-.47-.47-.47-.47,.21-.47,.47,.21,.47,.47,.47Z"/><path d="M35.02,225.13c.37,0,.67-.3,.67-.67s-.3-.67-.67-.67-.67,.3-.67,.67,.3,.67,.67,.67Z"/><path d="M42.83,228.22c.51,0,.92-.41,.92-.92s-.41-.92-.92-.92-.92,.41-.92,.92,.41,.92,.92,.92Z"/><path d="M51.65,231.22c.66,0,1.2-.54,1.2-1.2s-.54-1.2-1.2-1.2-1.2,.54-1.2,1.2,.54,1.2,1.2,1.2Z"/><path d="M61.47,234.09c.81,0,1.47-.66,1.47-1.47s-.66-1.47-1.47-1.47-1.47,.66-1.47,1.47,.66,1.47,1.47,1.47Z"/><path d="M72.24,236.81c.98,0,1.77-.79,1.77-1.77s-.79-1.77-1.77-1.77-1.77,.79-1.77,1.77,.79,1.77,1.77,1.77Z"/><circle cx="83.92" cy="237.24" r="2.05"/><circle cx="96.45" cy="239.17" r="2.35"/><circle cx="109.73" cy="240.76" r="2.6"/><path d="M123.61,244.79c1.57,0,2.85-1.27,2.85-2.84s-1.27-2.84-2.85-2.84-2.84,1.27-2.84,2.84,1.27,2.84,2.84,2.84Z"/><path d="M137.92,245.67c1.67,0,3.02-1.35,3.02-3.02s-1.35-3.02-3.02-3.02-3.02,1.35-3.02,3.02,1.35,3.02,3.02,3.02Z"/><circle cx="152.44" cy="242.84" r="3.12"/><path d="M166.93,245.67c1.75,0,3.17-1.42,3.17-3.17s-1.42-3.17-3.17-3.17-3.17,1.42-3.17,3.17,1.42,3.17,3.17,3.17Z"/><path d="M181.14,244.78c1.72,0,3.12-1.4,3.12-3.12s-1.4-3.12-3.12-3.12-3.12,1.4-3.12,3.12,1.4,3.12,3.12,3.12Z"/><path d="M194.88,243.32c1.64,0,2.97-1.33,2.97-2.97s-1.33-2.97-2.97-2.97-2.97,1.33-2.97,2.97,1.33,2.97,2.97,2.97Z"/><circle cx="207.95" cy="238.66" r="2.79"/><circle cx="220.26" cy="236.65" r="2.55"/><circle cx="231.69" cy="234.38" r="2.27"/><circle cx="242.2" cy="231.91" r="2"/><path d="M251.74,230.97c.94,0,1.7-.76,1.7-1.7s-.76-1.7-1.7-1.7-1.7,.76-1.7,1.7,.76,1.7,1.7,1.7Z"/><path d="M260.28,227.91c.77,0,1.4-.63,1.4-1.4s-.63-1.4-1.4-1.4-1.4,.63-1.4,1.4,.63,1.4,1.4,1.4Z"/><path d="M267.8,224.77c.62,0,1.12-.5,1.12-1.12s-.5-1.12-1.12-1.12-1.12,.5-1.12,1.12,.5,1.12,1.12,1.12Z"/><path d="M274.3,221.57c.48,0,.87-.39,.87-.87s-.39-.87-.87-.87-.87,.39-.87,.87,.39,.87,.87,.87Z"/><circle cx="279.75" cy="217.68" r=".62"/><path d="M284.16,215.03c.23,0,.42-.19,.42-.42s-.19-.42-.42-.42-.42,.19-.42,.42,.19,.42,.42,.42Z"/><path d="M287.51,211.74c.14,0,.25-.11,.25-.25s-.11-.25-.25-.25-.25,.11-.25,.25,.11,.25,.25,.25Z"/><path d="M289.81,208.43c.06,0,.1-.04,.1-.1s-.04-.1-.1-.1-.1,.04-.1,.1,.05,.1,.1,.1Z"/><circle cx="295.67" cy="206.99" r=".03"/><circle cx="19.14" cy="222.15" r=".08"/><path d="M23.26,225.8c.11,0,.2-.09,.2-.2s-.09-.2-.2-.2-.2,.09-.2,.2,.09,.2,.2,.2Z"/><path d="M28.41,229.34c.21,0,.37-.17,.37-.37s-.17-.37-.37-.37-.37,.17-.37,.37,.17,.37,.37,.37Z"/><circle cx="34.59" cy="232.26" r=".57"/><path d="M41.78,236.21c.43,0,.77-.35,.77-.77s-.35-.77-.77-.77-.77,.35-.77,.77,.35,.77,.77,.77Z"/><path d="M49.98,239.51c.57,0,1.02-.46,1.02-1.02s-.46-1.02-1.02-1.02-1.02,.46-1.02,1.02,.46,1.02,1.02,1.02Z"/><path d="M59.14,242.64c.7,0,1.27-.57,1.27-1.27s-.57-1.27-1.27-1.27-1.27,.57-1.27,1.27,.57,1.27,1.27,1.27Z"/><path d="M69.24,245.59c.84,0,1.52-.68,1.52-1.52s-.68-1.52-1.52-1.52-1.52,.68-1.52,1.52,.68,1.52,1.52,1.52Z"/><path d="M80.24,248.3c.98,0,1.77-.79,1.77-1.77s-.79-1.77-1.77-1.77-1.77,.79-1.77,1.77,.79,1.77,1.77,1.77Z"/><circle cx="92.06" cy="248.7" r="2.02"/><circle cx="104.62" cy="250.53" r="2.25"/><circle cx="117.8" cy="251.95" r="2.45"/><circle cx="131.44" cy="252.92" r="2.6"/><path d="M145.36,256.04c1.47,0,2.67-1.2,2.67-2.67s-1.2-2.67-2.67-2.67-2.67,1.2-2.67,2.67,1.2,2.67,2.67,2.67Z"/><circle cx="159.37" cy="253.3" r="2.72"/><path d="M173.23,255.37c1.47,0,2.67-1.2,2.67-2.67s-1.2-2.67-2.67-2.67-2.67,1.2-2.67,2.67,1.2,2.67,2.67,2.67Z"/><circle cx="186.76" cy="251.6" r="2.57"/><path d="M199.78,252.45c1.32,0,2.4-1.07,2.4-2.4s-1.07-2.4-2.4-2.4-2.4,1.07-2.4,2.4,1.07,2.4,2.4,2.4Z"/><circle cx="212.15" cy="248.13" r="2.2"/><path d="M223.75,247.84c1.09,0,1.97-.88,1.97-1.97s-.88-1.97-1.97-1.97-1.97,.88-1.97,1.97,.88,1.97,1.97,1.97Z"/><circle cx="234.5" cy="243.34" r="1.72"/><path d="M244.34,242.06c.81,0,1.47-.66,1.47-1.47s-.66-1.47-1.47-1.47-1.47,.66-1.47,1.47,.66,1.47,1.47,1.47Z"/><path d="M253.24,238.87c.68,0,1.22-.55,1.22-1.22s-.55-1.22-1.22-1.22-1.22,.55-1.22,1.22,.55,1.22,1.22,1.22Z"/><path d="M261.15,235.53c.54,0,.97-.44,.97-.97s-.44-.97-.97-.97-.97,.44-.97,.97,.44,.97,.97,.97Z"/><path d="M268.07,232.07c.4,0,.72-.32,.72-.72s-.32-.72-.72-.72-.72,.32-.72,.72,.32,.72,.72,.72Z"/><circle cx="273.96" cy="228.04" r=".52"/><circle cx="278.83" cy="224.64" r=".32"/><circle cx="282.65" cy="221.18" r=".17"/><path d="M285.43,217.7s.05-.02,.05-.05-.02-.05-.05-.05-.05,.02-.05,.05,.02,.05,.05,.05Z"/><path d="M24.68,231.59s.02-.01,.02-.03-.01-.03-.02-.03-.02,.01-.02,.03,.01,.03,.02,.03Z"/><circle cx="29.23" cy="235.29" r=".12"/><path d="M34.8,239.19c.15,0,.27-.12,.27-.27s-.12-.27-.27-.27-.27,.12-.27,.27,.12,.27,.27,.27Z"/><circle cx="41.37" cy="242.41" r=".45"/><circle cx="48.92" cy="245.77" r=".62"/><path d="M57.42,249.79c.47,0,.85-.38,.85-.85s-.38-.85-.85-.85-.85,.38-.85,.85,.38,.85,.85,.85Z"/><path d="M66.85,252.96c.58,0,1.05-.47,1.05-1.05s-.47-1.05-1.05-1.05-1.05,.47-1.05,1.05,.47,1.05,1.05,1.05Z"/><path d="M77.15,255.89c.7,0,1.27-.57,1.27-1.27s-.57-1.27-1.27-1.27-1.27,.57-1.27,1.27,.57,1.27,1.27,1.27Z"/><path d="M88.27,258.54c.83,0,1.5-.67,1.5-1.5s-.67-1.5-1.5-1.5-1.5,.67-1.5,1.5,.67,1.5,1.5,1.5Z"/><path d="M100.11,260.83c.95,0,1.72-.77,1.72-1.72s-.77-1.72-1.72-1.72-1.72,.77-1.72,1.72,.77,1.72,1.72,1.72Z"/><circle cx="112.58" cy="260.77" r="1.9"/><path d="M125.54,264.06c1.14,0,2.07-.93,2.07-2.07s-.93-2.07-2.07-2.07-2.07,.93-2.07,2.07,.93,2.07,2.07,2.07Z"/><circle cx="138.84" cy="262.7" r="2.2"/><circle cx="152.3" cy="262.89" r="2.27"/><path d="M165.73,264.82c1.25,0,2.27-1.02,2.27-2.27s-1.02-2.27-2.27-2.27-2.27,1.02-2.27,2.27,1.02,2.27,2.27,2.27Z"/><circle cx="178.95" cy="261.7" r="2.25"/><circle cx="191.79" cy="260.35" r="2.17"/><path d="M204.09,260.59c1.12,0,2.02-.91,2.02-2.02s-.91-2.02-2.02-2.02-2.02,.91-2.02,2.02,.91,2.02,2.02,2.02Z"/><path d="M215.74,258.27c1.03,0,1.87-.84,1.87-1.87s-.84-1.87-1.87-1.87-1.87,.84-1.87,1.87,.84,1.87,1.87,1.87Z"/><circle cx="226.64" cy="253.89" r="1.67"/><path d="M236.7,252.55c.8,0,1.45-.65,1.45-1.45s-.65-1.45-1.45-1.45-1.45,.65-1.45,1.45,.65,1.45,1.45,1.45Z"/><path d="M245.87,249.3c.68,0,1.22-.55,1.22-1.22s-.55-1.22-1.22-1.22-1.22,.55-1.22,1.22,.55,1.22,1.22,1.22Z"/><path d="M254.12,245.85c.55,0,1-.45,1-1s-.45-1-1-1-1,.45-1,1,.45,1,1,1Z"/><circle cx="261.39" cy="241.45" r=".8"/><path d="M267.68,238.49c.32,0,.57-.26,.57-.57s-.26-.57-.57-.57-.57,.26-.57,.57,.26,.57,.57,.57Z"/><circle cx="272.97" cy="234.26" r=".4"/><path d="M277.23,230.75c.14,0,.25-.11,.25-.25s-.11-.25-.25-.25-.25,.11-.25,.25,.11,.25,.25,.25Z"/><circle cx="280.47" cy="226.66" r=".1"/><circle cx="286.67" cy="224.99" r=".03"/><circle cx="30.71" cy="240.47" r=".08"/><circle cx="35.65" cy="244.42" r=".17"/><path d="M41.58,248.55c.18,0,.32-.14,.32-.32s-.15-.32-.32-.32-.32,.14-.32,.32,.15,.32,.32,.32Z"/><path d="M48.48,252.35c.26,0,.47-.21,.47-.47s-.21-.47-.47-.47-.47,.21-.47,.47,.21,.47,.47,.47Z"/><path d="M56.32,255.98c.36,0,.65-.29,.65-.65s-.29-.65-.65-.65-.65,.29-.65,.65,.29,.65,.65,.65Z"/><path d="M65.06,259.41c.47,0,.85-.38,.85-.85s-.38-.85-.85-.85-.85,.38-.85,.85,.38,.85,.85,.85Z"/><path d="M74.67,262.57c.58,0,1.05-.47,1.05-1.05s-.47-1.05-1.05-1.05-1.05,.47-1.05,1.05,.47,1.05,1.05,1.05Z"/><path d="M85.07,265.4c.68,0,1.22-.55,1.22-1.22s-.55-1.22-1.22-1.22-1.22,.55-1.22,1.22,.55,1.22,1.22,1.22Z"/><path d="M96.2,267.89c.77,0,1.4-.63,1.4-1.4s-.63-1.4-1.4-1.4-1.4,.63-1.4,1.4,.63,1.4,1.4,1.4Z"/><path d="M107.95,269.97c.87,0,1.57-.7,1.57-1.57s-.7-1.57-1.57-1.57-1.57,.7-1.57,1.57,.7,1.57,1.57,1.57Z"/><path d="M120.22,271.55c.94,0,1.7-.76,1.7-1.7s-.76-1.7-1.7-1.7-1.7,.76-1.7,1.7,.76,1.7,1.7,1.7Z"/><circle cx="132.87" cy="270.83" r="1.8"/><path d="M145.75,273.16c1.03,0,1.87-.84,1.87-1.87s-.84-1.87-1.87-1.87-1.87,.84-1.87,1.87,.84,1.87,1.87,1.87Z"/><circle cx="158.69" cy="271.21" r="1.87"/><circle cx="171.51" cy="270.61" r="1.85"/><path d="M184.07,271.27c.98,0,1.77-.79,1.77-1.77s-.79-1.77-1.77-1.77-1.77,.79-1.77,1.77,.79,1.77,1.77,1.77Z"/><path d="M196.21,269.58c.92,0,1.67-.75,1.67-1.67s-.75-1.67-1.67-1.67-1.67,.75-1.67,1.67,.75,1.67,1.67,1.67Z"/><path d="M207.81,267.43c.85,0,1.55-.69,1.55-1.55s-.69-1.55-1.55-1.55-1.55,.69-1.55,1.55,.69,1.55,1.55,1.55Z"/><path d="M218.74,264.85c.76,0,1.37-.62,1.37-1.37s-.62-1.37-1.37-1.37-1.37,.62-1.37,1.37,.62,1.37,1.37,1.37Z"/><path d="M228.93,261.92c.66,0,1.2-.54,1.2-1.2s-.54-1.2-1.2-1.2-1.2,.54-1.2,1.2,.54,1.2,1.2,1.2Z"/><path d="M238.3,258.68c.55,0,1-.45,1-1s-.45-1-1-1-1,.45-1,1,.45,1,1,1Z"/><path d="M246.79,255.18c.44,0,.8-.36,.8-.8s-.36-.8-.8-.8-.8,.36-.8,.8,.36,.8,.8,.8Z"/><path d="M254.37,251.5c.34,0,.62-.28,.62-.62s-.28-.62-.62-.62-.62,.28-.62,.62,.28,.62,.62,.62Z"/><path d="M261,247.63c.25,0,.45-.2,.45-.45s-.2-.45-.45-.45-.45,.2-.45,.45,.2,.45,.45,.45Z"/><path d="M266.66,243.6c.15,0,.27-.12,.27-.27s-.12-.28-.27-.28-.27,.12-.27,.28,.12,.27,.27,.27Z"/><path d="M271.32,239.49c.08,0,.15-.07,.15-.15s-.07-.15-.15-.15-.15,.07-.15,.15,.07,.15,.15,.15Z"/><circle cx="274.98" cy="235.24" r=".05"/><path d="M37.13,248.79s.02-.01,.02-.03-.01-.03-.02-.03-.02,.01-.02,.03,.01,.03,.02,.03Z"/><circle cx="42.41" cy="252.87" r=".1"/><path d="M48.65,257c.11,0,.2-.09,.2-.2s-.09-.2-.2-.2-.2,.09-.2,.2,.09,.2,.2,.2Z"/><path d="M55.82,260.88c.19,0,.35-.16,.35-.35s-.16-.35-.35-.35-.35,.16-.35,.35,.16,.35,.35,.35Z"/><path d="M63.88,264.49c.26,0,.47-.21,.47-.47s-.21-.47-.47-.47-.47,.21-.47,.47,.21,.47,.47,.47Z"/><path d="M72.78,267.88c.36,0,.65-.29,.65-.65s-.29-.65-.65-.65-.65,.29-.65,.65,.29,.65,.65,.65Z"/><circle cx="82.47" cy="270.13" r=".8"/><path d="M92.88,273.65c.54,0,.97-.44,.97-.97s-.44-.97-.97-.97-.97,.44-.97,.97,.44,.97,.97,.97Z"/><path d="M103.93,275.95c.62,0,1.12-.5,1.12-1.12s-.5-1.12-1.12-1.12-1.12,.5-1.12,1.12,.5,1.12,1.12,1.12Z"/><path d="M115.5,277.78c.69,0,1.25-.56,1.25-1.25s-.56-1.25-1.25-1.25-1.25,.56-1.25,1.25,.56,1.25,1.25,1.25Z"/><path d="M127.49,279.13c.76,0,1.37-.62,1.37-1.37s-.62-1.37-1.37-1.37-1.37,.62-1.37,1.37,.62,1.37,1.37,1.37Z"/><path d="M139.75,279.93c.8,0,1.45-.65,1.45-1.45s-.65-1.45-1.45-1.45-1.45,.65-1.45,1.45,.65,1.45,1.45,1.45Z"/><path d="M152.15,280.17c.83,0,1.5-.67,1.5-1.5s-.67-1.5-1.5-1.5-1.5,.67-1.5,1.5,.67,1.5,1.5,1.5Z"/><path d="M164.52,279.85c.84,0,1.52-.68,1.52-1.52s-.68-1.52-1.52-1.52-1.52,.68-1.52,1.52,.68,1.52,1.52,1.52Z"/><path d="M176.72,278.96c.83,0,1.5-.67,1.5-1.5s-.67-1.5-1.5-1.5-1.5,.67-1.5,1.5,.67,1.5,1.5,1.5Z"/><path d="M188.61,277.52c.79,0,1.42-.64,1.42-1.42s-.64-1.42-1.42-1.42-1.42,.64-1.42,1.42,.64,1.42,1.42,1.42Z"/><path d="M200.04,275.62c.74,0,1.35-.6,1.35-1.35s-.6-1.35-1.35-1.35-1.35,.6-1.35,1.35,.6,1.35,1.35,1.35Z"/><path d="M210.92,273.23c.68,0,1.22-.55,1.22-1.22s-.55-1.22-1.22-1.22-1.22,.55-1.22,1.22,.55,1.22,1.22,1.22Z"/><path d="M221.14,270.45c.61,0,1.1-.49,1.1-1.1s-.49-1.1-1.1-1.1-1.1,.49-1.1,1.1,.49,1.1,1.1,1.1Z"/><path d="M230.62,267.29c.51,0,.92-.41,.92-.92s-.41-.92-.92-.92-.92,.41-.92,.92,.41,.92,.92,.92Z"/><path d="M239.29,263.84c.43,0,.77-.35,.77-.77s-.35-.77-.77-.77-.77,.35-.77,.77,.35,.77,.77,.77Z"/><path d="M247.1,260.11c.33,0,.6-.27,.6-.6s-.27-.6-.6-.6-.6,.27-.6,.6,.27,.6,.6,.6Z"/><path d="M254.01,256.17c.25,0,.45-.2,.45-.45s-.2-.45-.45-.45-.45,.2-.45,.45,.2,.45,.45,.45Z"/><path d="M259.99,252.04c.17,0,.3-.13,.3-.3s-.13-.3-.3-.3-.3,.13-.3,.3,.13,.3,.3,.3Z"/><circle cx="265.01" cy="247.58" r=".17"/><path d="M269.04,243.36s.08-.03,.08-.07-.03-.08-.08-.08-.08,.04-.08,.08,.03,.07,.08,.07Z"/><path d="M43.86,256.36s.02-.01,.02-.03-.01-.03-.02-.03-.02,.01-.02,.03,.01,.03,.02,.03Z"/><circle cx="49.44" cy="260.55" r=".1"/><path d="M55.92,264.74c.11,0,.2-.09,.2-.2s-.09-.2-.2-.2-.2,.09-.2,.2,.09,.2,.2,.2Z"/><path d="M63.29,268.6c.18,0,.32-.14,.32-.32s-.15-.32-.32-.32-.32,.14-.32,.32,.15,.32,.32,.32Z"/><circle cx="71.49" cy="271.74" r=".45"/><path d="M80.47,275.48c.33,0,.6-.27,.6-.6s-.27-.6-.6-.6-.6,.27-.6,.6,.27,.6,.6,.6Z"/><path d="M90.16,278.39c.4,0,.72-.32,.72-.72s-.32-.72-.72-.72-.72,.32-.72,.72,.32,.72,.72,.72Z"/><path d="M100.49,280.91c.47,0,.85-.38,.85-.85s-.38-.85-.85-.85-.85,.38-.85,.85,.38,.85,.85,.85Z"/><path d="M111.37,282.98c.54,0,.97-.44,.97-.97s-.44-.97-.97-.97-.97,.44-.97,.97,.44,.97,.97,.97Z"/><path d="M122.68,284.54c.58,0,1.05-.47,1.05-1.05s-.47-1.05-1.05-1.05-1.05,.47-1.05,1.05,.47,1.05,1.05,1.05Z"/><path d="M134.32,285.59c.62,0,1.12-.5,1.12-1.12s-.5-1.12-1.12-1.12-1.12,.5-1.12,1.12,.5,1.12,1.12,1.12Z"/><path d="M146.13,286.1c.65,0,1.17-.53,1.17-1.17s-.53-1.17-1.17-1.17-1.17,.53-1.17,1.17,.53,1.17,1.17,1.17Z"/><path d="M158,286.03c.65,0,1.17-.53,1.17-1.17s-.53-1.17-1.17-1.17-1.17,.53-1.17,1.17,.53,1.17,1.17,1.17Z"/><path d="M169.78,285.4c.63,0,1.15-.51,1.15-1.15s-.51-1.15-1.15-1.15-1.15,.51-1.15,1.15,.51,1.15,1.15,1.15Z"/><path d="M181.34,284.25c.62,0,1.12-.5,1.12-1.12s-.5-1.12-1.12-1.12-1.12,.5-1.12,1.12,.5,1.12,1.12,1.12Z"/><path d="M192.54,282.56c.58,0,1.05-.47,1.05-1.05s-.47-1.05-1.05-1.05-1.05,.47-1.05,1.05,.47,1.05,1.05,1.05Z"/><circle cx="203.28" cy="279.43" r=".95"/><path d="M213.44,277.75c.46,0,.82-.37,.82-.82s-.37-.82-.82-.82-.82,.37-.82,.82,.37,.82,.82,.82Z"/><path d="M222.94,274.74c.39,0,.7-.31,.7-.7s-.31-.7-.7-.7-.7,.31-.7,.7,.31,.7,.7,.7Z"/><circle cx="231.71" cy="270.81" r=".57"/><path d="M239.68,267.69c.23,0,.42-.19,.42-.42s-.19-.42-.42-.42-.42,.19-.42,.42,.19,.42,.42,.42Z"/><circle cx="246.81" cy="263.45" r=".3"/><path d="M253.04,259.57c.1,0,.17-.08,.17-.17s-.08-.17-.17-.17-.17,.08-.17,.17,.08,.17,.17,.17Z"/><circle cx="258.36" cy="255.12" r=".08"/><circle cx="264.17" cy="251.99" r=".03"/><path d="M56.63,267.38s.03-.01,.03-.03-.01-.03-.03-.03-.02,.01-.02,.03,.01,.03,.02,.03Z"/><path d="M63.3,271.45c.06,0,.1-.04,.1-.1s-.04-.1-.1-.1-.1,.04-.1,.1,.04,.1,.1,.1Z"/><path d="M70.79,275.26c.11,0,.2-.09,.2-.2s-.09-.2-.2-.2-.2,.09-.2,.2,.09,.2,.2,.2Z"/><path d="M79.06,278.74c.17,0,.3-.13,.3-.3s-.13-.3-.3-.3-.3,.13-.3,.3,.13,.3,.3,.3Z"/><path d="M88.04,281.87c.22,0,.4-.18,.4-.4s-.18-.4-.4-.4-.4,.18-.4,.4,.18,.4,.4,.4Z"/><path d="M97.66,284.6c.28,0,.5-.22,.5-.5s-.22-.5-.5-.5-.5,.22-.5,.5,.22,.5,.5,.5Z"/><path d="M107.83,286.89c.33,0,.6-.27,.6-.6s-.27-.6-.6-.6-.6,.27-.6,.6,.27,.6,.6,.6Z"/><path d="M118.47,288.73c.39,0,.7-.31,.7-.7s-.31-.7-.7-.7-.7,.31-.7,.7,.31,.7,.7,.7Z"/><path d="M129.45,290.04c.43,0,.77-.35,.77-.77s-.35-.77-.77-.77-.77,.35-.77,.77,.35,.77,.77,.77Z"/><path d="M140.67,290.81c.46,0,.82-.37,.82-.82s-.37-.82-.82-.82-.82,.37-.82,.82,.37,.82,.82,.82Z"/><path d="M152,291.05c.48,0,.87-.39,.87-.87s-.39-.87-.87-.87-.87,.39-.87,.87,.39,.87,.87,.87Z"/><path d="M163.31,290.71c.48,0,.87-.39,.87-.87s-.39-.87-.87-.87-.87,.39-.87,.87,.39,.87,.87,.87Z"/><path d="M174.47,289.82c.47,0,.85-.38,.85-.85s-.38-.85-.85-.85-.85,.38-.85,.85,.38,.85,.85,.85Z"/><path d="M185.37,288.42c.46,0,.82-.37,.82-.82s-.37-.82-.82-.82-.82,.37-.82,.82,.37,.82,.82,.82Z"/><circle cx="195.89" cy="285.73" r=".75"/><path d="M205.91,284.08c.37,0,.67-.3,.67-.67s-.3-.67-.67-.67-.67,.3-.67,.67,.3,.67,.67,.67Z"/><path d="M215.36,281.26c.33,0,.6-.27,.6-.6s-.27-.6-.6-.6-.6,.27-.6,.6,.27,.6,.6,.6Z"/><path d="M224.15,278.01c.26,0,.47-.21,.47-.47s-.21-.47-.47-.47-.47,.21-.47,.47,.21,.47,.47,.47Z"/><path d="M232.21,274.43c.21,0,.37-.17,.37-.37s-.17-.37-.37-.37-.37,.17-.37,.37,.17,.37,.37,.37Z"/><path d="M239.47,270.54c.15,0,.27-.12,.27-.27s-.12-.27-.27-.27-.27,.12-.27,.27,.12,.27,.27,.27Z"/><path d="M245.91,266.37c.1,0,.17-.08,.17-.17s-.08-.17-.17-.17-.17,.08-.17,.17,.08,.17,.17,.17Z"/><circle cx="251.46" cy="261.87" r=".08"/><circle cx="259.67" cy="260.99" r=".03"/><path d="M63.91,273.26s.03-.01,.03-.03-.01-.03-.03-.03-.02,.01-.02,.03,.01,.03,.02,.03Z"/><circle cx="70.7" cy="277.19" r=".08"/><path d="M78.25,280.96c.08,0,.15-.07,.15-.15s-.07-.15-.15-.15-.15,.07-.15,.15,.07,.15,.15,.15Z"/><circle cx="86.52" cy="284.07" r=".22"/><circle cx="95.42" cy="286.94" r=".32"/><circle cx="104.89" cy="289.38" r=".4"/><circle cx="114.83" cy="291.36" r=".47"/><circle cx="125.16" cy="292.86" r=".52"/><circle cx="135.76" cy="293.84" r=".57"/><circle cx="146.52" cy="294.3" r=".6"/><path d="M157.32,294.82c.33,0,.6-.27,.6-.6s-.27-.6-.6-.6-.6,.27-.6,.6,.27,.6,.6,.6Z"/><path d="M168.05,294.22c.33,0,.6-.27,.6-.6s-.27-.6-.6-.6-.6,.27-.6,.6,.27,.6,.6,.6Z"/><circle cx="178.58" cy="292.49" r=".57"/><circle cx="188.81" cy="290.86" r=".52"/><circle cx="198.63" cy="288.75" r=".45"/><path d="M207.95,286.56c.21,0,.37-.17,.37-.37s-.17-.37-.37-.37-.37,.17-.37,.37,.17,.37,.37,.37Z"/><circle cx="216.69" cy="283.2" r=".3"/><circle cx="224.76" cy="279.83" r=".22"/><circle cx="232.1" cy="276.11" r=".12"/><circle cx="238.67" cy="272.08" r=".08"/><circle cx="246.17" cy="269.99" r=".03"/><circle cx="85.59" cy="285.48" r=".05"/><circle cx="93.78" cy="288.59" r=".1"/><circle cx="102.54" cy="291.28" r=".15"/><circle cx="111.8" cy="293.5" r=".22"/><path d="M121.45,295.53c.15,0,.27-.12,.27-.28s-.12-.27-.27-.27-.27,.12-.27,.27,.12,.28,.27,.28Z"/><circle cx="131.42" cy="296.5" r=".32"/><circle cx="141.59" cy="297.22" r=".35"/><path d="M151.85,297.79c.21,0,.37-.17,.37-.37s-.17-.37-.37-.37-.37,.17-.37,.37,.17,.37,.37,.37Z"/><circle cx="162.1" cy="297.07" r=".37"/><circle cx="172.22" cy="296.2" r=".37"/><circle cx="182.11" cy="294.81" r=".35"/><circle cx="191.66" cy="292.93" r=".3"/><circle cx="200.79" cy="290.57" r=".27"/><path d="M209.4,287.97c.11,0,.2-.09,.2-.2s-.09-.2-.2-.2-.2,.09-.2,.2,.09,.2,.2,.2Z"/><circle cx="217.41" cy="284.54" r=".15"/><circle cx="224.77" cy="280.94" r=".1"/><circle cx="232.67" cy="278.99" r=".05"/><circle cx="92.73" cy="289.05" r=".03"/><path d="M100.79,292.02s.05-.02,.05-.05-.02-.05-.05-.05-.05,.02-.05,.05,.02,.05,.05,.05Z"/><circle cx="109.35" cy="294.45" r=".08"/><circle cx="118.33" cy="296.45" r=".12"/><circle cx="127.65" cy="297.95" r=".15"/><circle cx="137.21" cy="298.94" r=".17"/><path d="M146.9,299.6c.11,0,.2-.09,.2-.2s-.09-.2-.2-.2-.2,.09-.2,.2,.09,.2,.2,.2Z"/><circle cx="156.64" cy="299.32" r=".2"/><path d="M166.31,298.91c.11,0,.2-.09,.2-.2s-.09-.2-.2-.2-.2,.09-.2,.2,.09,.2,.2,.2Z"/><circle cx="175.81" cy="297.58" r=".17"/><path d="M185.04,296.09c.08,0,.15-.07,.15-.15s-.07-.15-.15-.15-.15,.07-.15,.15,.07,.15,.15,.15Z"/><circle cx="193.92" cy="293.81" r=".12"/><circle cx="202.34" cy="291.2" r=".08"/><circle cx="210.24" cy="288.16" r=".05"/><path d="M124.46,298.23s.02-.01,.02-.03-.01-.03-.02-.03-.03,.01-.03,.03,.01,.03,.03,.03Z"/><path d="M133.39,299.51s.05-.02,.05-.05-.02-.05-.05-.05-.05,.02-.05,.05,.02,.05,.05,.05Z"/><circle cx="142.5" cy="300.18" r=".05"/><circle cx="151.7" cy="300.37" r=".05"/><circle cx="160.88" cy="300.03" r=".08"/><circle cx="169.95" cy="299.16" r=".05"/><path d="M178.82,297.82s.05-.02,.05-.05-.02-.05-.05-.05-.05,.02-.05,.05,.02,.05,.05,.05Z"/><circle cx="187.67" cy="296.99" r=".03"/><circle cx="196.67" cy="296.99" r=".03"/></g></g></svg>