<?xml version="1.0" encoding="UTF-8"?><svg id="a" xmlns="http://www.w3.org/2000/svg" xmlns:xlink="http://www.w3.org/1999/xlink" viewBox="0 0 312.16 304.96"><defs><style>.c{fill:#fff;}.d{clip-path:url(#b);}</style><clipPath id="b"><rect class="c" x="18.47" y="15.69" width="288" height="288"/></clipPath></defs><rect class="c" x="18.47" y="15.69" width="288" height="288"/><g class="d"><g><path d="M8.48,2.56c.71,0,1.28-.57,1.28-1.28s-.57-1.28-1.28-1.28-1.28,.57-1.28,1.28,.57,1.28,1.28,1.28Z"/><path d="M22.88,2.56c.71,0,1.28-.57,1.28-1.28s-.57-1.28-1.28-1.28-1.28,.57-1.28,1.28,.57,1.28,1.28,1.28Z"/><path d="M37.28,2.56c.71,0,1.28-.57,1.28-1.28s-.57-1.28-1.28-1.28-1.28,.57-1.28,1.28,.57,1.28,1.28,1.28Z"/><circle cx="51.68" cy="1.28" r="1.28"/><path d="M66.08,2.56c.71,0,1.28-.57,1.28-1.28s-.57-1.28-1.28-1.28-1.28,.57-1.28,1.28,.57,1.28,1.28,1.28Z"/><path d="M80.48,2.56c.71,0,1.28-.57,1.28-1.28s-.57-1.28-1.28-1.28-1.28,.57-1.28,1.28,.57,1.28,1.28,1.28Z"/><path d="M94.88,2.56c.71,0,1.28-.57,1.28-1.28s-.57-1.28-1.28-1.28-1.28,.57-1.28,1.28,.57,1.28,1.28,1.28Z"/><path d="M109.28,2.56c.71,0,1.28-.57,1.28-1.28s-.57-1.28-1.28-1.28-1.28,.57-1.28,1.28,.57,1.28,1.28,1.28Z"/><circle cx="123.68" cy="1.28" r="1.28"/><path d="M138.08,2.56c.71,0,1.28-.57,1.28-1.28s-.57-1.28-1.28-1.28-1.28,.57-1.28,1.28,.57,1.28,1.28,1.28Z"/><path d="M152.48,2.56c.71,0,1.28-.57,1.28-1.28s-.57-1.28-1.28-1.28-1.28,.57-1.28,1.28,.57,1.28,1.28,1.28Z"/><path d="M166.88,2.56c.71,0,1.28-.57,1.28-1.28s-.57-1.28-1.28-1.28-1.28,.57-1.28,1.28,.57,1.28,1.28,1.28Z"/><path d="M181.28,2.56c.71,0,1.28-.57,1.28-1.28s-.57-1.28-1.28-1.28-1.28,.57-1.28,1.28,.57,1.28,1.28,1.28Z"/><circle cx="195.68" cy="1.28" r="1.28"/><path d="M210.08,2.56c.71,0,1.28-.57,1.28-1.28s-.57-1.28-1.28-1.28-1.28,.57-1.28,1.28,.57,1.28,1.28,1.28Z"/><path d="M224.48,2.56c.71,0,1.28-.57,1.28-1.28s-.57-1.28-1.28-1.28-1.28,.57-1.28,1.28,.57,1.28,1.28,1.28Z"/><path d="M238.88,2.56c.71,0,1.28-.57,1.28-1.28s-.57-1.28-1.28-1.28-1.28,.57-1.28,1.28,.57,1.28,1.28,1.28Z"/><path d="M253.28,2.56c.71,0,1.28-.57,1.28-1.28s-.57-1.28-1.28-1.28-1.28,.57-1.28,1.28,.57,1.28,1.28,1.28Z"/><circle cx="267.68" cy="1.28" r="1.28"/><path d="M282.08,2.56c.71,0,1.28-.57,1.28-1.28s-.57-1.28-1.28-1.28-1.28,.57-1.28,1.28,.57,1.28,1.28,1.28Z"/><path d="M296.48,2.56c.71,0,1.28-.57,1.28-1.28s-.57-1.28-1.28-1.28-1.28,.57-1.28,1.28,.57,1.28,1.28,1.28Z"/><path d="M310.88,2.56c.71,0,1.28-.57,1.28-1.28s-.57-1.28-1.28-1.28-1.28,.57-1.28,1.28,.57,1.28,1.28,1.28Z"/><path d="M1.28,16.96c.71,0,1.28-.57,1.28-1.28s-.57-1.28-1.28-1.28-1.28,.57-1.28,1.28,.57,1.28,1.28,1.28Z"/><circle cx="15.68" cy="15.68" r="1.28"/><path d="M30.08,16.96c.71,0,1.28-.57,1.28-1.28s-.57-1.28-1.28-1.28-1.28,.57-1.28,1.28,.57,1.28,1.28,1.28Z"/><path d="M44.48,16.96c.71,0,1.28-.57,1.28-1.28s-.57-1.28-1.28-1.28-1.28,.57-1.28,1.28,.57,1.28,1.28,1.28Z"/><path d="M58.88,16.96c.71,0,1.28-.57,1.28-1.28s-.57-1.28-1.28-1.28-1.28,.57-1.28,1.28,.57,1.28,1.28,1.28Z"/><path d="M73.28,16.96c.71,0,1.28-.57,1.28-1.28s-.57-1.28-1.28-1.28-1.28,.57-1.28,1.28,.57,1.28,1.28,1.28Z"/><circle cx="87.68" cy="15.68" r="1.28"/><path d="M102.08,16.96c.71,0,1.28-.57,1.28-1.28s-.57-1.28-1.28-1.28-1.28,.57-1.28,1.28,.57,1.28,1.28,1.28Z"/><path d="M116.48,16.96c.71,0,1.28-.57,1.28-1.28s-.57-1.28-1.28-1.28-1.28,.57-1.28,1.28,.57,1.28,1.28,1.28Z"/><path d="M130.88,16.96c.71,0,1.28-.57,1.28-1.28s-.57-1.28-1.28-1.28-1.28,.57-1.28,1.28,.57,1.28,1.28,1.28Z"/><path d="M145.28,16.96c.71,0,1.28-.57,1.28-1.28s-.57-1.28-1.28-1.28-1.28,.57-1.28,1.28,.57,1.28,1.28,1.28Z"/><circle cx="159.68" cy="15.68" r="1.28"/><path d="M174.08,16.96c.71,0,1.28-.57,1.28-1.28s-.57-1.28-1.28-1.28-1.28,.57-1.28,1.28,.57,1.28,1.28,1.28Z"/><path d="M188.48,16.96c.71,0,1.28-.57,1.28-1.28s-.57-1.28-1.28-1.28-1.28,.57-1.28,1.28,.57,1.28,1.28,1.28Z"/><path d="M202.88,16.96c.71,0,1.28-.57,1.28-1.28s-.57-1.28-1.28-1.28-1.28,.57-1.28,1.28,.57,1.28,1.28,1.28Z"/><path d="M217.28,16.96c.71,0,1.28-.57,1.28-1.28s-.57-1.28-1.28-1.28-1.28,.57-1.28,1.28,.57,1.28,1.28,1.28Z"/><circle cx="231.68" cy="15.68" r="1.28"/><path d="M246.08,16.96c.71,0,1.28-.57,1.28-1.28s-.57-1.28-1.28-1.28-1.28,.57-1.28,1.28,.57,1.28,1.28,1.28Z"/><path d="M260.48,16.96c.71,0,1.28-.57,1.28-1.28s-.57-1.28-1.28-1.28-1.28,.57-1.28,1.28,.57,1.28,1.28,1.28Z"/><path d="M274.88,16.96c.71,0,1.28-.57,1.28-1.28s-.57-1.28-1.28-1.28-1.28,.57-1.28,1.28,.57,1.28,1.28,1.28Z"/><path d="M289.28,16.96c.71,0,1.28-.57,1.28-1.28s-.57-1.28-1.28-1.28-1.28,.57-1.28,1.28,.57,1.28,1.28,1.28Z"/><circle cx="303.68" cy="15.68" r="1.28"/><path d="M8.48,31.36c.71,0,1.28-.57,1.28-1.28s-.57-1.28-1.28-1.28-1.28,.57-1.28,1.28,.57,1.28,1.28,1.28Z"/><path d="M22.88,31.36c.71,0,1.28-.57,1.28-1.28s-.57-1.28-1.28-1.28-1.28,.57-1.28,1.28,.57,1.28,1.28,1.28Z"/><path d="M37.28,31.36c.71,0,1.28-.57,1.28-1.28s-.57-1.28-1.28-1.28-1.28,.57-1.28,1.28,.57,1.28,1.28,1.28Z"/><path d="M51.68,31.36c.71,0,1.28-.57,1.28-1.28s-.57-1.28-1.28-1.28-1.28,.57-1.28,1.28,.57,1.28,1.28,1.28Z"/><path d="M66.08,31.36c.71,0,1.28-.57,1.28-1.28s-.57-1.28-1.28-1.28-1.28,.57-1.28,1.28,.57,1.28,1.28,1.28Z"/><path d="M80.48,31.36c.71,0,1.28-.57,1.28-1.28s-.57-1.28-1.28-1.28-1.28,.57-1.28,1.28,.57,1.28,1.28,1.28Z"/><path d="M94.88,31.36c.71,0,1.28-.57,1.28-1.28s-.57-1.28-1.28-1.28-1.28,.57-1.28,1.28,.57,1.28,1.28,1.28Z"/><path d="M109.28,31.36c.71,0,1.28-.57,1.28-1.28s-.57-1.28-1.28-1.28-1.28,.57-1.28,1.28,.57,1.28,1.28,1.28Z"/><path d="M123.68,31.36c.71,0,1.28-.57,1.28-1.28s-.57-1.28-1.28-1.28-1.28,.57-1.28,1.28,.57,1.28,1.28,1.28Z"/><path d="M138.08,31.36c.71,0,1.28-.57,1.28-1.28s-.57-1.28-1.28-1.28-1.28,.57-1.28,1.28,.57,1.28,1.28,1.28Z"/><path d="M152.48,31.36c.71,0,1.28-.57,1.28-1.28s-.57-1.28-1.28-1.28-1.28,.57-1.28,1.28,.57,1.28,1.28,1.28Z"/><path d="M166.88,31.36c.71,0,1.28-.57,1.28-1.28s-.57-1.28-1.28-1.28-1.28,.57-1.28,1.28,.57,1.28,1.28,1.28Z"/><path d="M181.28,31.36c.71,0,1.28-.57,1.28-1.28s-.57-1.28-1.28-1.28-1.28,.57-1.28,1.28,.57,1.28,1.28,1.28Z"/><path d="M195.68,31.36c.71,0,1.28-.57,1.28-1.28s-.57-1.28-1.28-1.28-1.28,.57-1.28,1.28,.57,1.28,1.28,1.28Z"/><path d="M210.08,31.36c.71,0,1.28-.57,1.28-1.28s-.57-1.28-1.28-1.28-1.28,.57-1.28,1.28,.57,1.28,1.28,1.28Z"/><path d="M224.48,31.36c.71,0,1.28-.57,1.28-1.28s-.57-1.28-1.28-1.28-1.28,.57-1.28,1.28,.57,1.28,1.28,1.28Z"/><path d="M238.88,31.36c.71,0,1.28-.57,1.28-1.28s-.57-1.28-1.28-1.28-1.28,.57-1.28,1.28,.57,1.28,1.28,1.28Z"/><path d="M253.28,31.36c.71,0,1.28-.57,1.28-1.28s-.57-1.28-1.28-1.28-1.28,.57-1.28,1.28,.57,1.28,1.28,1.28Z"/><path d="M267.68,31.36c.71,0,1.28-.57,1.28-1.28s-.57-1.28-1.28-1.28-1.28,.57-1.28,1.28,.57,1.28,1.28,1.28Z"/><path d="M282.08,31.36c.71,0,1.28-.57,1.28-1.28s-.57-1.28-1.28-1.28-1.28,.57-1.28,1.28,.57,1.28,1.28,1.28Z"/><path d="M296.48,31.36c.71,0,1.28-.57,1.28-1.28s-.57-1.28-1.28-1.28-1.28,.57-1.28,1.28,.57,1.28,1.28,1.28Z"/><path d="M310.88,31.36c.71,0,1.28-.57,1.28-1.28s-.57-1.28-1.28-1.28-1.28,.57-1.28,1.28,.57,1.28,1.28,1.28Z"/><path d="M1.28,45.76c.71,0,1.28-.57,1.28-1.28s-.57-1.28-1.28-1.28-1.28,.57-1.28,1.28,.57,1.28,1.28,1.28Z"/><path d="M15.68,45.76c.71,0,1.28-.57,1.28-1.28s-.57-1.28-1.28-1.28-1.28,.57-1.28,1.28,.57,1.28,1.28,1.28Z"/><path d="M30.08,45.76c.71,0,1.28-.57,1.28-1.28s-.57-1.28-1.28-1.28-1.28,.57-1.28,1.28,.57,1.28,1.28,1.28Z"/><path d="M44.48,45.76c.71,0,1.28-.57,1.28-1.28s-.57-1.28-1.28-1.28-1.28,.57-1.28,1.28,.57,1.28,1.28,1.28Z"/><path d="M58.88,45.76c.71,0,1.28-.57,1.28-1.28s-.57-1.28-1.28-1.28-1.28,.57-1.28,1.28,.57,1.28,1.28,1.28Z"/><path d="M73.28,45.76c.71,0,1.28-.57,1.28-1.28s-.57-1.28-1.28-1.28-1.28,.57-1.28,1.28,.57,1.28,1.28,1.28Z"/><path d="M87.68,45.76c.71,0,1.28-.57,1.28-1.28s-.57-1.28-1.28-1.28-1.28,.57-1.28,1.28,.57,1.28,1.28,1.28Z"/><path d="M102.08,45.76c.71,0,1.28-.57,1.28-1.28s-.57-1.28-1.28-1.28-1.28,.57-1.28,1.28,.57,1.28,1.28,1.28Z"/><path d="M116.48,45.76c.71,0,1.28-.57,1.28-1.28s-.57-1.28-1.28-1.28-1.28,.57-1.28,1.28,.57,1.28,1.28,1.28Z"/><path d="M130.88,45.76c.71,0,1.28-.57,1.28-1.28s-.57-1.28-1.28-1.28-1.28,.57-1.28,1.28,.57,1.28,1.28,1.28Z"/><path d="M145.28,45.76c.71,0,1.28-.57,1.28-1.28s-.57-1.28-1.28-1.28-1.28,.57-1.28,1.28,.57,1.28,1.28,1.28Z"/><path d="M159.68,45.76c.71,0,1.28-.57,1.28-1.28s-.57-1.28-1.28-1.28-1.28,.57-1.28,1.28,.57,1.28,1.28,1.28Z"/><path d="M174.08,45.76c.71,0,1.28-.57,1.28-1.28s-.57-1.28-1.28-1.28-1.28,.57-1.28,1.28,.57,1.28,1.28,1.28Z"/><path d="M188.48,45.76c.71,0,1.28-.57,1.28-1.28s-.57-1.28-1.28-1.28-1.28,.57-1.28,1.28,.57,1.28,1.28,1.28Z"/><path d="M202.88,45.76c.71,0,1.28-.57,1.28-1.28s-.57-1.28-1.28-1.28-1.28,.57-1.28,1.28,.57,1.28,1.28,1.28Z"/><path d="M217.28,45.76c.71,0,1.28-.57,1.28-1.28s-.57-1.28-1.28-1.28-1.28,.57-1.28,1.28,.57,1.28,1.28,1.28Z"/><path d="M231.68,45.76c.71,0,1.28-.57,1.28-1.28s-.57-1.28-1.28-1.28-1.28,.57-1.28,1.28,.57,1.28,1.28,1.28Z"/><path d="M246.08,45.76c.71,0,1.28-.57,1.28-1.28s-.57-1.28-1.28-1.28-1.28,.57-1.28,1.28,.57,1.28,1.28,1.28Z"/><path d="M260.48,45.76c.71,0,1.28-.57,1.28-1.28s-.57-1.28-1.28-1.28-1.28,.57-1.28,1.28,.57,1.28,1.28,1.28Z"/><path d="M274.88,45.76c.71,0,1.28-.57,1.28-1.28s-.57-1.28-1.28-1.28-1.28,.57-1.28,1.28,.57,1.28,1.28,1.28Z"/><path d="M289.28,45.76c.71,0,1.28-.57,1.28-1.28s-.57-1.28-1.28-1.28-1.28,.57-1.28,1.28,.57,1.28,1.28,1.28Z"/><path d="M303.68,45.76c.71,0,1.28-.57,1.28-1.28s-.57-1.28-1.28-1.28-1.28,.57-1.28,1.28,.57,1.28,1.28,1.28Z"/><path d="M8.48,60.16c.71,0,1.28-.57,1.28-1.28s-.57-1.28-1.28-1.28-1.28,.57-1.28,1.28,.57,1.28,1.28,1.28Z"/><path d="M22.88,60.16c.71,0,1.28-.57,1.28-1.28s-.57-1.28-1.28-1.28-1.28,.57-1.28,1.28,.57,1.28,1.28,1.28Z"/><path d="M37.28,60.16c.71,0,1.28-.57,1.28-1.28s-.57-1.28-1.28-1.28-1.28,.57-1.28,1.28,.57,1.28,1.28,1.28Z"/><path d="M51.68,60.16c.71,0,1.28-.57,1.28-1.28s-.57-1.28-1.28-1.28-1.28,.57-1.28,1.28,.57,1.28,1.28,1.28Z"/><path d="M66.08,60.16c.71,0,1.28-.57,1.28-1.28s-.57-1.28-1.28-1.28-1.28,.57-1.28,1.28,.57,1.28,1.28,1.28Z"/><path d="M80.48,60.16c.71,0,1.28-.57,1.28-1.28s-.57-1.28-1.28-1.28-1.28,.57-1.28,1.28,.57,1.28,1.28,1.28Z"/><path d="M94.88,60.16c.71,0,1.28-.57,1.28-1.28s-.57-1.28-1.28-1.28-1.28,.57-1.28,1.28,.57,1.28,1.28,1.28Z"/><path d="M109.28,60.16c.71,0,1.28-.57,1.28-1.28s-.57-1.28-1.28-1.28-1.28,.57-1.28,1.28,.57,1.28,1.28,1.28Z"/><path d="M123.68,60.16c.71,0,1.28-.57,1.28-1.28s-.57-1.28-1.28-1.28-1.28,.57-1.28,1.28,.57,1.28,1.28,1.28Z"/><path d="M138.08,60.16c.71,0,1.28-.57,1.28-1.28s-.57-1.28-1.28-1.28-1.28,.57-1.28,1.28,.57,1.28,1.28,1.28Z"/><path d="M152.48,60.16c.71,0,1.28-.57,1.28-1.28s-.57-1.28-1.28-1.28-1.28,.57-1.28,1.28,.57,1.28,1.28,1.28Z"/><path d="M166.88,60.16c.71,0,1.28-.57,1.28-1.28s-.57-1.28-1.28-1.28-1.28,.57-1.28,1.28,.57,1.28,1.28,1.28Z"/><path d="M181.28,60.16c.71,0,1.28-.57,1.28-1.28s-.57-1.28-1.28-1.28-1.28,.57-1.28,1.28,.57,1.28,1.28,1.28Z"/><path d="M195.68,60.16c.71,0,1.28-.57,1.28-1.28s-.57-1.28-1.28-1.28-1.28,.57-1.28,1.28,.57,1.28,1.28,1.28Z"/><path d="M210.08,60.16c.71,0,1.28-.57,1.28-1.28s-.57-1.28-1.28-1.28-1.28,.57-1.28,1.28,.57,1.28,1.28,1.28Z"/><path d="M224.48,60.16c.71,0,1.28-.57,1.28-1.28s-.57-1.28-1.28-1.28-1.28,.57-1.28,1.28,.57,1.28,1.28,1.28Z"/><path d="M238.88,60.16c.71,0,1.28-.57,1.28-1.28s-.57-1.28-1.28-1.28-1.28,.57-1.28,1.28,.57,1.28,1.28,1.28Z"/><path d="M253.28,60.16c.71,0,1.28-.57,1.28-1.28s-.57-1.28-1.28-1.28-1.28,.57-1.28,1.28,.57,1.28,1.28,1.28Z"/><path d="M267.68,60.16c.71,0,1.28-.57,1.28-1.28s-.57-1.28-1.28-1.28-1.28,.57-1.28,1.28,.57,1.28,1.28,1.28Z"/><path d="M282.08,60.16c.71,0,1.28-.57,1.28-1.28s-.57-1.28-1.28-1.28-1.28,.57-1.28,1.28,.57,1.28,1.28,1.28Z"/><path d="M296.48,60.16c.71,0,1.28-.57,1.28-1.28s-.57-1.28-1.28-1.28-1.28,.57-1.28,1.28,.57,1.28,1.28,1.28Z"/><path d="M310.88,60.16c.71,0,1.28-.57,1.28-1.28s-.57-1.28-1.28-1.28-1.28,.57-1.28,1.28,.57,1.28,1.28,1.28Z"/><path d="M1.28,74.56c.71,0,1.28-.57,1.28-1.28s-.57-1.28-1.28-1.28-1.28,.57-1.28,1.28,.57,1.28,1.28,1.28Z"/><circle cx="15.68" cy="73.28" r="1.28"/><path d="M30.08,74.56c.71,0,1.28-.57,1.28-1.28s-.57-1.28-1.28-1.28-1.28,.57-1.28,1.28,.57,1.28,1.28,1.28Z"/><path d="M44.48,74.56c.71,0,1.28-.57,1.28-1.28s-.57-1.28-1.28-1.28-1.28,.57-1.28,1.28,.57,1.28,1.28,1.28Z"/><path d="M58.88,74.56c.71,0,1.28-.57,1.28-1.28s-.57-1.28-1.28-1.28-1.28,.57-1.28,1.28,.57,1.28,1.28,1.28Z"/><path d="M73.28,74.56c.71,0,1.28-.57,1.28-1.28s-.57-1.28-1.28-1.28-1.28,.57-1.28,1.28,.57,1.28,1.28,1.28Z"/><circle cx="87.68" cy="73.28" r="1.28"/><path d="M102.08,74.56c.71,0,1.28-.57,1.28-1.28s-.57-1.28-1.28-1.28-1.28,.57-1.28,1.28,.57,1.28,1.28,1.28Z"/><path d="M116.48,74.56c.71,0,1.28-.57,1.28-1.28s-.57-1.28-1.28-1.28-1.28,.57-1.28,1.28,.57,1.28,1.28,1.28Z"/><path d="M130.88,74.56c.71,0,1.28-.57,1.28-1.28s-.57-1.28-1.28-1.28-1.28,.57-1.28,1.28,.57,1.28,1.28,1.28Z"/><path d="M145.28,74.56c.71,0,1.28-.57,1.28-1.28s-.57-1.28-1.28-1.28-1.28,.57-1.28,1.28,.57,1.28,1.28,1.28Z"/><circle cx="159.68" cy="73.28" r="1.28"/><path d="M174.08,74.56c.71,0,1.28-.57,1.28-1.28s-.57-1.28-1.28-1.28-1.28,.57-1.28,1.28,.57,1.28,1.28,1.28Z"/><path d="M188.48,74.56c.71,0,1.28-.57,1.28-1.28s-.57-1.28-1.28-1.28-1.28,.57-1.28,1.28,.57,1.28,1.28,1.28Z"/><path d="M202.88,74.56c.71,0,1.28-.57,1.28-1.28s-.57-1.28-1.28-1.28-1.28,.57-1.28,1.28,.57,1.28,1.28,1.28Z"/><path d="M217.28,74.56c.71,0,1.28-.57,1.28-1.28s-.57-1.28-1.28-1.28-1.28,.57-1.28,1.28,.57,1.28,1.28,1.28Z"/><circle cx="231.68" cy="73.28" r="1.28"/><path d="M246.08,74.56c.71,0,1.28-.57,1.28-1.28s-.57-1.28-1.28-1.28-1.28,.57-1.28,1.28,.57,1.28,1.28,1.28Z"/><path d="M260.48,74.56c.71,0,1.28-.57,1.28-1.28s-.57-1.28-1.28-1.28-1.28,.57-1.28,1.28,.57,1.28,1.28,1.28Z"/><path d="M274.88,74.56c.71,0,1.28-.57,1.28-1.28s-.57-1.28-1.28-1.28-1.28,.57-1.28,1.28,.57,1.28,1.28,1.28Z"/><path d="M289.28,74.56c.71,0,1.28-.57,1.28-1.28s-.57-1.28-1.28-1.28-1.28,.57-1.28,1.28,.57,1.28,1.28,1.28Z"/><circle cx="303.68" cy="73.28" r="1.28"/><path d="M8.48,88.96c.71,0,1.28-.57,1.28-1.28s-.57-1.28-1.28-1.28-1.28,.57-1.28,1.28,.57,1.28,1.28,1.28Z"/><path d="M22.88,88.96c.71,0,1.28-.57,1.28-1.28s-.57-1.28-1.28-1.28-1.28,.57-1.28,1.28,.57,1.28,1.28,1.28Z"/><path d="M37.28,88.96c.71,0,1.28-.57,1.28-1.28s-.57-1.28-1.28-1.28-1.28,.57-1.28,1.28,.57,1.28,1.28,1.28Z"/><circle cx="51.68" cy="87.68" r="1.28"/><path d="M66.08,88.96c.71,0,1.28-.57,1.28-1.28s-.57-1.28-1.28-1.28-1.28,.57-1.28,1.28,.57,1.28,1.28,1.28Z"/><path d="M80.48,88.96c.71,0,1.28-.57,1.28-1.28s-.57-1.28-1.28-1.28-1.28,.57-1.28,1.28,.57,1.28,1.28,1.28Z"/><path d="M94.88,88.96c.71,0,1.28-.57,1.28-1.28s-.57-1.28-1.28-1.28-1.28,.57-1.28,1.28,.57,1.28,1.28,1.28Z"/><path d="M109.28,88.96c.71,0,1.28-.57,1.28-1.28s-.57-1.28-1.28-1.28-1.28,.57-1.28,1.28,.57,1.28,1.28,1.28Z"/><circle cx="123.68" cy="87.68" r="1.28"/><path d="M138.08,88.96c.71,0,1.28-.57,1.28-1.28s-.57-1.28-1.28-1.28-1.28,.57-1.28,1.28,.57,1.28,1.28,1.28Z"/><path d="M152.48,88.96c.71,0,1.28-.57,1.28-1.28s-.57-1.28-1.28-1.28-1.28,.57-1.28,1.28,.57,1.28,1.28,1.28Z"/><path d="M166.88,88.96c.71,0,1.28-.57,1.28-1.28s-.57-1.28-1.28-1.28-1.28,.57-1.28,1.28,.57,1.28,1.28,1.28Z"/><path d="M181.28,88.96c.71,0,1.28-.57,1.28-1.28s-.57-1.28-1.28-1.28-1.28,.57-1.28,1.28,.57,1.28,1.28,1.28Z"/><circle cx="195.68" cy="87.68" r="1.28"/><path d="M210.08,88.96c.71,0,1.28-.57,1.28-1.28s-.57-1.28-1.28-1.28-1.28,.57-1.28,1.28,.57,1.28,1.28,1.28Z"/><path d="M224.48,88.96c.71,0,1.28-.57,1.28-1.28s-.57-1.28-1.28-1.28-1.28,.57-1.28,1.28,.57,1.28,1.28,1.28Z"/><path d="M238.88,88.96c.71,0,1.28-.57,1.28-1.28s-.57-1.28-1.28-1.28-1.28,.57-1.28,1.28,.57,1.28,1.28,1.28Z"/><path d="M253.28,88.96c.71,0,1.28-.57,1.28-1.28s-.57-1.28-1.28-1.28-1.28,.57-1.28,1.28,.57,1.28,1.28,1.28Z"/><circle cx="267.68" cy="87.68" r="1.28"/><path d="M282.08,88.96c.71,0,1.28-.57,1.28-1.28s-.57-1.28-1.28-1.28-1.28,.57-1.28,1.28,.57,1.28,1.28,1.28Z"/><path d="M296.48,88.96c.71,0,1.28-.57,1.28-1.28s-.57-1.28-1.28-1.28-1.28,.57-1.28,1.28,.57,1.28,1.28,1.28Z"/><path d="M310.88,88.96c.71,0,1.28-.57,1.28-1.28s-.57-1.28-1.28-1.28-1.28,.57-1.28,1.28,.57,1.28,1.28,1.28Z"/><path d="M1.28,103.36c.71,0,1.28-.57,1.28-1.28s-.57-1.28-1.28-1.28-1.28,.57-1.28,1.28,.57,1.28,1.28,1.28Z"/><path d="M15.68,103.36c.71,0,1.28-.57,1.28-1.28s-.57-1.28-1.28-1.28-1.28,.57-1.28,1.28,.57,1.28,1.28,1.28Z"/><path d="M30.08,103.36c.71,0,1.28-.57,1.28-1.28s-.57-1.28-1.28-1.28-1.28,.57-1.28,1.28,.57,1.28,1.28,1.28Z"/><path d="M44.48,103.36c.71,0,1.28-.57,1.28-1.28s-.57-1.28-1.28-1.28-1.28,.57-1.28,1.28,.57,1.28,1.28,1.28Z"/><path d="M58.88,103.36c.71,0,1.28-.57,1.28-1.28s-.57-1.28-1.28-1.28-1.28,.57-1.28,1.28,.57,1.28,1.28,1.28Z"/><path d="M73.28,103.36c.71,0,1.28-.57,1.28-1.28s-.57-1.28-1.28-1.28-1.28,.57-1.28,1.28,.57,1.28,1.28,1.28Z"/><path d="M87.68,103.36c.71,0,1.28-.57,1.28-1.28s-.57-1.28-1.28-1.28-1.28,.57-1.28,1.28,.57,1.28,1.28,1.28Z"/><path d="M102.08,103.36c.71,0,1.28-.57,1.28-1.28s-.57-1.28-1.28-1.28-1.28,.57-1.28,1.28,.57,1.28,1.28,1.28Z"/><path d="M116.48,103.36c.71,0,1.28-.57,1.28-1.28s-.57-1.28-1.28-1.28-1.28,.57-1.28,1.28,.57,1.28,1.28,1.28Z"/><path d="M130.88,103.36c.71,0,1.28-.57,1.28-1.28s-.57-1.28-1.28-1.28-1.28,.57-1.28,1.28,.57,1.28,1.28,1.28Z"/><path d="M145.28,103.36c.71,0,1.28-.57,1.28-1.28s-.57-1.28-1.28-1.28-1.28,.57-1.28,1.28,.57,1.28,1.28,1.28Z"/><path d="M159.68,103.36c.71,0,1.28-.57,1.28-1.28s-.57-1.28-1.28-1.28-1.28,.57-1.28,1.28,.57,1.28,1.28,1.28Z"/><path d="M174.08,103.36c.71,0,1.28-.57,1.28-1.28s-.57-1.28-1.28-1.28-1.28,.57-1.28,1.28,.57,1.28,1.28,1.28Z"/><path d="M188.48,103.36c.71,0,1.28-.57,1.28-1.28s-.57-1.28-1.28-1.28-1.28,.57-1.28,1.28,.57,1.28,1.28,1.28Z"/><path d="M202.88,103.36c.71,0,1.28-.57,1.28-1.28s-.57-1.28-1.28-1.28-1.28,.57-1.28,1.28,.57,1.28,1.28,1.28Z"/><path d="M217.28,103.36c.71,0,1.28-.57,1.28-1.28s-.57-1.28-1.28-1.28-1.28,.57-1.28,1.28,.57,1.28,1.28,1.28Z"/><path d="M231.68,103.36c.71,0,1.28-.57,1.28-1.28s-.57-1.28-1.28-1.28-1.28,.57-1.28,1.28,.57,1.28,1.28,1.28Z"/><path d="M246.08,103.36c.71,0,1.28-.57,1.28-1.28s-.57-1.28-1.28-1.28-1.28,.57-1.28,1.28,.57,1.28,1.28,1.28Z"/><path d="M260.48,103.36c.71,0,1.28-.57,1.28-1.28s-.57-1.28-1.28-1.28-1.28,.57-1.28,1.28,.57,1.28,1.28,1.28Z"/><path d="M274.88,103.36c.71,0,1.28-.57,1.28-1.28s-.57-1.28-1.28-1.28-1.28,.57-1.28,1.28,.57,1.28,1.28,1.28Z"/><path d="M289.28,103.36c.71,0,1.28-.57,1.28-1.28s-.57-1.28-1.28-1.28-1.28,.57-1.28,1.28,.57,1.28,1.28,1.28Z"/><path d="M303.68,103.36c.71,0,1.28-.57,1.28-1.28s-.57-1.28-1.28-1.28-1.28,.57-1.28,1.28,.57,1.28,1.28,1.28Z"/><path d="M8.48,117.76c.71,0,1.28-.57,1.28-1.28s-.57-1.28-1.28-1.28-1.28,.57-1.28,1.28,.57,1.28,1.28,1.28Z"/><path d="M22.88,117.76c.71,0,1.28-.57,1.28-1.28s-.57-1.28-1.28-1.28-1.28,.57-1.28,1.28,.57,1.28,1.28,1.28Z"/><path d="M37.28,117.76c.71,0,1.28-.57,1.28-1.28s-.57-1.28-1.28-1.28-1.28,.57-1.28,1.28,.57,1.28,1.28,1.28Z"/><path d="M51.68,117.76c.71,0,1.28-.57,1.28-1.28s-.57-1.28-1.28-1.28-1.28,.57-1.28,1.28,.57,1.28,1.28,1.28Z"/><path d="M66.08,117.76c.71,0,1.28-.57,1.28-1.28s-.57-1.28-1.28-1.28-1.28,.57-1.28,1.28,.57,1.28,1.28,1.28Z"/><path d="M80.48,117.76c.71,0,1.28-.57,1.28-1.28s-.57-1.28-1.28-1.28-1.28,.57-1.28,1.28,.57,1.28,1.28,1.28Z"/><path d="M94.88,117.76c.71,0,1.28-.57,1.28-1.28s-.57-1.28-1.28-1.28-1.28,.57-1.28,1.28,.57,1.28,1.28,1.28Z"/><path d="M109.28,117.76c.71,0,1.28-.57,1.28-1.28s-.57-1.28-1.28-1.28-1.28,.57-1.28,1.28,.57,1.28,1.28,1.28Z"/><path d="M123.68,117.76c.71,0,1.28-.57,1.28-1.28s-.57-1.28-1.28-1.28-1.28,.57-1.28,1.28,.57,1.28,1.28,1.28Z"/><path d="M138.08,117.76c.71,0,1.28-.57,1.28-1.28s-.57-1.28-1.28-1.28-1.28,.57-1.28,1.28,.57,1.28,1.28,1.28Z"/><path d="M152.48,117.76c.71,0,1.28-.57,1.28-1.28s-.57-1.28-1.28-1.28-1.28,.57-1.28,1.28,.57,1.28,1.28,1.28Z"/><path d="M166.88,117.76c.71,0,1.28-.57,1.28-1.28s-.57-1.28-1.28-1.28-1.28,.57-1.28,1.28,.57,1.28,1.28,1.28Z"/><path d="M181.28,117.76c.71,0,1.28-.57,1.28-1.28s-.57-1.28-1.28-1.28-1.28,.57-1.28,1.28,.57,1.28,1.28,1.28Z"/><path d="M195.68,117.76c.71,0,1.28-.57,1.28-1.28s-.57-1.28-1.28-1.28-1.28,.57-1.28,1.28,.57,1.28,1.28,1.28Z"/><path d="M210.08,117.76c.71,0,1.28-.57,1.28-1.28s-.57-1.28-1.28-1.28-1.28,.57-1.28,1.28,.57,1.28,1.28,1.28Z"/><path d="M224.48,117.76c.71,0,1.28-.57,1.28-1.28s-.57-1.28-1.28-1.28-1.28,.57-1.28,1.28,.57,1.28,1.28,1.28Z"/><path d="M238.88,117.76c.71,0,1.28-.57,1.28-1.28s-.57-1.28-1.28-1.28-1.28,.57-1.28,1.28,.57,1.28,1.28,1.28Z"/><path d="M253.28,117.76c.71,0,1.28-.57,1.28-1.28s-.57-1.28-1.28-1.28-1.28,.57-1.28,1.28,.57,1.28,1.28,1.28Z"/><path d="M267.68,117.76c.71,0,1.28-.57,1.28-1.28s-.57-1.28-1.28-1.28-1.28,.57-1.28,1.28,.57,1.28,1.28,1.28Z"/><path d="M282.08,117.76c.71,0,1.28-.57,1.28-1.28s-.57-1.28-1.28-1.28-1.28,.57-1.28,1.28,.57,1.28,1.28,1.28Z"/><path d="M296.48,117.76c.71,0,1.28-.57,1.28-1.28s-.57-1.28-1.28-1.28-1.28,.57-1.28,1.28,.57,1.28,1.28,1.28Z"/><path d="M310.88,117.76c.71,0,1.28-.57,1.28-1.28s-.57-1.28-1.28-1.28-1.28,.57-1.28,1.28,.57,1.28,1.28,1.28Z"/><path d="M1.28,132.16c.71,0,1.28-.57,1.28-1.28s-.57-1.28-1.28-1.28-1.28,.57-1.28,1.28,.57,1.28,1.28,1.28Z"/><path d="M15.68,132.16c.71,0,1.28-.57,1.28-1.28s-.57-1.28-1.28-1.28-1.28,.57-1.28,1.28,.57,1.28,1.28,1.28Z"/><path d="M30.08,132.16c.71,0,1.28-.57,1.28-1.28s-.57-1.28-1.28-1.28-1.28,.57-1.28,1.28,.57,1.28,1.28,1.28Z"/><path d="M44.48,132.16c.71,0,1.28-.57,1.28-1.28s-.57-1.28-1.28-1.28-1.28,.57-1.28,1.28,.57,1.28,1.28,1.28Z"/><path d="M58.88,132.16c.71,0,1.28-.57,1.28-1.28s-.57-1.28-1.28-1.28-1.28,.57-1.28,1.28,.57,1.28,1.28,1.28Z"/><path d="M73.28,132.16c.71,0,1.28-.57,1.28-1.28s-.57-1.28-1.28-1.28-1.28,.57-1.28,1.28,.57,1.28,1.28,1.28Z"/><path d="M87.68,132.16c.71,0,1.28-.57,1.28-1.28s-.57-1.28-1.28-1.28-1.28,.57-1.28,1.28,.57,1.28,1.28,1.28Z"/><path d="M102.08,132.16c.71,0,1.28-.57,1.28-1.28s-.57-1.28-1.28-1.28-1.28,.57-1.28,1.28,.57,1.28,1.28,1.28Z"/><path d="M116.48,132.16c.71,0,1.28-.57,1.28-1.28s-.57-1.28-1.28-1.28-1.28,.57-1.28,1.28,.57,1.28,1.28,1.28Z"/><path d="M130.88,132.16c.71,0,1.28-.57,1.28-1.28s-.57-1.28-1.28-1.28-1.28,.57-1.28,1.28,.57,1.28,1.28,1.28Z"/><path d="M145.28,132.16c.71,0,1.28-.57,1.28-1.28s-.57-1.28-1.28-1.28-1.28,.57-1.28,1.28,.57,1.28,1.28,1.28Z"/><path d="M159.68,132.16c.71,0,1.28-.57,1.28-1.28s-.57-1.28-1.28-1.28-1.28,.57-1.28,1.28,.57,1.28,1.28,1.28Z"/><path d="M174.08,132.16c.71,0,1.28-.57,1.28-1.28s-.57-1.28-1.28-1.28-1.28,.57-1.28,1.28,.57,1.28,1.28,1.28Z"/><path d="M188.48,132.16c.71,0,1.28-.57,1.28-1.28s-.57-1.28-1.28-1.28-1.28,.57-1.28,1.28,.57,1.28,1.28,1.28Z"/><path d="M202.88,132.16c.71,0,1.28-.57,1.28-1.28s-.57-1.28-1.28-1.28-1.28,.57-1.28,1.28,.57,1.28,1.28,1.28Z"/><path d="M217.28,132.16c.71,0,1.28-.57,1.28-1.28s-.57-1.28-1.28-1.28-1.28,.57-1.28,1.28,.57,1.28,1.28,1.28Z"/><path d="M231.68,132.16c.71,0,1.28-.57,1.28-1.28s-.57-1.28-1.28-1.28-1.28,.57-1.28,1.28,.57,1.28,1.28,1.28Z"/><path d="M246.08,132.16c.71,0,1.28-.57,1.28-1.28s-.57-1.28-1.28-1.28-1.28,.57-1.28,1.28,.57,1.28,1.28,1.28Z"/><path d="M260.48,132.16c.71,0,1.28-.57,1.28-1.28s-.57-1.28-1.28-1.28-1.28,.57-1.28,1.28,.57,1.28,1.28,1.28Z"/><path d="M274.88,132.16c.71,0,1.28-.57,1.28-1.28s-.57-1.28-1.28-1.28-1.28,.57-1.28,1.28,.57,1.28,1.28,1.28Z"/><path d="M289.28,132.16c.71,0,1.28-.57,1.28-1.28s-.57-1.28-1.28-1.28-1.28,.57-1.28,1.28,.57,1.28,1.28,1.28Z"/><path d="M303.68,132.16c.71,0,1.28-.57,1.28-1.28s-.57-1.28-1.28-1.28-1.28,.57-1.28,1.28,.57,1.28,1.28,1.28Z"/><path d="M8.48,146.56c.71,0,1.28-.57,1.28-1.28s-.57-1.28-1.28-1.28-1.28,.57-1.28,1.28,.57,1.28,1.28,1.28Z"/><path d="M22.88,146.56c.71,0,1.28-.57,1.28-1.28s-.57-1.28-1.28-1.28-1.28,.57-1.28,1.28,.57,1.28,1.28,1.28Z"/><path d="M37.28,146.56c.71,0,1.28-.57,1.28-1.28s-.57-1.28-1.28-1.28-1.28,.57-1.28,1.28,.57,1.28,1.28,1.28Z"/><circle cx="51.68" cy="145.28" r="1.28"/><path d="M66.08,146.56c.71,0,1.28-.57,1.28-1.28s-.57-1.28-1.28-1.28-1.28,.57-1.28,1.28,.57,1.28,1.28,1.28Z"/><path d="M80.48,146.56c.71,0,1.28-.57,1.28-1.28s-.57-1.28-1.28-1.28-1.28,.57-1.28,1.28,.57,1.28,1.28,1.28Z"/><path d="M94.88,146.56c.71,0,1.28-.57,1.28-1.28s-.57-1.28-1.28-1.28-1.28,.57-1.28,1.28,.57,1.28,1.28,1.28Z"/><path d="M109.28,146.56c.71,0,1.28-.57,1.28-1.28s-.57-1.28-1.28-1.28-1.28,.57-1.28,1.28,.57,1.28,1.28,1.28Z"/><circle cx="123.68" cy="145.28" r="1.28"/><path d="M138.08,146.56c.71,0,1.28-.57,1.28-1.28s-.57-1.28-1.28-1.28-1.28,.57-1.28,1.28,.57,1.28,1.28,1.28Z"/><path d="M152.48,146.56c.71,0,1.28-.57,1.28-1.28s-.57-1.28-1.28-1.28-1.28,.57-1.28,1.28,.57,1.28,1.28,1.28Z"/><path d="M166.88,146.56c.71,0,1.28-.57,1.28-1.28s-.57-1.28-1.28-1.28-1.28,.57-1.28,1.28,.57,1.28,1.28,1.28Z"/><path d="M181.28,146.56c.71,0,1.28-.57,1.28-1.28s-.57-1.28-1.28-1.28-1.28,.57-1.28,1.28,.57,1.28,1.28,1.28Z"/><circle cx="195.68" cy="145.28" r="1.28"/><path d="M210.08,146.56c.71,0,1.28-.57,1.28-1.28s-.57-1.28-1.28-1.28-1.28,.57-1.28,1.28,.57,1.28,1.28,1.28Z"/><path d="M224.48,146.56c.71,0,1.28-.57,1.28-1.28s-.57-1.28-1.28-1.28-1.28,.57-1.28,1.28,.57,1.28,1.28,1.28Z"/><path d="M238.88,146.56c.71,0,1.28-.57,1.28-1.28s-.57-1.28-1.28-1.28-1.28,.57-1.28,1.28,.57,1.28,1.28,1.28Z"/><path d="M253.28,146.56c.71,0,1.28-.57,1.28-1.28s-.57-1.28-1.28-1.28-1.28,.57-1.28,1.28,.57,1.28,1.28,1.28Z"/><circle cx="267.68" cy="145.28" r="1.28"/><path d="M282.08,146.56c.71,0,1.28-.57,1.28-1.28s-.57-1.28-1.28-1.28-1.28,.57-1.28,1.28,.57,1.28,1.28,1.28Z"/><path d="M296.48,146.56c.71,0,1.28-.57,1.28-1.28s-.57-1.28-1.28-1.28-1.28,.57-1.28,1.28,.57,1.28,1.28,1.28Z"/><path d="M310.88,146.56c.71,0,1.28-.57,1.28-1.28s-.57-1.28-1.28-1.28-1.28,.57-1.28,1.28,.57,1.28,1.28,1.28Z"/><path d="M1.28,160.96c.71,0,1.28-.57,1.28-1.28s-.57-1.28-1.28-1.28-1.28,.57-1.28,1.28,.57,1.28,1.28,1.28Z"/><circle cx="15.68" cy="159.68" r="1.28"/><path d="M30.08,160.96c.71,0,1.28-.57,1.28-1.28s-.57-1.28-1.28-1.28-1.28,.57-1.28,1.28,.57,1.28,1.28,1.28Z"/><path d="M44.48,160.96c.71,0,1.28-.57,1.28-1.28s-.57-1.28-1.28-1.28-1.28,.57-1.28,1.28,.57,1.28,1.28,1.28Z"/><path d="M58.88,160.96c.71,0,1.28-.57,1.28-1.28s-.57-1.28-1.28-1.28-1.28,.57-1.28,1.28,.57,1.28,1.28,1.28Z"/><path d="M73.28,160.96c.71,0,1.28-.57,1.28-1.28s-.57-1.28-1.28-1.28-1.28,.57-1.28,1.28,.57,1.28,1.28,1.28Z"/><circle cx="87.68" cy="159.68" r="1.28"/><path d="M102.08,160.96c.71,0,1.28-.57,1.28-1.28s-.57-1.28-1.28-1.28-1.28,.57-1.28,1.28,.57,1.28,1.28,1.28Z"/><path d="M116.48,160.96c.71,0,1.28-.57,1.28-1.28s-.57-1.28-1.28-1.28-1.28,.57-1.28,1.28,.57,1.28,1.28,1.28Z"/><path d="M130.88,160.96c.71,0,1.28-.57,1.28-1.28s-.57-1.28-1.28-1.28-1.28,.57-1.28,1.28,.57,1.28,1.28,1.28Z"/><path d="M145.28,160.96c.71,0,1.28-.57,1.28-1.28s-.57-1.28-1.28-1.28-1.28,.57-1.28,1.28,.57,1.28,1.28,1.28Z"/><circle cx="159.68" cy="159.68" r="1.28"/><path d="M174.08,160.96c.71,0,1.28-.57,1.28-1.28s-.57-1.28-1.28-1.28-1.28,.57-1.28,1.28,.57,1.28,1.28,1.28Z"/><path d="M188.48,160.96c.71,0,1.28-.57,1.28-1.28s-.57-1.28-1.28-1.28-1.28,.57-1.28,1.28,.57,1.28,1.28,1.28Z"/><path d="M202.88,160.96c.71,0,1.28-.57,1.28-1.28s-.57-1.28-1.28-1.28-1.28,.57-1.28,1.28,.57,1.28,1.28,1.28Z"/><path d="M217.28,160.96c.71,0,1.28-.57,1.28-1.28s-.57-1.28-1.28-1.28-1.28,.57-1.28,1.28,.57,1.28,1.28,1.28Z"/><circle cx="231.68" cy="159.68" r="1.28"/><path d="M246.08,160.96c.71,0,1.28-.57,1.28-1.28s-.57-1.28-1.28-1.28-1.28,.57-1.28,1.28,.57,1.28,1.28,1.28Z"/><path d="M260.48,160.96c.71,0,1.28-.57,1.28-1.28s-.57-1.28-1.28-1.28-1.28,.57-1.28,1.28,.57,1.28,1.28,1.28Z"/><path d="M274.88,160.96c.71,0,1.28-.57,1.28-1.28s-.57-1.28-1.28-1.28-1.28,.57-1.28,1.28,.57,1.28,1.28,1.28Z"/><path d="M289.28,160.96c.71,0,1.28-.57,1.28-1.28s-.57-1.28-1.28-1.28-1.28,.57-1.28,1.28,.57,1.28,1.28,1.28Z"/><circle cx="303.68" cy="159.68" r="1.28"/><path d="M8.48,175.36c.71,0,1.28-.57,1.28-1.28s-.57-1.28-1.28-1.28-1.28,.57-1.28,1.28,.57,1.28,1.28,1.28Z"/><path d="M22.88,175.36c.71,0,1.28-.57,1.28-1.28s-.57-1.28-1.28-1.28-1.28,.57-1.28,1.28,.57,1.28,1.28,1.28Z"/><path d="M37.28,175.36c.71,0,1.28-.57,1.28-1.28s-.57-1.28-1.28-1.28-1.28,.57-1.28,1.28,.57,1.28,1.28,1.28Z"/><path d="M51.68,175.36c.71,0,1.28-.57,1.28-1.28s-.57-1.28-1.28-1.28-1.28,.57-1.28,1.28,.57,1.28,1.28,1.28Z"/><path d="M66.08,175.36c.71,0,1.28-.57,1.28-1.28s-.57-1.28-1.28-1.28-1.28,.57-1.28,1.28,.57,1.28,1.28,1.28Z"/><path d="M80.48,175.36c.71,0,1.28-.57,1.28-1.28s-.57-1.28-1.28-1.28-1.28,.57-1.28,1.28,.57,1.28,1.28,1.28Z"/><path d="M94.88,175.36c.71,0,1.28-.57,1.28-1.28s-.57-1.28-1.28-1.28-1.28,.57-1.28,1.28,.57,1.28,1.28,1.28Z"/><path d="M109.28,175.36c.71,0,1.28-.57,1.28-1.28s-.57-1.28-1.28-1.28-1.28,.57-1.28,1.28,.57,1.28,1.28,1.28Z"/><path d="M123.68,175.36c.71,0,1.28-.57,1.28-1.28s-.57-1.28-1.28-1.28-1.28,.57-1.28,1.28,.57,1.28,1.28,1.28Z"/><path d="M138.08,175.36c.71,0,1.28-.57,1.28-1.28s-.57-1.28-1.28-1.28-1.28,.57-1.28,1.28,.57,1.28,1.28,1.28Z"/><path d="M152.48,175.36c.71,0,1.28-.57,1.28-1.28s-.57-1.28-1.28-1.28-1.28,.57-1.28,1.28,.57,1.28,1.28,1.28Z"/><path d="M166.88,175.36c.71,0,1.28-.57,1.28-1.28s-.57-1.28-1.28-1.28-1.28,.57-1.28,1.28,.57,1.28,1.28,1.28Z"/><path d="M181.28,175.36c.71,0,1.28-.57,1.28-1.28s-.57-1.28-1.28-1.28-1.28,.57-1.28,1.28,.57,1.28,1.28,1.28Z"/><path d="M195.68,175.36c.71,0,1.28-.57,1.28-1.28s-.57-1.28-1.28-1.28-1.28,.57-1.28,1.28,.57,1.28,1.28,1.28Z"/><path d="M210.08,175.36c.71,0,1.28-.57,1.28-1.28s-.57-1.28-1.28-1.28-1.28,.57-1.28,1.28,.57,1.28,1.28,1.28Z"/><path d="M224.48,175.36c.71,0,1.28-.57,1.28-1.28s-.57-1.28-1.28-1.28-1.28,.57-1.28,1.28,.57,1.28,1.28,1.28Z"/><path d="M238.88,175.36c.71,0,1.28-.57,1.28-1.28s-.57-1.28-1.28-1.28-1.28,.57-1.28,1.28,.57,1.28,1.28,1.28Z"/><path d="M253.28,175.36c.71,0,1.28-.57,1.28-1.28s-.57-1.28-1.28-1.28-1.28,.57-1.28,1.28,.57,1.28,1.28,1.28Z"/><path d="M267.68,175.36c.71,0,1.28-.57,1.28-1.28s-.57-1.28-1.28-1.28-1.28,.57-1.28,1.28,.57,1.28,1.28,1.28Z"/><path d="M282.08,175.36c.71,0,1.28-.57,1.28-1.28s-.57-1.28-1.28-1.28-1.28,.57-1.28,1.28,.57,1.28,1.28,1.28Z"/><path d="M296.48,175.36c.71,0,1.28-.57,1.28-1.28s-.57-1.28-1.28-1.28-1.28,.57-1.28,1.28,.57,1.28,1.28,1.28Z"/><path d="M310.88,175.36c.71,0,1.28-.57,1.28-1.28s-.57-1.28-1.28-1.28-1.28,.57-1.28,1.28,.57,1.28,1.28,1.28Z"/><path d="M1.28,189.76c.71,0,1.28-.57,1.28-1.28s-.57-1.28-1.28-1.28-1.28,.57-1.28,1.28,.57,1.28,1.28,1.28Z"/><path d="M15.68,189.76c.71,0,1.28-.57,1.28-1.28s-.57-1.28-1.28-1.28-1.28,.57-1.28,1.28,.57,1.28,1.28,1.28Z"/><path d="M30.08,189.76c.71,0,1.28-.57,1.28-1.28s-.57-1.28-1.28-1.28-1.28,.57-1.28,1.28,.57,1.28,1.28,1.28Z"/><path d="M44.48,189.76c.71,0,1.28-.57,1.28-1.28s-.57-1.28-1.28-1.28-1.28,.57-1.28,1.28,.57,1.28,1.28,1.28Z"/><path d="M58.88,189.76c.71,0,1.28-.57,1.28-1.28s-.57-1.28-1.28-1.28-1.28,.57-1.28,1.28,.57,1.28,1.28,1.28Z"/><path d="M73.28,189.76c.71,0,1.28-.57,1.28-1.28s-.57-1.28-1.28-1.28-1.28,.57-1.28,1.28,.57,1.28,1.28,1.28Z"/><path d="M87.68,189.76c.71,0,1.28-.57,1.28-1.28s-.57-1.28-1.28-1.28-1.28,.57-1.28,1.28,.57,1.28,1.28,1.28Z"/><path d="M102.08,189.76c.71,0,1.28-.57,1.28-1.28s-.57-1.28-1.28-1.28-1.28,.57-1.28,1.28,.57,1.28,1.28,1.28Z"/><path d="M116.48,189.76c.71,0,1.28-.57,1.28-1.28s-.57-1.28-1.28-1.28-1.28,.57-1.28,1.28,.57,1.28,1.28,1.28Z"/><path d="M130.88,189.76c.71,0,1.28-.57,1.28-1.28s-.57-1.28-1.28-1.28-1.28,.57-1.28,1.28,.57,1.28,1.28,1.28Z"/><path d="M145.28,189.76c.71,0,1.28-.57,1.28-1.28s-.57-1.28-1.28-1.28-1.28,.57-1.28,1.28,.57,1.28,1.28,1.28Z"/><path d="M159.68,189.76c.71,0,1.28-.57,1.28-1.28s-.57-1.28-1.28-1.28-1.28,.57-1.28,1.28,.57,1.28,1.28,1.28Z"/><path d="M174.08,189.76c.71,0,1.28-.57,1.28-1.28s-.57-1.28-1.28-1.28-1.28,.57-1.28,1.28,.57,1.28,1.28,1.28Z"/><path d="M188.48,189.76c.71,0,1.28-.57,1.28-1.28s-.57-1.28-1.28-1.28-1.28,.57-1.28,1.28,.57,1.28,1.28,1.28Z"/><path d="M202.88,189.76c.71,0,1.28-.57,1.28-1.28s-.57-1.28-1.28-1.28-1.28,.57-1.28,1.28,.57,1.28,1.28,1.28Z"/><path d="M217.28,189.76c.71,0,1.28-.57,1.28-1.28s-.57-1.28-1.28-1.28-1.28,.57-1.28,1.28,.57,1.28,1.28,1.28Z"/><path d="M231.68,189.76c.71,0,1.28-.57,1.28-1.28s-.57-1.28-1.28-1.28-1.28,.57-1.28,1.28,.57,1.28,1.28,1.28Z"/><path d="M246.08,189.76c.71,0,1.28-.57,1.28-1.28s-.57-1.28-1.28-1.28-1.28,.57-1.28,1.28,.57,1.28,1.28,1.28Z"/><path d="M260.48,189.76c.71,0,1.28-.57,1.28-1.28s-.57-1.28-1.28-1.28-1.28,.57-1.28,1.28,.57,1.28,1.28,1.28Z"/><path d="M274.88,189.76c.71,0,1.28-.57,1.28-1.28s-.57-1.28-1.28-1.28-1.28,.57-1.28,1.28,.57,1.28,1.28,1.28Z"/><path d="M289.28,189.76c.71,0,1.28-.57,1.28-1.28s-.57-1.28-1.28-1.28-1.28,.57-1.28,1.28,.57,1.28,1.28,1.28Z"/><path d="M303.68,189.76c.71,0,1.28-.57,1.28-1.28s-.57-1.28-1.28-1.28-1.28,.57-1.28,1.28,.57,1.28,1.28,1.28Z"/><path d="M8.48,204.16c.71,0,1.28-.57,1.28-1.28s-.57-1.28-1.28-1.28-1.28,.57-1.28,1.28,.57,1.28,1.28,1.28Z"/><path d="M22.88,204.16c.71,0,1.28-.57,1.28-1.28s-.57-1.28-1.28-1.28-1.28,.57-1.28,1.28,.57,1.28,1.28,1.28Z"/><path d="M37.28,204.16c.71,0,1.28-.57,1.28-1.28s-.57-1.28-1.28-1.28-1.28,.57-1.28,1.28,.57,1.28,1.28,1.28Z"/><path d="M51.68,204.16c.71,0,1.28-.57,1.28-1.28s-.57-1.28-1.28-1.28-1.28,.57-1.28,1.28,.57,1.28,1.28,1.28Z"/><path d="M66.08,204.16c.71,0,1.28-.57,1.28-1.28s-.57-1.28-1.28-1.28-1.28,.57-1.28,1.28,.57,1.28,1.28,1.28Z"/><path d="M80.48,204.16c.71,0,1.28-.57,1.28-1.28s-.57-1.28-1.28-1.28-1.28,.57-1.28,1.28,.57,1.28,1.28,1.28Z"/><path d="M94.88,204.16c.71,0,1.28-.57,1.28-1.28s-.57-1.28-1.28-1.28-1.28,.57-1.28,1.28,.57,1.28,1.28,1.28Z"/><path d="M109.28,204.16c.71,0,1.28-.57,1.28-1.28s-.57-1.28-1.28-1.28-1.28,.57-1.28,1.28,.57,1.28,1.28,1.28Z"/><path d="M123.68,204.16c.71,0,1.28-.57,1.28-1.28s-.57-1.28-1.28-1.28-1.28,.57-1.28,1.28,.57,1.28,1.28,1.28Z"/><path d="M138.08,204.16c.71,0,1.28-.57,1.28-1.28s-.57-1.28-1.28-1.28-1.28,.57-1.28,1.28,.57,1.28,1.28,1.28Z"/><path d="M152.48,204.16c.71,0,1.28-.57,1.28-1.28s-.57-1.28-1.28-1.28-1.28,.57-1.28,1.28,.57,1.28,1.28,1.28Z"/><path d="M166.88,204.16c.71,0,1.28-.57,1.28-1.28s-.57-1.28-1.28-1.28-1.28,.57-1.28,1.28,.57,1.28,1.28,1.28Z"/><path d="M181.28,204.16c.71,0,1.28-.57,1.28-1.28s-.57-1.28-1.28-1.28-1.28,.57-1.28,1.28,.57,1.28,1.28,1.28Z"/><path d="M195.68,204.16c.71,0,1.28-.57,1.28-1.28s-.57-1.28-1.28-1.28-1.28,.57-1.28,1.28,.57,1.28,1.28,1.28Z"/><path d="M210.08,204.16c.71,0,1.28-.57,1.28-1.28s-.57-1.28-1.28-1.28-1.28,.57-1.28,1.28,.57,1.28,1.28,1.28Z"/><path d="M224.48,204.16c.71,0,1.28-.57,1.28-1.28s-.57-1.28-1.28-1.28-1.28,.57-1.28,1.28,.57,1.28,1.28,1.28Z"/><path d="M238.88,204.16c.71,0,1.28-.57,1.28-1.28s-.57-1.28-1.28-1.28-1.28,.57-1.28,1.28,.57,1.28,1.28,1.28Z"/><path d="M253.28,204.16c.71,0,1.28-.57,1.28-1.28s-.57-1.28-1.28-1.28-1.28,.57-1.28,1.28,.57,1.28,1.28,1.28Z"/><path d="M267.68,204.16c.71,0,1.28-.57,1.28-1.28s-.57-1.28-1.28-1.28-1.28,.57-1.28,1.28,.57,1.28,1.28,1.28Z"/><path d="M282.08,204.16c.71,0,1.28-.57,1.28-1.28s-.57-1.28-1.28-1.28-1.28,.57-1.28,1.28,.57,1.28,1.28,1.28Z"/><path d="M296.48,204.16c.71,0,1.28-.57,1.28-1.28s-.57-1.28-1.28-1.28-1.28,.57-1.28,1.28,.57,1.28,1.28,1.28Z"/><path d="M310.88,204.16c.71,0,1.28-.57,1.28-1.28s-.57-1.28-1.28-1.28-1.28,.57-1.28,1.28,.57,1.28,1.28,1.28Z"/><path d="M1.28,218.56c.71,0,1.28-.57,1.28-1.28s-.57-1.28-1.28-1.28-1.28,.57-1.28,1.28,.57,1.28,1.28,1.28Z"/><circle cx="15.68" cy="217.28" r="1.28"/><path d="M30.08,218.56c.71,0,1.28-.57,1.28-1.28s-.57-1.28-1.28-1.28-1.28,.57-1.28,1.28,.57,1.28,1.28,1.28Z"/><path d="M44.48,218.56c.71,0,1.28-.57,1.28-1.28s-.57-1.28-1.28-1.28-1.28,.57-1.28,1.28,.57,1.28,1.28,1.28Z"/><path d="M58.88,218.56c.71,0,1.28-.57,1.28-1.28s-.57-1.28-1.28-1.28-1.28,.57-1.28,1.28,.57,1.28,1.28,1.28Z"/><path d="M73.28,218.56c.71,0,1.28-.57,1.28-1.28s-.57-1.28-1.28-1.28-1.28,.57-1.28,1.28,.57,1.28,1.28,1.28Z"/><circle cx="87.68" cy="217.28" r="1.28"/><path d="M102.08,218.56c.71,0,1.28-.57,1.28-1.28s-.57-1.28-1.28-1.28-1.28,.57-1.28,1.28,.57,1.28,1.28,1.28Z"/><path d="M116.48,218.56c.71,0,1.28-.57,1.28-1.28s-.57-1.28-1.28-1.28-1.28,.57-1.28,1.28,.57,1.28,1.28,1.28Z"/><path d="M130.88,218.56c.71,0,1.28-.57,1.28-1.28s-.57-1.28-1.28-1.28-1.28,.57-1.28,1.28,.57,1.28,1.28,1.28Z"/><path d="M145.28,218.56c.71,0,1.28-.57,1.28-1.28s-.57-1.28-1.28-1.28-1.28,.57-1.28,1.28,.57,1.28,1.28,1.28Z"/><circle cx="159.68" cy="217.28" r="1.28"/><path d="M174.08,218.56c.71,0,1.28-.57,1.28-1.28s-.57-1.28-1.28-1.28-1.28,.57-1.28,1.28,.57,1.28,1.28,1.28Z"/><path d="M188.48,218.56c.71,0,1.28-.57,1.28-1.28s-.57-1.28-1.28-1.28-1.28,.57-1.28,1.28,.57,1.28,1.28,1.28Z"/><path d="M202.88,218.56c.71,0,1.28-.57,1.28-1.28s-.57-1.28-1.28-1.28-1.28,.57-1.28,1.28,.57,1.28,1.28,1.28Z"/><path d="M217.28,218.56c.71,0,1.28-.57,1.28-1.28s-.57-1.28-1.28-1.28-1.28,.57-1.28,1.28,.57,1.28,1.28,1.28Z"/><circle cx="231.68" cy="217.28" r="1.28"/><path d="M246.08,218.56c.71,0,1.28-.57,1.28-1.28s-.57-1.28-1.28-1.28-1.28,.57-1.28,1.28,.57,1.28,1.28,1.28Z"/><path d="M260.48,218.56c.71,0,1.28-.57,1.28-1.28s-.57-1.28-1.28-1.28-1.28,.57-1.28,1.28,.57,1.28,1.28,1.28Z"/><path d="M274.88,218.56c.71,0,1.28-.57,1.28-1.28s-.57-1.28-1.28-1.28-1.28,.57-1.28,1.28,.57,1.28,1.28,1.28Z"/><path d="M289.28,218.56c.71,0,1.28-.57,1.28-1.28s-.57-1.28-1.28-1.28-1.28,.57-1.28,1.28,.57,1.28,1.28,1.28Z"/><circle cx="303.68" cy="217.28" r="1.28"/><path d="M8.48,232.96c.71,0,1.28-.57,1.28-1.28s-.57-1.28-1.28-1.28-1.28,.57-1.28,1.28,.57,1.28,1.28,1.28Z"/><path d="M22.88,232.96c.71,0,1.28-.57,1.28-1.28s-.57-1.28-1.28-1.28-1.28,.57-1.28,1.28,.57,1.28,1.28,1.28Z"/><path d="M37.28,232.96c.71,0,1.28-.57,1.28-1.28s-.57-1.28-1.28-1.28-1.28,.57-1.28,1.28,.57,1.28,1.28,1.28Z"/><circle cx="51.68" cy="231.68" r="1.28"/><path d="M66.08,232.96c.71,0,1.28-.57,1.28-1.28s-.57-1.28-1.28-1.28-1.28,.57-1.28,1.28,.57,1.28,1.28,1.28Z"/><path d="M80.48,232.96c.71,0,1.28-.57,1.28-1.28s-.57-1.28-1.28-1.28-1.28,.57-1.28,1.28,.57,1.28,1.28,1.28Z"/><path d="M94.88,232.96c.71,0,1.28-.57,1.28-1.28s-.57-1.28-1.28-1.28-1.28,.57-1.28,1.28,.57,1.28,1.28,1.28Z"/><path d="M109.28,232.96c.71,0,1.28-.57,1.28-1.28s-.57-1.28-1.28-1.28-1.28,.57-1.28,1.28,.57,1.28,1.28,1.28Z"/><circle cx="123.68" cy="231.68" r="1.28"/><path d="M138.08,232.96c.71,0,1.28-.57,1.28-1.28s-.57-1.28-1.28-1.28-1.28,.57-1.28,1.28,.57,1.28,1.28,1.28Z"/><path d="M152.48,232.96c.71,0,1.28-.57,1.28-1.28s-.57-1.28-1.28-1.28-1.28,.57-1.28,1.28,.57,1.28,1.28,1.28Z"/><path d="M166.88,232.96c.71,0,1.28-.57,1.28-1.28s-.57-1.28-1.28-1.28-1.28,.57-1.28,1.28,.57,1.28,1.28,1.28Z"/><path d="M181.28,232.96c.71,0,1.28-.57,1.28-1.28s-.57-1.28-1.28-1.28-1.28,.57-1.28,1.28,.57,1.28,1.28,1.28Z"/><circle cx="195.68" cy="231.68" r="1.28"/><path d="M210.08,232.96c.71,0,1.28-.57,1.28-1.28s-.57-1.28-1.28-1.28-1.28,.57-1.28,1.28,.57,1.28,1.28,1.28Z"/><path d="M224.48,232.96c.71,0,1.28-.57,1.28-1.28s-.57-1.28-1.28-1.28-1.28,.57-1.28,1.28,.57,1.28,1.28,1.28Z"/><path d="M238.88,232.96c.71,0,1.28-.57,1.28-1.28s-.57-1.28-1.28-1.28-1.28,.57-1.28,1.28,.57,1.28,1.28,1.28Z"/><path d="M253.28,232.96c.71,0,1.28-.57,1.28-1.28s-.57-1.28-1.28-1.28-1.28,.57-1.28,1.28,.57,1.28,1.28,1.28Z"/><circle cx="267.68" cy="231.68" r="1.28"/><path d="M282.08,232.96c.71,0,1.28-.57,1.28-1.28s-.57-1.28-1.28-1.28-1.28,.57-1.28,1.28,.57,1.28,1.28,1.28Z"/><path d="M296.48,232.96c.71,0,1.28-.57,1.28-1.28s-.57-1.28-1.28-1.28-1.28,.57-1.28,1.28,.57,1.28,1.28,1.28Z"/><path d="M310.88,232.96c.71,0,1.28-.57,1.28-1.28s-.57-1.28-1.28-1.28-1.28,.57-1.28,1.28,.57,1.28,1.28,1.28Z"/><path d="M1.28,247.36c.71,0,1.28-.57,1.28-1.28s-.57-1.28-1.28-1.28-1.28,.57-1.28,1.28,.57,1.28,1.28,1.28Z"/><path d="M15.68,247.36c.71,0,1.28-.57,1.28-1.28s-.57-1.28-1.28-1.28-1.28,.57-1.28,1.28,.57,1.28,1.28,1.28Z"/><path d="M30.08,247.36c.71,0,1.28-.57,1.28-1.28s-.57-1.28-1.28-1.28-1.28,.57-1.28,1.28,.57,1.28,1.28,1.28Z"/><path d="M44.48,247.36c.71,0,1.28-.57,1.28-1.28s-.57-1.28-1.28-1.28-1.28,.57-1.28,1.28,.57,1.28,1.28,1.28Z"/><path d="M58.88,247.36c.71,0,1.28-.57,1.28-1.28s-.57-1.28-1.28-1.28-1.28,.57-1.28,1.28,.57,1.28,1.28,1.28Z"/><path d="M73.28,247.36c.71,0,1.28-.57,1.28-1.28s-.57-1.28-1.28-1.28-1.28,.57-1.28,1.28,.57,1.28,1.28,1.28Z"/><path d="M87.68,247.36c.71,0,1.28-.57,1.28-1.28s-.57-1.28-1.28-1.28-1.28,.57-1.28,1.28,.57,1.28,1.28,1.28Z"/><path d="M102.08,247.36c.71,0,1.28-.57,1.28-1.28s-.57-1.28-1.28-1.28-1.28,.57-1.28,1.28,.57,1.28,1.28,1.28Z"/><path d="M116.48,247.36c.71,0,1.28-.57,1.28-1.28s-.57-1.28-1.28-1.28-1.28,.57-1.28,1.28,.57,1.28,1.28,1.28Z"/><path d="M130.88,247.36c.71,0,1.28-.57,1.28-1.28s-.57-1.28-1.28-1.28-1.28,.57-1.28,1.28,.57,1.28,1.28,1.28Z"/><path d="M145.28,247.36c.71,0,1.28-.57,1.28-1.28s-.57-1.28-1.28-1.28-1.28,.57-1.28,1.28,.57,1.28,1.28,1.28Z"/><path d="M159.68,247.36c.71,0,1.28-.57,1.28-1.28s-.57-1.28-1.28-1.28-1.28,.57-1.28,1.28,.57,1.28,1.28,1.28Z"/><path d="M174.08,247.36c.71,0,1.28-.57,1.28-1.28s-.57-1.28-1.28-1.28-1.28,.57-1.28,1.28,.57,1.28,1.28,1.28Z"/><path d="M188.48,247.36c.71,0,1.28-.57,1.28-1.28s-.57-1.28-1.28-1.28-1.28,.57-1.28,1.28,.57,1.28,1.28,1.28Z"/><path d="M202.88,247.36c.71,0,1.28-.57,1.28-1.28s-.57-1.28-1.28-1.28-1.28,.57-1.28,1.28,.57,1.28,1.28,1.28Z"/><path d="M217.28,247.36c.71,0,1.28-.57,1.28-1.28s-.57-1.28-1.28-1.28-1.28,.57-1.28,1.28,.57,1.28,1.28,1.28Z"/><path d="M231.68,247.36c.71,0,1.28-.57,1.28-1.28s-.57-1.28-1.28-1.28-1.28,.57-1.28,1.28,.57,1.28,1.28,1.28Z"/><path d="M246.08,247.36c.71,0,1.28-.57,1.28-1.28s-.57-1.28-1.28-1.28-1.28,.57-1.28,1.28,.57,1.28,1.28,1.28Z"/><path d="M260.48,247.36c.71,0,1.28-.57,1.28-1.28s-.57-1.28-1.28-1.28-1.28,.57-1.28,1.28,.57,1.28,1.28,1.28Z"/><path d="M274.88,247.36c.71,0,1.28-.57,1.28-1.28s-.57-1.28-1.28-1.28-1.28,.57-1.28,1.28,.57,1.28,1.28,1.28Z"/><path d="M289.28,247.36c.71,0,1.28-.57,1.28-1.28s-.57-1.28-1.28-1.28-1.28,.57-1.28,1.28,.57,1.28,1.28,1.28Z"/><path d="M303.68,247.36c.71,0,1.28-.57,1.28-1.28s-.57-1.28-1.28-1.28-1.28,.57-1.28,1.28,.57,1.28,1.28,1.28Z"/><path d="M8.48,261.76c.71,0,1.28-.57,1.28-1.28s-.57-1.28-1.28-1.28-1.28,.57-1.28,1.28,.57,1.28,1.28,1.28Z"/><path d="M22.88,261.76c.71,0,1.28-.57,1.28-1.28s-.57-1.28-1.28-1.28-1.28,.57-1.28,1.28,.57,1.28,1.28,1.28Z"/><path d="M37.28,261.76c.71,0,1.28-.57,1.28-1.28s-.57-1.28-1.28-1.28-1.28,.57-1.28,1.28,.57,1.28,1.28,1.28Z"/><path d="M51.68,261.76c.71,0,1.28-.57,1.28-1.28s-.57-1.28-1.28-1.28-1.28,.57-1.28,1.28,.57,1.28,1.28,1.28Z"/><path d="M66.08,261.76c.71,0,1.28-.57,1.28-1.28s-.57-1.28-1.28-1.28-1.28,.57-1.28,1.28,.57,1.28,1.28,1.28Z"/><path d="M80.48,261.76c.71,0,1.28-.57,1.28-1.28s-.57-1.28-1.28-1.28-1.28,.57-1.28,1.28,.57,1.28,1.28,1.28Z"/><path d="M94.88,261.76c.71,0,1.28-.57,1.28-1.28s-.57-1.28-1.28-1.28-1.28,.57-1.28,1.28,.57,1.28,1.28,1.28Z"/><path d="M109.28,261.76c.71,0,1.28-.57,1.28-1.28s-.57-1.28-1.28-1.28-1.28,.57-1.28,1.28,.57,1.28,1.28,1.28Z"/><path d="M123.68,261.76c.71,0,1.28-.57,1.28-1.28s-.57-1.28-1.28-1.28-1.28,.57-1.28,1.28,.57,1.28,1.28,1.28Z"/><path d="M138.08,261.76c.71,0,1.28-.57,1.28-1.28s-.57-1.28-1.28-1.28-1.28,.57-1.28,1.28,.57,1.28,1.28,1.28Z"/><path d="M152.48,261.76c.71,0,1.28-.57,1.28-1.28s-.57-1.28-1.28-1.28-1.28,.57-1.28,1.28,.57,1.28,1.28,1.28Z"/><path d="M166.88,261.76c.71,0,1.28-.57,1.28-1.28s-.57-1.28-1.28-1.28-1.28,.57-1.28,1.28,.57,1.28,1.28,1.28Z"/><path d="M181.28,261.76c.71,0,1.28-.57,1.28-1.28s-.57-1.28-1.28-1.28-1.28,.57-1.28,1.28,.57,1.28,1.28,1.28Z"/><path d="M195.68,261.76c.71,0,1.28-.57,1.28-1.28s-.57-1.28-1.28-1.28-1.28,.57-1.28,1.28,.57,1.28,1.28,1.28Z"/><path d="M210.08,261.76c.71,0,1.28-.57,1.28-1.28s-.57-1.28-1.28-1.28-1.28,.57-1.28,1.28,.57,1.28,1.28,1.28Z"/><path d="M224.48,261.76c.71,0,1.28-.57,1.28-1.28s-.57-1.28-1.28-1.28-1.28,.57-1.28,1.28,.57,1.28,1.28,1.28Z"/><path d="M238.88,261.76c.71,0,1.28-.57,1.28-1.28s-.57-1.28-1.28-1.28-1.28,.57-1.28,1.28,.57,1.28,1.28,1.28Z"/><path d="M253.28,261.76c.71,0,1.28-.57,1.28-1.28s-.57-1.28-1.28-1.28-1.28,.57-1.28,1.28,.57,1.28,1.28,1.28Z"/><path d="M267.68,261.76c.71,0,1.28-.57,1.28-1.28s-.57-1.28-1.28-1.28-1.28,.57-1.28,1.28,.57,1.28,1.28,1.28Z"/><path d="M282.08,261.76c.71,0,1.28-.57,1.28-1.28s-.57-1.28-1.28-1.28-1.28,.57-1.28,1.28,.57,1.28,1.28,1.28Z"/><path d="M296.48,261.76c.71,0,1.28-.57,1.28-1.28s-.57-1.28-1.28-1.28-1.28,.57-1.28,1.28,.57,1.28,1.28,1.28Z"/><path d="M310.88,261.76c.71,0,1.28-.57,1.28-1.28s-.57-1.28-1.28-1.28-1.28,.57-1.28,1.28,.57,1.28,1.28,1.28Z"/><path d="M1.28,276.16c.71,0,1.28-.57,1.28-1.28s-.57-1.28-1.28-1.28-1.28,.57-1.28,1.28,.57,1.28,1.28,1.28Z"/><path d="M15.68,276.16c.71,0,1.28-.57,1.28-1.28s-.57-1.28-1.28-1.28-1.28,.57-1.28,1.28,.57,1.28,1.28,1.28Z"/><path d="M30.08,276.16c.71,0,1.28-.57,1.28-1.28s-.57-1.28-1.28-1.28-1.28,.57-1.28,1.28,.57,1.28,1.28,1.28Z"/><path d="M44.48,276.16c.71,0,1.28-.57,1.28-1.28s-.57-1.28-1.28-1.28-1.28,.57-1.28,1.28,.57,1.28,1.28,1.28Z"/><path d="M58.88,276.16c.71,0,1.28-.57,1.28-1.28s-.57-1.28-1.28-1.28-1.28,.57-1.28,1.28,.57,1.28,1.28,1.28Z"/><path d="M73.28,276.16c.71,0,1.28-.57,1.28-1.28s-.57-1.28-1.28-1.28-1.28,.57-1.28,1.28,.57,1.28,1.28,1.28Z"/><path d="M87.68,276.16c.71,0,1.28-.57,1.28-1.28s-.57-1.28-1.28-1.28-1.28,.57-1.28,1.28,.57,1.28,1.28,1.28Z"/><path d="M102.08,276.16c.71,0,1.28-.57,1.28-1.28s-.57-1.28-1.28-1.28-1.28,.57-1.28,1.28,.57,1.28,1.28,1.28Z"/><path d="M116.48,276.16c.71,0,1.28-.57,1.28-1.28s-.57-1.28-1.28-1.28-1.28,.57-1.28,1.28,.57,1.28,1.28,1.28Z"/><path d="M130.88,276.16c.71,0,1.28-.57,1.28-1.28s-.57-1.28-1.28-1.28-1.28,.57-1.28,1.28,.57,1.28,1.28,1.28Z"/><path d="M145.28,276.16c.71,0,1.28-.57,1.28-1.28s-.57-1.28-1.28-1.28-1.28,.57-1.28,1.28,.57,1.28,1.28,1.28Z"/><path d="M159.68,276.16c.71,0,1.28-.57,1.28-1.28s-.57-1.28-1.28-1.28-1.28,.57-1.28,1.28,.57,1.28,1.28,1.28Z"/><path d="M174.08,276.16c.71,0,1.28-.57,1.28-1.28s-.57-1.28-1.28-1.28-1.28,.57-1.28,1.28,.57,1.28,1.28,1.28Z"/><path d="M188.48,276.16c.71,0,1.28-.57,1.28-1.28s-.57-1.28-1.28-1.28-1.28,.57-1.28,1.28,.57,1.28,1.28,1.28Z"/><path d="M202.88,276.16c.71,0,1.28-.57,1.28-1.28s-.57-1.28-1.28-1.28-1.28,.57-1.28,1.28,.57,1.28,1.28,1.28Z"/><path d="M217.28,276.16c.71,0,1.28-.57,1.28-1.28s-.57-1.28-1.28-1.28-1.28,.57-1.28,1.28,.57,1.28,1.28,1.28Z"/><path d="M231.68,276.16c.71,0,1.28-.57,1.28-1.28s-.57-1.28-1.28-1.28-1.28,.57-1.28,1.28,.57,1.28,1.28,1.28Z"/><path d="M246.08,276.16c.71,0,1.28-.57,1.28-1.28s-.57-1.28-1.28-1.28-1.28,.57-1.28,1.28,.57,1.28,1.28,1.28Z"/><path d="M260.48,276.16c.71,0,1.28-.57,1.28-1.28s-.57-1.28-1.28-1.28-1.28,.57-1.28,1.28,.57,1.28,1.28,1.28Z"/><path d="M274.88,276.16c.71,0,1.28-.57,1.28-1.28s-.57-1.28-1.28-1.28-1.28,.57-1.28,1.28,.57,1.28,1.28,1.28Z"/><path d="M289.28,276.16c.71,0,1.28-.57,1.28-1.28s-.57-1.28-1.28-1.28-1.28,.57-1.28,1.28,.57,1.28,1.28,1.28Z"/><path d="M303.68,276.16c.71,0,1.28-.57,1.28-1.28s-.57-1.28-1.28-1.28-1.28,.57-1.28,1.28,.57,1.28,1.28,1.28Z"/><path d="M8.48,290.56c.71,0,1.28-.57,1.28-1.28s-.57-1.28-1.28-1.28-1.28,.57-1.28,1.28,.57,1.28,1.28,1.28Z"/><path d="M22.88,290.56c.71,0,1.28-.57,1.28-1.28s-.57-1.28-1.28-1.28-1.28,.57-1.28,1.28,.57,1.28,1.28,1.28Z"/><path d="M37.28,290.56c.71,0,1.28-.57,1.28-1.28s-.57-1.28-1.28-1.28-1.28,.57-1.28,1.28,.57,1.28,1.28,1.28Z"/><circle cx="51.68" cy="289.28" r="1.28"/><path d="M66.08,290.56c.71,0,1.28-.57,1.28-1.28s-.57-1.28-1.28-1.28-1.28,.57-1.28,1.28,.57,1.28,1.28,1.28Z"/><path d="M80.48,290.56c.71,0,1.28-.57,1.28-1.28s-.57-1.28-1.28-1.28-1.28,.57-1.28,1.28,.57,1.28,1.28,1.28Z"/><path d="M94.88,290.56c.71,0,1.28-.57,1.28-1.28s-.57-1.28-1.28-1.28-1.28,.57-1.28,1.28,.57,1.28,1.28,1.28Z"/><path d="M109.28,290.56c.71,0,1.28-.57,1.28-1.28s-.57-1.28-1.28-1.28-1.28,.57-1.28,1.28,.57,1.28,1.28,1.28Z"/><circle cx="123.68" cy="289.28" r="1.28"/><path d="M138.08,290.56c.71,0,1.28-.57,1.28-1.28s-.57-1.28-1.28-1.28-1.28,.57-1.28,1.28,.57,1.28,1.28,1.28Z"/><path d="M152.48,290.56c.71,0,1.28-.57,1.28-1.28s-.57-1.28-1.28-1.28-1.28,.57-1.28,1.28,.57,1.28,1.28,1.28Z"/><path d="M166.88,290.56c.71,0,1.28-.57,1.28-1.28s-.57-1.28-1.28-1.28-1.28,.57-1.28,1.28,.57,1.28,1.28,1.28Z"/><path d="M181.28,290.56c.71,0,1.28-.57,1.28-1.28s-.57-1.28-1.28-1.28-1.28,.57-1.28,1.28,.57,1.28,1.28,1.28Z"/><circle cx="195.68" cy="289.28" r="1.28"/><path d="M210.08,290.56c.71,0,1.28-.57,1.28-1.28s-.57-1.28-1.28-1.28-1.28,.57-1.28,1.28,.57,1.28,1.28,1.28Z"/><path d="M224.48,290.56c.71,0,1.28-.57,1.28-1.28s-.57-1.28-1.28-1.28-1.28,.57-1.28,1.28,.57,1.28,1.28,1.28Z"/><path d="M238.88,290.56c.71,0,1.28-.57,1.28-1.28s-.57-1.28-1.28-1.28-1.28,.57-1.28,1.28,.57,1.28,1.28,1.28Z"/><path d="M253.28,290.56c.71,0,1.28-.57,1.28-1.28s-.57-1.28-1.28-1.28-1.28,.57-1.28,1.28,.57,1.28,1.28,1.28Z"/><circle cx="267.68" cy="289.28" r="1.28"/><path d="M282.08,290.56c.71,0,1.28-.57,1.28-1.28s-.57-1.28-1.28-1.28-1.28,.57-1.28,1.28,.57,1.28,1.28,1.28Z"/><path d="M296.48,290.56c.71,0,1.28-.57,1.28-1.28s-.57-1.28-1.28-1.28-1.28,.57-1.28,1.28,.57,1.28,1.28,1.28Z"/><path d="M310.88,290.56c.71,0,1.28-.57,1.28-1.28s-.57-1.28-1.28-1.28-1.28,.57-1.28,1.28,.57,1.28,1.28,1.28Z"/><path d="M1.28,304.96c.71,0,1.28-.57,1.28-1.28s-.57-1.28-1.28-1.28-1.28,.57-1.28,1.28,.57,1.28,1.28,1.28Z"/><circle cx="15.68" cy="303.68" r="1.28"/><path d="M30.08,304.96c.71,0,1.28-.57,1.28-1.28s-.57-1.28-1.28-1.28-1.28,.57-1.28,1.28,.57,1.28,1.28,1.28Z"/><path d="M44.48,304.96c.71,0,1.28-.57,1.28-1.28s-.57-1.28-1.28-1.28-1.28,.57-1.28,1.28,.57,1.28,1.28,1.28Z"/><path d="M58.88,304.96c.71,0,1.28-.57,1.28-1.28s-.57-1.28-1.28-1.28-1.28,.57-1.28,1.28,.57,1.28,1.28,1.28Z"/><path d="M73.28,304.96c.71,0,1.28-.57,1.28-1.28s-.57-1.28-1.28-1.28-1.28,.57-1.28,1.28,.57,1.28,1.28,1.28Z"/><circle cx="87.68" cy="303.68" r="1.28"/><path d="M102.08,304.96c.71,0,1.28-.57,1.28-1.28s-.57-1.28-1.28-1.28-1.28,.57-1.28,1.28,.57,1.28,1.28,1.28Z"/><path d="M116.48,304.96c.71,0,1.28-.57,1.28-1.28s-.57-1.28-1.28-1.28-1.28,.57-1.28,1.28,.57,1.28,1.28,1.28Z"/><path d="M130.88,304.96c.71,0,1.28-.57,1.28-1.28s-.57-1.28-1.28-1.28-1.28,.57-1.28,1.28,.57,1.28,1.28,1.28Z"/><path d="M145.28,304.96c.71,0,1.28-.57,1.28-1.28s-.57-1.28-1.28-1.28-1.28,.57-1.28,1.28,.57,1.28,1.28,1.28Z"/><circle cx="159.68" cy="303.68" r="1.28"/><path d="M174.08,304.96c.71,0,1.28-.57,1.28-1.28s-.57-1.28-1.28-1.28-1.28,.57-1.28,1.28,.57,1.28,1.28,1.28Z"/><path d="M188.48,304.96c.71,0,1.28-.57,1.28-1.28s-.57-1.28-1.28-1.28-1.28,.57-1.28,1.28,.57,1.28,1.28,1.28Z"/><path d="M202.88,304.96c.71,0,1.28-.57,1.28-1.28s-.57-1.28-1.28-1.28-1.28,.57-1.28,1.28,.57,1.28,1.28,1.28Z"/><path d="M217.28,304.96c.71,0,1.28-.57,1.28-1.28s-.57-1.28-1.28-1.28-1.28,.57-1.28,1.28,.57,1.28,1.28,1.28Z"/><circle cx="231.68" cy="303.68" r="1.28"/><path d="M246.08,304.96c.71,0,1.28-.57,1.28-1.28s-.57-1.28-1.28-1.28-1.28,.57-1.28,1.28,.57,1.28,1.28,1.28Z"/><path d="M260.48,304.96c.71,0,1.28-.57,1.28-1.28s-.57-1.28-1.28-1.28-1.28,.57-1.28,1.28,.57,1.28,1.28,1.28Z"/><path d="M274.88,304.96c.71,0,1.28-.57,1.28-1.28s-.57-1.28-1.28-1.28-1.28,.57-1.28,1.28,.57,1.28,1.28,1.28Z"/><path d="M289.28,304.96c.71,0,1.28-.57,1.28-1.28s-.57-1.28-1.28-1.28-1.28,.57-1.28,1.28,.57,1.28,1.28,1.28Z"/><circle cx="303.68" cy="303.68" r="1.28"/></g></g></svg>